<svg xmlns="http://www.w3.org/2000/svg" xmlns:xlink="http://www.w3.org/1999/xlink" width="2000" zoomAndPan="magnify" viewBox="0 0 1500 1499.999933" height="2000" preserveAspectRatio="xMidYMid meet" version="1.0"><defs><g/><clipPath id="850cd7d873"><path d="M 20 199 L 896 199 L 896 301.480469 L 20 301.480469 Z M 20 199 " clip-rule="nonzero"/></clipPath><clipPath id="a25c9e42aa"><rect x="0" width="876" y="0" height="103"/></clipPath><clipPath id="e6fd20dc59"><rect x="0" width="899" y="0" height="302"/></clipPath><clipPath id="3a21ce17e8"><path d="M 766 734 L 781 734 L 781 748.195312 L 766 748.195312 Z M 766 734 " clip-rule="nonzero"/></clipPath><clipPath id="60db609182"><path d="M 525.792969 533 L 557 533 L 557 564 L 525.792969 564 Z M 525.792969 533 " clip-rule="nonzero"/></clipPath><clipPath id="4b2bced718"><path d="M 525.792969 478 L 557 478 L 557 509 L 525.792969 509 Z M 525.792969 478 " clip-rule="nonzero"/></clipPath><clipPath id="b2b9b8d71d"><path d="M 766 293.695312 L 781 293.695312 L 781 308 L 766 308 Z M 766 293.695312 " clip-rule="nonzero"/></clipPath></defs><rect x="-150" width="1800" fill="#ffffff" y="-149.999993" height="1799.99992" fill-opacity="1"/><rect x="-150" width="1800" fill="#dde6e6" y="-149.999993" height="1799.99992" fill-opacity="1"/><g transform="matrix(1, 0, 0, 1, 301, 749)"><g clip-path="url(#e6fd20dc59)"><g fill="#4b4132" fill-opacity="1"><g transform="translate(0.567945, 151.461889)"><g><path d="M 75.21875 -18.914062 C 70.785156 -7.980469 61.03125 -1.625 51.425781 -1.625 C 43.003906 -1.625 37.09375 -6.207031 33.988281 -10.34375 C 28.078125 -18.324219 27.929688 -26.894531 27.929688 -37.980469 L 27.929688 -60.882812 C 27.929688 -75.070312 30.292969 -82.3125 34.875 -87.484375 C 39.160156 -92.359375 44.628906 -95.167969 51.574219 -95.167969 C 59.109375 -95.167969 65.316406 -91.769531 69.160156 -86.449219 C 73.742188 -80.242188 75.21875 -73.59375 75.21875 -59.703125 Z M 92.804688 -53.347656 C 92.804688 -67.535156 89.699219 -76.695312 81.574219 -85.5625 C 74.035156 -93.691406 62.507812 -98.273438 51.574219 -98.273438 C 33.691406 -98.273438 17.585938 -86.894531 12.5625 -70.34375 C 10.789062 -64.726562 10.34375 -60.144531 10.34375 -53.789062 L 10.34375 -43.003906 C 10.34375 -30.148438 13.890625 -19.949219 20.984375 -11.96875 C 28.078125 -3.988281 39.160156 1.476562 50.6875 1.476562 C 61.179688 1.476562 70.785156 -4.433594 75.367188 -12.265625 L 75.367188 0 L 103 0 L 103 -3.101562 L 92.804688 -3.101562 Z M 92.804688 -53.347656 "/></g></g></g><g fill="#4b4132" fill-opacity="1"><g transform="translate(109.036227, 151.461889)"><g><path d="M 47.289062 0 L 47.289062 -3.101562 L 37.386719 -3.101562 L 37.386719 -135.953125 L 9.605469 -135.953125 L 9.605469 -132.851562 L 19.800781 -132.851562 L 19.800781 -3.101562 L 9.605469 -3.101562 L 9.605469 0 Z M 47.289062 0 "/></g></g></g><g fill="#4b4132" fill-opacity="1"><g transform="translate(157.063706, 151.461889)"><g><path d="M 37.386719 -121.324219 C 37.386719 -126.496094 33.101562 -130.78125 27.929688 -130.78125 C 22.757812 -130.78125 18.472656 -126.496094 18.472656 -121.324219 C 18.472656 -116.152344 22.757812 -111.867188 27.929688 -111.867188 C 33.101562 -111.867188 37.386719 -116.152344 37.386719 -121.324219 Z M 47.289062 0 L 47.289062 -3.101562 L 37.386719 -3.101562 L 37.386719 -96.941406 L 9.605469 -96.941406 L 9.605469 -93.839844 L 19.800781 -93.839844 L 19.800781 -3.101562 L 9.605469 -3.101562 L 9.605469 0 Z M 47.289062 0 "/></g></g></g><g fill="#4b4132" fill-opacity="1"><g transform="translate(213.21895, 151.461889)"><g><path d="M 75.21875 -18.914062 C 70.785156 -7.980469 61.03125 -1.625 51.425781 -1.625 C 43.003906 -1.625 37.09375 -6.207031 33.988281 -10.34375 C 28.078125 -18.324219 27.929688 -26.894531 27.929688 -37.980469 L 27.929688 -60.882812 C 27.929688 -75.070312 30.292969 -82.3125 34.875 -87.484375 C 39.160156 -92.359375 44.628906 -95.167969 51.574219 -95.167969 C 59.109375 -95.167969 65.316406 -91.769531 69.160156 -86.449219 C 73.742188 -80.242188 75.21875 -73.59375 75.21875 -59.703125 Z M 92.804688 -53.347656 C 92.804688 -67.535156 89.699219 -76.695312 81.574219 -85.5625 C 74.035156 -93.691406 62.507812 -98.273438 51.574219 -98.273438 C 33.691406 -98.273438 17.585938 -86.894531 12.5625 -70.34375 C 10.789062 -64.726562 10.34375 -60.144531 10.34375 -53.789062 L 10.34375 -43.003906 C 10.34375 -30.148438 13.890625 -19.949219 20.984375 -11.96875 C 28.078125 -3.988281 39.160156 1.476562 50.6875 1.476562 C 61.179688 1.476562 70.785156 -4.433594 75.367188 -12.265625 L 75.367188 6.648438 C 75.367188 16.847656 74.921875 19.800781 73.148438 24.085938 C 71.523438 27.929688 69.011719 31.179688 65.910156 33.398438 C 62.214844 36.058594 56.597656 37.683594 51.574219 37.683594 C 41.671875 37.683594 33.398438 32.660156 30.148438 24.53125 C 31.917969 26.007812 34.136719 26.601562 36.207031 26.601562 C 41.96875 26.601562 46.105469 22.609375 46.105469 16.699219 C 46.105469 11.082031 41.527344 6.648438 36.058594 6.648438 C 30 6.648438 25.417969 11.820312 25.417969 18.472656 C 25.417969 31.035156 36.945312 40.640625 52.164062 40.640625 C 69.898438 40.640625 86.746094 27.929688 90.734375 11.96875 C 92.214844 6.058594 92.804688 -0.886719 92.804688 -12.707031 Z M 92.804688 -53.347656 "/></g></g></g><g fill="#4b4132" fill-opacity="1"><g transform="translate(316.367264, 151.461889)"><g><path d="M 110.683594 0 L 110.683594 -3.101562 L 100.785156 -3.101562 L 100.785156 -53.496094 C 100.785156 -60.738281 99.601562 -67.828125 97.53125 -73.148438 C 91.472656 -88.074219 76.402344 -98.273438 59.554688 -98.273438 C 42.707031 -98.273438 27.632812 -88.074219 21.574219 -73.148438 C 19.507812 -67.828125 18.324219 -60.738281 18.324219 -53.496094 L 18.324219 -3.101562 L 8.128906 -3.101562 L 8.128906 0 L 45.8125 0 L 45.8125 -3.101562 L 35.910156 -3.101562 L 35.910156 -65.023438 C 35.910156 -83.9375 45.8125 -95.167969 59.554688 -95.167969 C 73.296875 -95.167969 83.199219 -83.9375 83.199219 -65.023438 L 83.199219 -3.101562 L 73.296875 -3.101562 L 73.296875 0 Z M 110.683594 0 "/></g></g></g><g fill="#4b4132" fill-opacity="1"><g transform="translate(435.179938, 151.461889)"><g><path d="M 73.296875 0 L 110.683594 0 L 110.683594 -3.101562 L 100.785156 -3.101562 L 100.785156 -53.789062 C 100.785156 -64.726562 98.125 -74.332031 93.691406 -79.949219 C 100.636719 -88.8125 111.71875 -95.167969 123.394531 -95.167969 C 132.113281 -95.167969 138.46875 -91.621094 142.160156 -86.300781 C 146.445312 -80.242188 148.074219 -72.855469 148.074219 -60.882812 L 148.074219 -3.101562 L 138.171875 -3.101562 L 138.171875 0 L 175.855469 0 L 175.855469 -3.101562 L 165.660156 -3.101562 L 165.660156 -54.382812 C 165.660156 -70.785156 159.894531 -82.164062 148.367188 -90.585938 C 141.421875 -95.613281 132.851562 -98.273438 124.578125 -98.273438 C 112.457031 -98.273438 101.671875 -93.542969 91.769531 -82.753906 C 89.109375 -86.300781 85.414062 -89.40625 81.574219 -91.917969 C 75.367188 -95.90625 67.238281 -98.273438 59.703125 -98.273438 C 44.039062 -98.273438 29.40625 -89.554688 22.3125 -75.070312 C 18.621094 -67.535156 18.324219 -58.667969 18.324219 -47.730469 L 18.324219 -3.101562 L 8.128906 -3.101562 L 8.128906 0 L 45.8125 0 L 45.8125 -3.101562 L 35.910156 -3.101562 L 35.910156 -65.023438 C 35.910156 -83.9375 45.8125 -95.167969 59.554688 -95.167969 C 73.296875 -95.167969 83.199219 -83.9375 83.199219 -65.023438 L 83.199219 -3.101562 L 73.296875 -3.101562 Z M 73.296875 0 "/></g></g></g><g fill="#4b4132" fill-opacity="1"><g transform="translate(619.162292, 151.461889)"><g><path d="M 92.65625 -46.253906 L 92.65625 -53.050781 C 92.65625 -70.785156 87.925781 -79.800781 78.914062 -88.074219 C 71.820312 -94.578125 61.03125 -98.273438 51.574219 -98.273438 C 27.191406 -98.273438 10.34375 -79.949219 10.34375 -54.824219 L 10.34375 -43.003906 C 10.34375 -29.113281 13.449219 -19.949219 21.132812 -11.527344 C 28.375 -3.695312 39.308594 1.476562 52.460938 1.476562 C 69.75 1.476562 83.050781 -7.683594 91.03125 -25.121094 L 88.222656 -26.453125 C 79.800781 -9.308594 68.421875 -1.625 52.902344 -1.625 C 41.378906 -1.625 34.136719 -7.09375 30.738281 -15.664062 C 28.226562 -22.019531 27.929688 -30.148438 27.929688 -41.082031 L 27.929688 -46.253906 Z M 75.21875 -49.359375 L 27.929688 -49.359375 L 27.929688 -60.882812 C 27.929688 -75.070312 30.292969 -82.3125 34.875 -87.484375 C 39.160156 -92.359375 44.628906 -95.167969 51.574219 -95.167969 C 59.109375 -95.167969 65.316406 -91.769531 69.160156 -86.449219 C 73.742188 -80.242188 75.21875 -73.59375 75.21875 -59.703125 Z M 75.21875 -49.359375 "/></g></g></g><g fill="#4b4132" fill-opacity="1"><g transform="translate(719.207268, 151.461889)"><g><path d="M 110.683594 0 L 110.683594 -3.101562 L 100.785156 -3.101562 L 100.785156 -53.496094 C 100.785156 -60.738281 99.601562 -67.828125 97.53125 -73.148438 C 91.472656 -88.074219 76.402344 -98.273438 59.554688 -98.273438 C 42.707031 -98.273438 27.632812 -88.074219 21.574219 -73.148438 C 19.507812 -67.828125 18.324219 -60.738281 18.324219 -53.496094 L 18.324219 -3.101562 L 8.128906 -3.101562 L 8.128906 0 L 45.8125 0 L 45.8125 -3.101562 L 35.910156 -3.101562 L 35.910156 -65.023438 C 35.910156 -83.9375 45.8125 -95.167969 59.554688 -95.167969 C 73.296875 -95.167969 83.199219 -83.9375 83.199219 -65.023438 L 83.199219 -3.101562 L 73.296875 -3.101562 L 73.296875 0 Z M 110.683594 0 "/></g></g></g><g fill="#4b4132" fill-opacity="1"><g transform="translate(838.019902, 151.461889)"><g><path d="M 51.722656 -12.414062 C 51.277344 -7.242188 47.878906 -3.988281 43.445312 -3.988281 C 39.457031 -3.988281 35.171875 -6.796875 35.171875 -13.890625 L 35.171875 -93.839844 L 51.871094 -93.839844 L 51.871094 -96.941406 L 35.171875 -96.941406 L 35.171875 -135.953125 L 17.585938 -135.953125 L 17.585938 -96.941406 L 7.390625 -96.941406 L 7.390625 -93.839844 L 17.585938 -93.839844 L 17.585938 -24.234375 C 17.585938 -17.882812 18.175781 -12.5625 20.097656 -8.570312 C 23.496094 -1.625 29.554688 1.476562 38.867188 1.476562 C 48.175781 1.476562 54.53125 -4.582031 54.972656 -12.414062 Z M 51.722656 -12.414062 "/></g></g></g><g clip-path="url(#850cd7d873)"><g transform="matrix(1, 0, 0, 1, 20, 199)"><g clip-path="url(#a25c9e42aa)"><g fill="#4b4132" fill-opacity="1"><g transform="translate(1.676214, 75.143759)"><g><path d="M 26.28125 -55.640625 C 26.625 -55.640625 26.96875 -55.625 27.3125 -55.59375 C 27.65625 -55.5625 27.828125 -55.546875 27.828125 -55.546875 L 27.828125 -51.734375 L 26.796875 -51.734375 C 23.910156 -51.734375 21.46875 -51.234375 19.46875 -50.234375 C 17.476562 -49.234375 15.847656 -47.992188 14.578125 -46.515625 C 13.304688 -45.046875 12.222656 -43.625 11.328125 -42.25 L 11.328125 0 L 7.21875 0 L 7.21875 -39.15625 L 6.703125 -54.609375 L 9.796875 -54.609375 L 10.71875 -46.890625 C 12.09375 -49.222656 14.066406 -51.265625 16.640625 -53.015625 C 19.210938 -54.765625 22.425781 -55.640625 26.28125 -55.640625 Z M 26.28125 -55.640625 "/></g></g></g><g fill="#4b4132" fill-opacity="1"><g transform="translate(49.182079, 75.143759)"><g><path d="M 49.984375 -25.34375 L 10 -25.34375 C 10.132812 -18.6875 11.644531 -13.28125 14.53125 -9.125 C 17.414062 -4.96875 22.019531 -2.890625 28.34375 -2.890625 C 32.601562 -2.890625 36.003906 -3.644531 38.546875 -5.15625 C 41.085938 -6.664062 42.941406 -8.550781 44.109375 -10.8125 C 45.273438 -13.082031 45.859375 -15.316406 45.859375 -17.515625 L 49.984375 -17.515625 L 49.984375 -17.109375 C 49.984375 -14.492188 49.242188 -11.773438 47.765625 -8.953125 C 46.285156 -6.140625 43.945312 -3.769531 40.75 -1.84375 C 37.5625 0.0703125 33.425781 1.03125 28.34375 1.03125 C 23.050781 1.03125 18.722656 -0.203125 15.359375 -2.671875 C 11.992188 -5.148438 9.535156 -8.46875 7.984375 -12.625 C 6.441406 -16.78125 5.671875 -21.332031 5.671875 -26.28125 L 5.671875 -28.34375 C 5.671875 -33.351562 6.441406 -37.914062 7.984375 -42.03125 C 9.535156 -46.15625 11.941406 -49.453125 15.203125 -51.921875 C 18.460938 -54.398438 22.671875 -55.640625 27.828125 -55.640625 C 33.046875 -55.640625 37.269531 -54.398438 40.5 -51.921875 C 43.726562 -49.453125 46.113281 -46.15625 47.65625 -42.03125 C 49.207031 -37.914062 49.984375 -33.351562 49.984375 -28.34375 Z M 27.828125 -51.734375 C 21.773438 -51.734375 17.320312 -49.671875 14.46875 -45.546875 C 11.625 -41.421875 10.132812 -35.992188 10 -29.265625 L 45.65625 -29.265625 C 45.507812 -35.992188 43.992188 -41.421875 41.109375 -45.546875 C 38.222656 -49.671875 33.796875 -51.734375 27.828125 -51.734375 Z M 27.828125 -51.734375 "/></g></g></g><g fill="#4b4132" fill-opacity="1"><g transform="translate(121.109767, 75.143759)"><g><path d="M 16.484375 -54.609375 L 35.03125 -54.609375 L 35.03125 -50.703125 L 16.484375 -50.703125 L 16.484375 -14.421875 C 16.484375 -9.816406 17.425781 -6.742188 19.3125 -5.203125 C 21.207031 -3.660156 24.046875 -2.890625 27.828125 -2.890625 C 29.054688 -2.890625 30.269531 -2.988281 31.46875 -3.1875 C 32.675781 -3.394531 33.519531 -3.601562 34 -3.8125 L 34 0 C 33.65625 0.132812 32.882812 0.335938 31.6875 0.609375 C 30.488281 0.890625 28.859375 1.03125 26.796875 1.03125 C 22.671875 1.03125 19.234375 -0.0976562 16.484375 -2.359375 C 13.734375 -4.628906 12.359375 -8.476562 12.359375 -13.90625 L 12.359375 -50.703125 L 3.609375 -50.703125 L 3.609375 -54.609375 L 12.359375 -54.609375 L 12.359375 -70.078125 L 16.484375 -70.078125 Z M 16.484375 -54.609375 "/></g></g></g><g fill="#4b4132" fill-opacity="1"><g transform="translate(178.817234, 75.143759)"><g><path d="M 26.28125 -55.640625 C 26.625 -55.640625 26.96875 -55.625 27.3125 -55.59375 C 27.65625 -55.5625 27.828125 -55.546875 27.828125 -55.546875 L 27.828125 -51.734375 L 26.796875 -51.734375 C 23.910156 -51.734375 21.46875 -51.234375 19.46875 -50.234375 C 17.476562 -49.234375 15.847656 -47.992188 14.578125 -46.515625 C 13.304688 -45.046875 12.222656 -43.625 11.328125 -42.25 L 11.328125 0 L 7.21875 0 L 7.21875 -39.15625 L 6.703125 -54.609375 L 9.796875 -54.609375 L 10.71875 -46.890625 C 12.09375 -49.222656 14.066406 -51.265625 16.640625 -53.015625 C 19.210938 -54.765625 22.425781 -55.640625 26.28125 -55.640625 Z M 26.28125 -55.640625 "/></g></g></g><g fill="#4b4132" fill-opacity="1"><g transform="translate(226.323099, 75.143759)"><g><path d="M 49.984375 -25.34375 L 10 -25.34375 C 10.132812 -18.6875 11.644531 -13.28125 14.53125 -9.125 C 17.414062 -4.96875 22.019531 -2.890625 28.34375 -2.890625 C 32.601562 -2.890625 36.003906 -3.644531 38.546875 -5.15625 C 41.085938 -6.664062 42.941406 -8.550781 44.109375 -10.8125 C 45.273438 -13.082031 45.859375 -15.316406 45.859375 -17.515625 L 49.984375 -17.515625 L 49.984375 -17.109375 C 49.984375 -14.492188 49.242188 -11.773438 47.765625 -8.953125 C 46.285156 -6.140625 43.945312 -3.769531 40.75 -1.84375 C 37.5625 0.0703125 33.425781 1.03125 28.34375 1.03125 C 23.050781 1.03125 18.722656 -0.203125 15.359375 -2.671875 C 11.992188 -5.148438 9.535156 -8.46875 7.984375 -12.625 C 6.441406 -16.78125 5.671875 -21.332031 5.671875 -26.28125 L 5.671875 -28.34375 C 5.671875 -33.351562 6.441406 -37.914062 7.984375 -42.03125 C 9.535156 -46.15625 11.941406 -49.453125 15.203125 -51.921875 C 18.460938 -54.398438 22.671875 -55.640625 27.828125 -55.640625 C 33.046875 -55.640625 37.269531 -54.398438 40.5 -51.921875 C 43.726562 -49.453125 46.113281 -46.15625 47.65625 -42.03125 C 49.207031 -37.914062 49.984375 -33.351562 49.984375 -28.34375 Z M 27.828125 -51.734375 C 21.773438 -51.734375 17.320312 -49.671875 14.46875 -45.546875 C 11.625 -41.421875 10.132812 -35.992188 10 -29.265625 L 45.65625 -29.265625 C 45.507812 -35.992188 43.992188 -41.421875 41.109375 -45.546875 C 38.222656 -49.671875 33.796875 -51.734375 27.828125 -51.734375 Z M 27.828125 -51.734375 "/></g></g></g><g fill="#4b4132" fill-opacity="1"><g transform="translate(299.487385, 75.143759)"><g><path d="M 41.734375 0 L 40.703125 -8.25 C 38.984375 -5.90625 36.492188 -3.769531 33.234375 -1.84375 C 29.972656 0.0703125 25.765625 1.03125 20.609375 1.03125 C 16.003906 1.03125 12.273438 -0.269531 9.421875 -2.875 C 6.578125 -5.488281 5.15625 -8.992188 5.15625 -13.390625 L 5.15625 -14.421875 C 5.15625 -18.410156 6.046875 -21.503906 7.828125 -23.703125 C 9.617188 -25.898438 11.835938 -27.515625 14.484375 -28.546875 C 17.128906 -29.578125 19.789062 -30.296875 22.46875 -30.703125 L 40.1875 -33.484375 L 40.1875 -35.546875 C 40.1875 -40.835938 39.15625 -44.859375 37.09375 -47.609375 C 35.03125 -50.359375 31.253906 -51.734375 25.765625 -51.734375 C 21.847656 -51.734375 18.84375 -51.046875 16.75 -49.671875 C 14.65625 -48.296875 13.226562 -46.457031 12.46875 -44.15625 C 11.707031 -41.851562 11.328125 -39.328125 11.328125 -36.578125 L 7.21875 -36.578125 L 7.21875 -37.515625 C 7.21875 -39.503906 7.472656 -41.546875 7.984375 -43.640625 C 8.503906 -45.734375 9.414062 -47.691406 10.71875 -49.515625 C 12.019531 -51.335938 13.890625 -52.8125 16.328125 -53.9375 C 18.765625 -55.070312 21.910156 -55.640625 25.765625 -55.640625 C 30.503906 -55.640625 34.226562 -54.78125 36.9375 -53.0625 C 39.65625 -51.351562 41.5625 -48.984375 42.65625 -45.953125 C 43.757812 -42.929688 44.3125 -39.460938 44.3125 -35.546875 L 44.3125 -15.453125 L 44.828125 0 Z M 21.125 -2.890625 C 25.175781 -2.890625 28.488281 -3.503906 31.0625 -4.734375 C 33.644531 -5.972656 35.65625 -7.398438 37.09375 -9.015625 C 38.539062 -10.628906 39.570312 -12.019531 40.1875 -13.1875 L 40.1875 -29.671875 L 22.15625 -26.6875 C 18.3125 -26 15.203125 -24.675781 12.828125 -22.71875 C 10.460938 -20.757812 9.28125 -17.992188 9.28125 -14.421875 L 9.28125 -13.390625 C 9.28125 -10.648438 10.222656 -8.210938 12.109375 -6.078125 C 13.992188 -3.953125 17 -2.890625 21.125 -2.890625 Z M 21.125 -2.890625 "/></g></g></g><g fill="#4b4132" fill-opacity="1"><g transform="translate(367.293256, 75.143759)"><g><path d="M 16.484375 -54.609375 L 35.03125 -54.609375 L 35.03125 -50.703125 L 16.484375 -50.703125 L 16.484375 -14.421875 C 16.484375 -9.816406 17.425781 -6.742188 19.3125 -5.203125 C 21.207031 -3.660156 24.046875 -2.890625 27.828125 -2.890625 C 29.054688 -2.890625 30.269531 -2.988281 31.46875 -3.1875 C 32.675781 -3.394531 33.519531 -3.601562 34 -3.8125 L 34 0 C 33.65625 0.132812 32.882812 0.335938 31.6875 0.609375 C 30.488281 0.890625 28.859375 1.03125 26.796875 1.03125 C 22.671875 1.03125 19.234375 -0.0976562 16.484375 -2.359375 C 13.734375 -4.628906 12.359375 -8.476562 12.359375 -13.90625 L 12.359375 -50.703125 L 3.609375 -50.703125 L 3.609375 -54.609375 L 12.359375 -54.609375 L 12.359375 -70.078125 L 16.484375 -70.078125 Z M 16.484375 -54.609375 "/></g></g></g><g fill="#4b4132" fill-opacity="1"><g transform="translate(425.000724, 75.143759)"><g><path d="M 26.796875 -2.890625 C 31.878906 -2.890625 35.773438 -3.914062 38.484375 -5.96875 C 41.203125 -8.03125 42.5625 -10.847656 42.5625 -14.421875 C 42.5625 -17.378906 41.957031 -19.628906 40.75 -21.171875 C 39.550781 -22.722656 37.679688 -23.84375 35.140625 -24.53125 C 32.597656 -25.21875 29.300781 -25.734375 25.25 -26.078125 C 20.4375 -26.554688 16.742188 -27.445312 14.171875 -28.75 C 11.597656 -30.050781 9.8125 -31.695312 8.8125 -33.6875 C 7.8125 -35.6875 7.3125 -37.921875 7.3125 -40.390625 L 7.3125 -40.90625 C 7.3125 -45.101562 8.957031 -48.609375 12.25 -51.421875 C 15.550781 -54.234375 20.398438 -55.640625 26.796875 -55.640625 C 31.671875 -55.640625 35.53125 -54.847656 38.375 -53.265625 C 41.226562 -51.691406 43.273438 -49.53125 44.515625 -46.78125 C 45.753906 -44.03125 46.375 -40.941406 46.375 -37.515625 L 46.375 -37.09375 L 42.25 -37.09375 C 42.25 -41.5625 41.164062 -45.117188 39 -47.765625 C 36.832031 -50.410156 32.765625 -51.734375 26.796875 -51.734375 C 22.054688 -51.734375 18.34375 -50.785156 15.65625 -48.890625 C 12.976562 -47.003906 11.640625 -44.273438 11.640625 -40.703125 C 11.640625 -38.578125 12.085938 -36.738281 12.984375 -35.1875 C 13.878906 -33.644531 15.523438 -32.410156 17.921875 -31.484375 C 20.328125 -30.554688 23.800781 -29.882812 28.34375 -29.46875 C 35.207031 -28.988281 40.015625 -27.582031 42.765625 -25.25 C 45.515625 -22.914062 46.890625 -19.375 46.890625 -14.625 L 46.890625 -14.21875 C 46.890625 -9.820312 45.132812 -6.179688 41.625 -3.296875 C 38.125 -0.410156 33.179688 1.03125 26.796875 1.03125 C 21.710938 1.03125 17.691406 0.117188 14.734375 -1.703125 C 11.785156 -3.523438 9.707031 -5.738281 8.5 -8.34375 C 7.300781 -10.957031 6.703125 -13.535156 6.703125 -16.078125 L 6.703125 -16.484375 L 10.8125 -16.484375 C 10.8125 -14.222656 11.257812 -12.0625 12.15625 -10 C 13.050781 -7.9375 14.664062 -6.234375 17 -4.890625 C 19.332031 -3.554688 22.597656 -2.890625 26.796875 -2.890625 Z M 26.796875 -2.890625 "/></g></g></g><g fill="#4b4132" fill-opacity="1"><g transform="translate(496.104083, 75.143759)"><g/></g></g><g fill="#4b4132" fill-opacity="1"><g transform="translate(534.232917, 75.143759)"><g><path d="M 10 -26.28125 C 10 -19.34375 11.441406 -13.707031 14.328125 -9.375 C 17.210938 -5.050781 21.710938 -2.890625 27.828125 -2.890625 C 31.804688 -2.890625 34.960938 -3.644531 37.296875 -5.15625 C 39.640625 -6.664062 41.304688 -8.601562 42.296875 -10.96875 C 43.296875 -13.34375 43.796875 -15.867188 43.796875 -18.546875 L 47.921875 -18.546875 L 47.921875 -17.109375 C 47.921875 -15.179688 47.554688 -13.148438 46.828125 -11.015625 C 46.109375 -8.890625 44.972656 -6.914062 43.421875 -5.09375 C 41.878906 -3.28125 39.820312 -1.804688 37.25 -0.671875 C 34.675781 0.460938 31.535156 1.03125 27.828125 1.03125 C 22.671875 1.03125 18.460938 -0.203125 15.203125 -2.671875 C 11.941406 -5.148438 9.535156 -8.46875 7.984375 -12.625 C 6.441406 -16.78125 5.671875 -21.332031 5.671875 -26.28125 L 5.671875 -28.34375 C 5.671875 -33.351562 6.441406 -37.914062 7.984375 -42.03125 C 9.535156 -46.15625 11.941406 -49.453125 15.203125 -51.921875 C 18.460938 -54.398438 22.671875 -55.640625 27.828125 -55.640625 C 31.535156 -55.640625 34.675781 -55.054688 37.25 -53.890625 C 39.820312 -52.722656 41.878906 -51.175781 43.421875 -49.25 C 44.972656 -47.332031 46.109375 -45.304688 46.828125 -43.171875 C 47.554688 -41.046875 47.921875 -38.988281 47.921875 -37 L 47.921875 -35.03125 L 43.796875 -35.03125 C 43.796875 -38.125 43.257812 -40.941406 42.1875 -43.484375 C 41.125 -46.023438 39.425781 -48.035156 37.09375 -49.515625 C 34.757812 -50.992188 31.671875 -51.734375 27.828125 -51.734375 C 21.710938 -51.734375 17.210938 -49.566406 14.328125 -45.234375 C 11.441406 -40.910156 10 -35.28125 10 -28.34375 Z M 10 -26.28125 "/></g></g></g><g fill="#4b4132" fill-opacity="1"><g transform="translate(605.336276, 75.143759)"><g><path d="M 27.828125 1.03125 C 22.671875 1.03125 18.460938 -0.203125 15.203125 -2.671875 C 11.941406 -5.148438 9.535156 -8.46875 7.984375 -12.625 C 6.441406 -16.78125 5.671875 -21.332031 5.671875 -26.28125 L 5.671875 -28.34375 C 5.671875 -33.351562 6.441406 -37.914062 7.984375 -42.03125 C 9.535156 -46.15625 11.941406 -49.453125 15.203125 -51.921875 C 18.460938 -54.398438 22.671875 -55.640625 27.828125 -55.640625 C 33.046875 -55.640625 37.269531 -54.398438 40.5 -51.921875 C 43.726562 -49.453125 46.113281 -46.15625 47.65625 -42.03125 C 49.207031 -37.914062 49.984375 -33.351562 49.984375 -28.34375 L 49.984375 -26.28125 C 49.984375 -21.332031 49.207031 -16.78125 47.65625 -12.625 C 46.113281 -8.46875 43.726562 -5.148438 40.5 -2.671875 C 37.269531 -0.203125 33.046875 1.03125 27.828125 1.03125 Z M 27.828125 -2.890625 C 33.941406 -2.890625 38.441406 -5.050781 41.328125 -9.375 C 44.210938 -13.707031 45.65625 -19.34375 45.65625 -26.28125 L 45.65625 -28.34375 C 45.65625 -35.28125 44.210938 -40.910156 41.328125 -45.234375 C 38.441406 -49.566406 33.941406 -51.734375 27.828125 -51.734375 C 21.710938 -51.734375 17.210938 -49.566406 14.328125 -45.234375 C 11.441406 -40.910156 10 -35.28125 10 -28.34375 L 10 -26.28125 C 10 -19.34375 11.441406 -13.707031 14.328125 -9.375 C 17.210938 -5.050781 21.710938 -2.890625 27.828125 -2.890625 Z M 27.828125 -2.890625 "/></g></g></g><g fill="#4b4132" fill-opacity="1"><g transform="translate(678.500526, 75.143759)"><g><path d="M 4.125 -34.109375 L 4.125 -38.03125 L 28.859375 -38.03125 L 28.859375 -34.109375 Z M 4.125 -34.109375 "/></g></g></g><g fill="#4b4132" fill-opacity="1"><g transform="translate(728.99484, 75.143759)"><g><path d="M 27.828125 1.03125 C 22.671875 1.03125 18.460938 -0.203125 15.203125 -2.671875 C 11.941406 -5.148438 9.535156 -8.46875 7.984375 -12.625 C 6.441406 -16.78125 5.671875 -21.332031 5.671875 -26.28125 L 5.671875 -28.34375 C 5.671875 -33.351562 6.441406 -37.914062 7.984375 -42.03125 C 9.535156 -46.15625 11.941406 -49.453125 15.203125 -51.921875 C 18.460938 -54.398438 22.671875 -55.640625 27.828125 -55.640625 C 33.046875 -55.640625 37.269531 -54.398438 40.5 -51.921875 C 43.726562 -49.453125 46.113281 -46.15625 47.65625 -42.03125 C 49.207031 -37.914062 49.984375 -33.351562 49.984375 -28.34375 L 49.984375 -26.28125 C 49.984375 -21.332031 49.207031 -16.78125 47.65625 -12.625 C 46.113281 -8.46875 43.726562 -5.148438 40.5 -2.671875 C 37.269531 -0.203125 33.046875 1.03125 27.828125 1.03125 Z M 27.828125 -2.890625 C 33.941406 -2.890625 38.441406 -5.050781 41.328125 -9.375 C 44.210938 -13.707031 45.65625 -19.34375 45.65625 -26.28125 L 45.65625 -28.34375 C 45.65625 -35.28125 44.210938 -40.910156 41.328125 -45.234375 C 38.441406 -49.566406 33.941406 -51.734375 27.828125 -51.734375 C 21.710938 -51.734375 17.210938 -49.566406 14.328125 -45.234375 C 11.441406 -40.910156 10 -35.28125 10 -28.34375 L 10 -26.28125 C 10 -19.34375 11.441406 -13.707031 14.328125 -9.375 C 17.210938 -5.050781 21.710938 -2.890625 27.828125 -2.890625 Z M 27.828125 -2.890625 "/></g></g></g><g fill="#4b4132" fill-opacity="1"><g transform="translate(802.15909, 75.143759)"><g><path d="M 27.3125 1.03125 C 23.257812 1.03125 19.925781 0.273438 17.3125 -1.234375 C 14.695312 -2.742188 12.703125 -4.566406 11.328125 -6.703125 L 11.328125 20.609375 L 7.21875 20.609375 L 7.21875 -39.15625 L 6.703125 -54.609375 L 9.796875 -54.609375 L 10.71875 -46.890625 C 12.09375 -49.222656 14.101562 -51.265625 16.75 -53.015625 C 19.394531 -54.765625 22.914062 -55.640625 27.3125 -55.640625 C 32.320312 -55.640625 36.375 -54.398438 39.46875 -51.921875 C 42.5625 -49.453125 44.828125 -46.15625 46.265625 -42.03125 C 47.710938 -37.914062 48.4375 -33.351562 48.4375 -28.34375 L 48.4375 -26.28125 C 48.4375 -21.332031 47.710938 -16.78125 46.265625 -12.625 C 44.828125 -8.46875 42.5625 -5.148438 39.46875 -2.671875 C 36.375 -0.203125 32.320312 1.03125 27.3125 1.03125 Z M 11.328125 -42.25 L 11.328125 -12.359375 C 12.222656 -10.992188 13.335938 -9.570312 14.671875 -8.09375 C 16.015625 -6.613281 17.679688 -5.375 19.671875 -4.375 C 21.671875 -3.382812 24.046875 -2.890625 26.796875 -2.890625 C 32.628906 -2.890625 36.972656 -5.015625 39.828125 -9.265625 C 42.679688 -13.523438 44.109375 -19.195312 44.109375 -26.28125 L 44.109375 -28.34375 C 44.109375 -35.488281 42.679688 -41.171875 39.828125 -45.390625 C 36.972656 -49.617188 32.628906 -51.734375 26.796875 -51.734375 C 24.046875 -51.734375 21.671875 -51.234375 19.671875 -50.234375 C 17.679688 -49.234375 16.015625 -47.992188 14.671875 -46.515625 C 13.335938 -45.046875 12.222656 -43.625 11.328125 -42.25 Z M 11.328125 -42.25 "/></g></g></g></g></g></g></g></g><path fill="#4b4132" d="M 689.453125 559.308594 C 689.453125 559.308594 689.527344 559.28125 689.554688 559.308594 C 689.582031 559.335938 689.582031 559.382812 689.554688 559.410156 C 689.527344 559.433594 689.480469 559.433594 689.453125 559.410156 C 689.425781 559.382812 689.425781 559.335938 689.453125 559.308594 Z M 689.453125 559.308594 " fill-opacity="1" fill-rule="nonzero"/><path fill="#4b4132" d="M 682.117188 542.523438 C 682.226562 542.414062 682.40625 542.414062 682.515625 542.523438 C 682.625 542.632812 682.625 542.8125 682.515625 542.921875 C 682.40625 543.03125 682.226562 543.03125 682.117188 542.921875 C 682.007812 542.8125 682.007812 542.632812 682.117188 542.523438 Z M 682.117188 542.523438 " fill-opacity="1" fill-rule="nonzero"/><path fill="#4b4132" d="M 679.050781 524.371094 C 679.296875 524.125 679.6875 524.125 679.933594 524.371094 C 680.179688 524.617188 680.179688 525.007812 679.933594 525.253906 C 679.6875 525.5 679.296875 525.5 679.050781 525.253906 C 678.804688 525.007812 678.804688 524.617188 679.050781 524.371094 Z M 679.050781 524.371094 " fill-opacity="1" fill-rule="nonzero"/><path fill="#4b4132" d="M 680.414062 505.996094 C 680.84375 505.566406 681.535156 505.566406 681.953125 505.996094 C 682.371094 506.421875 682.378906 507.113281 681.953125 507.53125 C 681.523438 507.949219 680.832031 507.957031 680.414062 507.53125 C 679.996094 507.105469 679.988281 506.414062 680.414062 505.996094 Z M 680.414062 505.996094 " fill-opacity="1" fill-rule="nonzero"/><path fill="#4b4132" d="M 686.144531 488.527344 C 686.789062 487.878906 687.84375 487.878906 688.5 488.527344 C 689.152344 489.171875 689.144531 490.226562 688.5 490.882812 C 687.851562 491.535156 686.796875 491.527344 686.144531 490.882812 C 685.488281 490.234375 685.5 489.179688 686.144531 488.527344 Z M 686.144531 488.527344 " fill-opacity="1" fill-rule="nonzero"/><path fill="#4b4132" d="M 695.890625 473.09375 C 696.792969 472.195312 698.246094 472.195312 699.148438 473.09375 C 700.046875 473.996094 700.046875 475.449219 699.148438 476.351562 C 698.246094 477.25 696.792969 477.25 695.890625 476.351562 C 694.992188 475.449219 694.992188 473.996094 695.890625 473.09375 Z M 695.890625 473.09375 " fill-opacity="1" fill-rule="nonzero"/><path fill="#4b4132" d="M 709.03125 460.636719 C 710.175781 459.492188 712.050781 459.492188 713.195312 460.636719 C 714.34375 461.78125 714.34375 463.65625 713.195312 464.800781 C 712.050781 465.949219 710.175781 465.949219 709.03125 464.800781 C 707.886719 463.65625 707.886719 461.78125 709.03125 460.636719 Z M 709.03125 460.636719 " fill-opacity="1" fill-rule="nonzero"/><path fill="#4b4132" d="M 724.746094 451.972656 C 726.136719 450.578125 728.390625 450.578125 729.78125 451.972656 C 731.171875 453.363281 731.171875 455.617188 729.78125 457.007812 C 728.390625 458.398438 726.136719 458.398438 724.746094 457.007812 C 723.355469 455.617188 723.355469 453.363281 724.746094 451.972656 Z M 724.746094 451.972656 " fill-opacity="1" fill-rule="nonzero"/><path fill="#4b4132" d="M 742.066406 447.652344 C 743.667969 446.050781 746.257812 446.050781 747.859375 447.652344 C 749.460938 449.253906 749.460938 451.84375 747.859375 453.445312 C 746.257812 455.042969 743.667969 455.042969 742.066406 453.445312 C 740.46875 451.84375 740.46875 449.253906 742.066406 447.652344 Z M 742.066406 447.652344 " fill-opacity="1" fill-rule="nonzero"/><path fill="#4b4132" d="M 759.898438 447.925781 C 761.664062 446.160156 764.519531 446.160156 766.28125 447.925781 C 768.046875 449.6875 768.046875 452.542969 766.28125 454.308594 C 764.519531 456.070312 761.664062 456.070312 759.898438 454.308594 C 758.136719 452.542969 758.136719 449.6875 759.898438 447.925781 Z M 759.898438 447.925781 " fill-opacity="1" fill-rule="nonzero"/><path fill="#4b4132" d="M 777.113281 452.78125 C 778.976562 450.917969 782.015625 450.917969 783.878906 452.78125 C 785.742188 454.644531 785.742188 457.683594 783.878906 459.546875 C 782.015625 461.410156 778.976562 461.410156 777.113281 459.546875 C 775.25 457.683594 775.25 454.644531 777.113281 452.78125 Z M 777.113281 452.78125 " fill-opacity="1" fill-rule="nonzero"/><path fill="#4b4132" d="M 801.011719 465.402344 C 801.011719 465.726562 800.980469 466.042969 800.914062 466.363281 C 800.851562 466.679688 800.757812 466.984375 800.636719 467.285156 C 800.511719 467.582031 800.359375 467.867188 800.179688 468.136719 C 800 468.402344 799.796875 468.652344 799.570312 468.878906 C 799.339844 469.109375 799.09375 469.3125 798.824219 469.492188 C 798.554688 469.671875 798.273438 469.824219 797.972656 469.945312 C 797.675781 470.070312 797.367188 470.164062 797.050781 470.226562 C 796.734375 470.289062 796.414062 470.320312 796.089844 470.320312 C 795.769531 470.320312 795.449219 470.289062 795.132812 470.226562 C 794.8125 470.164062 794.507812 470.070312 794.207031 469.945312 C 793.910156 469.824219 793.625 469.671875 793.359375 469.492188 C 793.089844 469.3125 792.839844 469.109375 792.613281 468.878906 C 792.382812 468.652344 792.179688 468.402344 792 468.136719 C 791.820312 467.867188 791.667969 467.582031 791.546875 467.285156 C 791.421875 466.984375 791.328125 466.679688 791.265625 466.363281 C 791.203125 466.042969 791.171875 465.726562 791.171875 465.402344 C 791.171875 465.078125 791.203125 464.757812 791.265625 464.441406 C 791.328125 464.125 791.421875 463.816406 791.546875 463.519531 C 791.667969 463.222656 791.820312 462.9375 792 462.667969 C 792.179688 462.398438 792.382812 462.152344 792.613281 461.921875 C 792.839844 461.695312 793.089844 461.492188 793.359375 461.3125 C 793.625 461.132812 793.910156 460.980469 794.207031 460.855469 C 794.507812 460.734375 794.8125 460.640625 795.132812 460.578125 C 795.449219 460.515625 795.769531 460.484375 796.089844 460.484375 C 796.414062 460.484375 796.734375 460.515625 797.050781 460.578125 C 797.367188 460.640625 797.675781 460.734375 797.972656 460.855469 C 798.273438 460.980469 798.554688 461.132812 798.824219 461.3125 C 799.09375 461.492188 799.339844 461.695312 799.570312 461.921875 C 799.796875 462.152344 800 462.398438 800.179688 462.667969 C 800.359375 462.9375 800.511719 463.222656 800.636719 463.519531 C 800.757812 463.816406 800.851562 464.125 800.914062 464.441406 C 800.980469 464.757812 801.011719 465.078125 801.011719 465.402344 Z M 801.011719 465.402344 " fill-opacity="1" fill-rule="nonzero"/><path fill="#4b4132" d="M 805.429688 474.742188 C 807.355469 472.8125 810.476562 472.8125 812.394531 474.742188 C 814.324219 476.667969 814.324219 479.789062 812.394531 481.707031 C 810.46875 483.625 807.347656 483.632812 805.429688 481.707031 C 803.5 479.777344 803.5 476.660156 805.429688 474.742188 Z M 805.429688 474.742188 " fill-opacity="1" fill-rule="nonzero"/><path fill="#4b4132" d="M 814.757812 490.4375 C 816.632812 488.5625 819.667969 488.5625 821.542969 490.4375 C 823.414062 492.308594 823.414062 495.347656 821.542969 497.21875 C 819.667969 499.09375 816.632812 499.09375 814.757812 497.21875 C 812.886719 495.347656 812.886719 492.308594 814.757812 490.4375 Z M 814.757812 490.4375 " fill-opacity="1" fill-rule="nonzero"/><path fill="#4b4132" d="M 819.988281 508.03125 C 821.761719 506.257812 824.625 506.257812 826.398438 508.03125 C 828.171875 509.804688 828.171875 512.667969 826.398438 514.441406 C 824.625 516.214844 821.761719 516.214844 819.988281 514.441406 C 818.214844 512.667969 818.214844 509.804688 819.988281 508.03125 Z M 819.988281 508.03125 " fill-opacity="1" fill-rule="nonzero"/><path fill="#4b4132" d="M 820.84375 526.445312 C 822.453125 524.835938 825.0625 524.835938 826.679688 526.445312 C 828.289062 528.054688 828.289062 530.664062 826.679688 532.273438 C 825.070312 533.882812 822.460938 533.882812 820.851562 532.273438 C 819.242188 530.664062 819.242188 528.054688 820.851562 526.4375 Z M 820.84375 526.445312 " fill-opacity="1" fill-rule="nonzero"/><path fill="#4b4132" d="M 817.269531 544.511719 C 818.667969 543.113281 820.953125 543.113281 822.351562 544.511719 C 823.753906 545.914062 823.753906 548.195312 822.351562 549.597656 C 820.953125 550.996094 818.667969 550.996094 817.269531 549.597656 C 815.867188 548.195312 815.867188 545.914062 817.269531 544.511719 Z M 817.269531 544.511719 " fill-opacity="1" fill-rule="nonzero"/><path fill="#4b4132" d="M 809.476562 561.097656 C 810.640625 559.9375 812.523438 559.9375 813.675781 561.097656 C 814.832031 562.261719 814.839844 564.144531 813.675781 565.300781 C 812.511719 566.464844 810.628906 566.464844 809.476562 565.300781 C 808.320312 564.136719 808.3125 562.253906 809.476562 561.097656 Z M 809.476562 561.097656 " fill-opacity="1" fill-rule="nonzero"/><path fill="#4b4132" d="M 797.925781 575.148438 C 798.835938 574.238281 800.308594 574.238281 801.21875 575.148438 C 802.128906 576.058594 802.128906 577.53125 801.21875 578.441406 C 800.308594 579.351562 798.835938 579.351562 797.925781 578.441406 C 797.019531 577.53125 797.019531 576.058594 797.925781 575.148438 Z M 797.925781 575.148438 " fill-opacity="1" fill-rule="nonzero"/><path fill="#4b4132" d="M 783.394531 585.804688 C 784.050781 585.152344 785.125 585.152344 785.777344 585.804688 C 786.433594 586.460938 786.433594 587.535156 785.777344 588.1875 C 785.125 588.84375 784.050781 588.84375 783.394531 588.1875 C 782.742188 587.535156 782.742188 586.460938 783.394531 585.804688 Z M 783.394531 585.804688 " fill-opacity="1" fill-rule="nonzero"/><path fill="#4b4132" d="M 766.746094 592.34375 C 767.175781 591.917969 767.875 591.917969 768.300781 592.34375 C 768.730469 592.769531 768.730469 593.472656 768.300781 593.898438 C 767.875 594.328125 767.175781 594.328125 766.746094 593.898438 C 766.320312 593.472656 766.320312 592.769531 766.746094 592.34375 Z M 766.746094 592.34375 " fill-opacity="1" fill-rule="nonzero"/><path fill="#4b4132" d="M 749.03125 594.371094 C 749.277344 594.125 749.679688 594.125 749.925781 594.371094 C 750.167969 594.617188 750.167969 595.015625 749.925781 595.261719 C 749.679688 595.507812 749.277344 595.507812 749.03125 595.261719 C 748.789062 595.015625 748.789062 594.617188 749.03125 594.371094 Z M 749.03125 594.371094 " fill-opacity="1" fill-rule="nonzero"/><path fill="#4b4132" d="M 731.363281 591.789062 C 731.472656 591.679688 731.65625 591.679688 731.765625 591.789062 C 731.875 591.898438 731.875 592.082031 731.765625 592.191406 C 731.65625 592.296875 731.472656 592.296875 731.363281 592.191406 C 731.253906 592.082031 731.253906 591.898438 731.363281 591.789062 Z M 731.363281 591.789062 " fill-opacity="1" fill-rule="nonzero"/><path fill="#4b4132" d="M 714.878906 584.742188 C 714.878906 584.742188 714.953125 584.714844 714.980469 584.742188 C 715.007812 584.769531 715.007812 584.816406 714.980469 584.84375 C 714.953125 584.871094 714.90625 584.871094 714.878906 584.84375 C 714.851562 584.816406 714.851562 584.769531 714.878906 584.742188 Z M 714.878906 584.742188 " fill-opacity="1" fill-rule="nonzero"/><path fill="#4b4132" d="M 663.019531 498.417969 C 663.066406 498.417969 663.109375 498.457031 663.109375 498.511719 C 663.109375 498.566406 663.074219 498.601562 663.019531 498.601562 C 662.964844 498.601562 662.929688 498.566406 662.929688 498.511719 C 662.929688 498.457031 662.964844 498.417969 663.019531 498.417969 Z M 663.019531 498.417969 " fill-opacity="1" fill-rule="nonzero"/><path fill="#4b4132" d="M 671.367188 477.085938 C 671.558594 477.085938 671.722656 477.242188 671.722656 477.441406 C 671.722656 477.640625 671.566406 477.796875 671.367188 477.796875 C 671.167969 477.796875 671.011719 477.640625 671.011719 477.441406 C 671.011719 477.242188 671.167969 477.085938 671.367188 477.085938 Z M 671.367188 477.085938 " fill-opacity="1" fill-rule="nonzero"/><path fill="#4b4132" d="M 684.699219 458.335938 C 685.125 458.335938 685.480469 458.683594 685.480469 459.117188 C 685.480469 459.554688 685.132812 459.902344 684.699219 459.902344 C 684.261719 459.902344 683.914062 459.554688 683.914062 459.117188 C 683.914062 458.683594 684.261719 458.335938 684.699219 458.335938 Z M 684.699219 458.335938 " fill-opacity="1" fill-rule="nonzero"/><path fill="#4b4132" d="M 702.15625 443.304688 C 702.910156 443.304688 703.519531 443.914062 703.519531 444.667969 C 703.519531 445.425781 702.910156 446.035156 702.15625 446.035156 C 701.402344 446.035156 700.792969 445.425781 700.792969 444.667969 C 700.792969 443.914062 701.402344 443.304688 702.15625 443.304688 Z M 702.15625 443.304688 " fill-opacity="1" fill-rule="nonzero"/><path fill="#4b4132" d="M 722.652344 432.921875 C 723.800781 432.921875 724.734375 433.847656 724.734375 435.003906 C 724.734375 436.15625 723.808594 437.085938 722.652344 437.085938 C 721.507812 437.085938 720.570312 436.15625 720.570312 435.003906 C 720.570312 433.847656 721.5 432.921875 722.652344 432.921875 Z M 722.652344 432.921875 " fill-opacity="1" fill-rule="nonzero"/><path fill="#4b4132" d="M 744.914062 427.902344 C 746.503906 427.902344 747.796875 429.191406 747.796875 430.785156 C 747.796875 432.375 746.503906 433.667969 744.914062 433.667969 C 743.324219 433.667969 742.03125 432.375 742.03125 430.785156 C 742.03125 429.191406 743.324219 427.902344 744.914062 427.902344 Z M 744.914062 427.902344 " fill-opacity="1" fill-rule="nonzero"/><path fill="#4b4132" d="M 767.539062 428.511719 C 769.574219 428.511719 771.21875 430.15625 771.21875 432.191406 C 771.21875 434.230469 769.574219 435.875 767.539062 435.875 C 765.5 435.875 763.855469 434.230469 763.855469 432.191406 C 763.855469 430.15625 765.5 428.511719 767.539062 428.511719 Z M 767.539062 428.511719 " fill-opacity="1" fill-rule="nonzero"/><path fill="#4b4132" d="M 789.089844 434.738281 C 791.554688 434.738281 793.542969 436.730469 793.542969 439.195312 C 793.542969 441.660156 791.554688 443.652344 789.089844 443.652344 C 786.625 443.652344 784.632812 441.660156 784.632812 439.195312 C 784.632812 436.730469 786.625 434.738281 789.089844 434.738281 Z M 789.089844 434.738281 " fill-opacity="1" fill-rule="nonzero"/><path fill="#4b4132" d="M 808.210938 446.234375 C 811.039062 446.234375 813.332031 448.523438 813.332031 451.351562 C 813.332031 454.179688 811.039062 456.472656 808.210938 456.472656 C 805.382812 456.472656 803.09375 454.179688 803.09375 451.351562 C 803.09375 448.523438 805.382812 446.234375 808.210938 446.234375 Z M 808.210938 446.234375 " fill-opacity="1" fill-rule="nonzero"/><path fill="#4b4132" d="M 823.726562 462.226562 C 826.84375 462.226562 829.363281 464.757812 829.363281 467.867188 C 829.363281 470.976562 826.835938 473.503906 823.726562 473.503906 C 820.617188 473.503906 818.085938 470.976562 818.085938 467.867188 C 818.085938 464.746094 820.617188 462.226562 823.726562 462.226562 Z M 823.726562 462.226562 " fill-opacity="1" fill-rule="nonzero"/><path fill="#4b4132" d="M 834.65625 481.742188 C 837.957031 481.742188 840.640625 484.414062 840.640625 487.726562 C 840.640625 491.035156 837.964844 493.710938 834.65625 493.710938 C 831.34375 493.710938 828.671875 491.027344 828.671875 487.726562 C 828.671875 484.425781 831.34375 481.742188 834.65625 481.742188 Z M 834.65625 481.742188 " fill-opacity="1" fill-rule="nonzero"/><path fill="#4b4132" d="M 846.429688 509.667969 C 846.429688 510.070312 846.390625 510.472656 846.3125 510.867188 C 846.234375 511.265625 846.117188 511.648438 845.960938 512.023438 C 845.808594 512.398438 845.617188 512.753906 845.394531 513.089844 C 845.167969 513.425781 844.914062 513.734375 844.628906 514.019531 C 844.34375 514.308594 844.03125 514.5625 843.695312 514.785156 C 843.359375 515.011719 843.003906 515.199219 842.628906 515.355469 C 842.257812 515.511719 841.871094 515.628906 841.476562 515.707031 C 841.078125 515.785156 840.679688 515.824219 840.273438 515.824219 C 839.871094 515.824219 839.46875 515.785156 839.074219 515.707031 C 838.675781 515.628906 838.292969 515.511719 837.917969 515.355469 C 837.546875 515.199219 837.191406 515.011719 836.855469 514.785156 C 836.519531 514.5625 836.207031 514.308594 835.921875 514.019531 C 835.636719 513.734375 835.378906 513.425781 835.15625 513.089844 C 834.933594 512.753906 834.742188 512.398438 834.585938 512.023438 C 834.433594 511.648438 834.316406 511.265625 834.238281 510.867188 C 834.160156 510.472656 834.117188 510.070312 834.117188 509.667969 C 834.117188 509.265625 834.160156 508.863281 834.238281 508.46875 C 834.316406 508.070312 834.433594 507.683594 834.585938 507.3125 C 834.742188 506.9375 834.933594 506.582031 835.15625 506.246094 C 835.378906 505.910156 835.636719 505.601562 835.921875 505.316406 C 836.207031 505.027344 836.519531 504.773438 836.855469 504.550781 C 837.191406 504.324219 837.546875 504.136719 837.917969 503.980469 C 838.292969 503.824219 838.675781 503.707031 839.074219 503.628906 C 839.46875 503.550781 839.871094 503.511719 840.273438 503.511719 C 840.679688 503.511719 841.078125 503.550781 841.476562 503.628906 C 841.871094 503.707031 842.257812 503.824219 842.628906 503.980469 C 843.003906 504.136719 843.359375 504.324219 843.695312 504.550781 C 844.03125 504.773438 844.34375 505.027344 844.628906 505.316406 C 844.914062 505.601562 845.167969 505.910156 845.394531 506.246094 C 845.617188 506.582031 845.808594 506.9375 845.960938 507.3125 C 846.117188 507.683594 846.234375 508.070312 846.3125 508.46875 C 846.390625 508.863281 846.429688 509.265625 846.429688 509.667969 Z M 846.429688 509.667969 " fill-opacity="1" fill-rule="nonzero"/><path fill="#4b4132" d="M 840.273438 526.171875 C 843.675781 526.171875 846.429688 528.925781 846.429688 532.328125 C 846.429688 535.730469 843.675781 538.484375 840.273438 538.484375 C 836.875 538.484375 834.117188 535.730469 834.117188 532.328125 C 834.117188 528.925781 836.875 526.171875 840.273438 526.171875 Z M 840.273438 526.171875 " fill-opacity="1" fill-rule="nonzero"/><path fill="#4b4132" d="M 834.644531 548.289062 C 837.957031 548.289062 840.640625 550.96875 840.640625 554.28125 C 840.640625 557.589844 837.957031 560.28125 834.644531 560.28125 C 831.335938 560.28125 828.652344 557.597656 828.652344 554.28125 C 828.652344 550.960938 831.335938 548.289062 834.644531 548.289062 Z M 834.644531 548.289062 " fill-opacity="1" fill-rule="nonzero"/><path fill="#4b4132" d="M 823.714844 568.472656 C 826.84375 568.472656 829.382812 571.011719 829.382812 574.140625 C 829.382812 577.265625 826.84375 579.804688 823.714844 579.804688 C 820.589844 579.804688 818.050781 577.265625 818.050781 574.140625 C 818.050781 571.011719 820.589844 568.472656 823.714844 568.472656 Z M 823.714844 568.472656 " fill-opacity="1" fill-rule="nonzero"/><path fill="#4b4132" d="M 808.195312 585.496094 C 811.039062 585.496094 813.351562 587.804688 813.351562 590.652344 C 813.351562 593.5 811.039062 595.808594 808.195312 595.808594 C 805.347656 595.808594 803.039062 593.5 803.039062 590.652344 C 803.039062 587.804688 805.347656 585.496094 808.195312 585.496094 Z M 808.195312 585.496094 " fill-opacity="1" fill-rule="nonzero"/><path fill="#4b4132" d="M 789.070312 598.308594 C 791.554688 598.308594 793.5625 600.320312 793.5625 602.800781 C 793.5625 605.285156 791.554688 607.292969 789.070312 607.292969 C 786.589844 607.292969 784.578125 605.285156 784.578125 602.800781 C 784.578125 600.320312 786.589844 598.308594 789.070312 598.308594 Z M 789.070312 598.308594 " fill-opacity="1" fill-rule="nonzero"/><path fill="#4b4132" d="M 767.511719 606.085938 C 769.566406 606.085938 771.230469 607.75 771.230469 609.804688 C 771.230469 611.859375 769.566406 613.523438 767.511719 613.523438 C 765.457031 613.523438 763.792969 611.859375 763.792969 609.804688 C 763.792969 607.75 765.457031 606.085938 767.511719 606.085938 Z M 767.511719 606.085938 " fill-opacity="1" fill-rule="nonzero"/><path fill="#4b4132" d="M 744.894531 608.292969 C 746.503906 608.292969 747.804688 609.59375 747.804688 611.203125 C 747.804688 612.8125 746.503906 614.113281 744.894531 614.113281 C 743.285156 614.113281 741.984375 612.8125 741.984375 611.203125 C 741.984375 609.59375 743.285156 608.292969 744.894531 608.292969 Z M 744.894531 608.292969 " fill-opacity="1" fill-rule="nonzero"/><path fill="#4b4132" d="M 722.636719 604.875 C 723.800781 604.875 724.746094 605.820312 724.746094 606.984375 C 724.746094 608.148438 723.800781 609.09375 722.636719 609.09375 C 721.472656 609.09375 720.527344 608.148438 720.527344 606.984375 C 720.527344 605.820312 721.472656 604.875 722.636719 604.875 Z M 722.636719 604.875 " fill-opacity="1" fill-rule="nonzero"/><path fill="#4b4132" d="M 702.140625 595.9375 C 702.902344 595.9375 703.511719 596.554688 703.511719 597.308594 C 703.511719 598.0625 702.894531 598.683594 702.140625 598.683594 C 701.382812 598.683594 700.765625 598.0625 700.765625 597.308594 C 700.765625 596.554688 701.382812 595.9375 702.140625 595.9375 Z M 702.140625 595.9375 " fill-opacity="1" fill-rule="nonzero"/><path fill="#4b4132" d="M 684.679688 582.070312 C 685.117188 582.070312 685.472656 582.421875 685.472656 582.859375 C 685.472656 583.296875 685.117188 583.652344 684.679688 583.652344 C 684.242188 583.652344 683.890625 583.296875 683.890625 582.859375 C 683.890625 582.421875 684.242188 582.070312 684.679688 582.070312 Z M 684.679688 582.070312 " fill-opacity="1" fill-rule="nonzero"/><path fill="#4b4132" d="M 671.359375 564.171875 C 671.558594 564.171875 671.710938 564.335938 671.710938 564.527344 C 671.710938 564.71875 671.550781 564.882812 671.359375 564.882812 C 671.167969 564.882812 671.003906 564.71875 671.003906 564.527344 C 671.003906 564.335938 671.167969 564.171875 671.359375 564.171875 Z M 671.359375 564.171875 " fill-opacity="1" fill-rule="nonzero"/><path fill="#4b4132" d="M 663.011719 543.367188 C 663.066406 543.367188 663.101562 543.402344 663.101562 543.457031 C 663.101562 543.511719 663.066406 543.550781 663.011719 543.550781 C 662.957031 543.550781 662.917969 543.511719 662.917969 543.457031 C 662.917969 543.402344 662.957031 543.367188 663.011719 543.367188 Z M 663.011719 543.367188 " fill-opacity="1" fill-rule="nonzero"/><path fill="#4b4132" d="M 693.472656 421.226562 C 693.472656 421.226562 693.519531 421.34375 693.472656 421.382812 C 693.425781 421.417969 693.355469 421.425781 693.320312 421.382812 C 693.28125 421.335938 693.273438 421.261719 693.320312 421.226562 C 693.363281 421.191406 693.4375 421.179688 693.472656 421.226562 Z M 693.472656 421.226562 " fill-opacity="1" fill-rule="nonzero"/><path fill="#4b4132" d="M 719.707031 409.761719 C 719.878906 409.933594 719.878906 410.207031 719.707031 410.378906 C 719.535156 410.550781 719.261719 410.550781 719.089844 410.378906 C 718.917969 410.207031 718.917969 409.933594 719.089844 409.761719 C 719.261719 409.585938 719.535156 409.585938 719.707031 409.761719 Z M 719.707031 409.761719 " fill-opacity="1" fill-rule="nonzero"/><path fill="#4b4132" d="M 748.058594 404.96875 C 748.441406 405.351562 748.441406 405.96875 748.058594 406.351562 C 747.679688 406.730469 747.058594 406.730469 746.679688 406.351562 C 746.296875 405.96875 746.296875 405.351562 746.679688 404.96875 C 747.058594 404.585938 747.679688 404.585938 748.058594 404.96875 Z M 748.058594 404.96875 " fill-opacity="1" fill-rule="nonzero"/><path fill="#4b4132" d="M 776.777344 407.105469 C 777.441406 407.769531 777.441406 408.851562 776.777344 409.515625 C 776.113281 410.179688 775.03125 410.179688 774.367188 409.515625 C 773.703125 408.851562 773.703125 407.769531 774.367188 407.105469 C 775.03125 406.441406 776.113281 406.441406 776.777344 407.105469 Z M 776.777344 407.105469 " fill-opacity="1" fill-rule="nonzero"/><path fill="#4b4132" d="M 804.074219 416.050781 C 805.09375 417.070312 805.09375 418.71875 804.074219 419.726562 C 803.054688 420.746094 801.410156 420.746094 800.402344 419.726562 C 799.390625 418.707031 799.382812 417.0625 800.402344 416.050781 C 801.417969 415.042969 803.066406 415.035156 804.074219 416.050781 Z M 804.074219 416.050781 " fill-opacity="1" fill-rule="nonzero"/><path fill="#4b4132" d="M 828.191406 431.292969 C 829.597656 432.703125 829.597656 434.976562 828.191406 436.386719 C 826.78125 437.792969 824.507812 437.792969 823.097656 436.386719 C 821.6875 434.976562 821.6875 432.703125 823.097656 431.292969 C 824.507812 429.882812 826.78125 429.882812 828.191406 431.292969 Z M 828.191406 431.292969 " fill-opacity="1" fill-rule="nonzero"/><path fill="#4b4132" d="M 847.640625 451.816406 C 849.441406 453.617188 849.441406 456.527344 847.640625 458.328125 C 845.839844 460.128906 842.929688 460.128906 841.128906 458.328125 C 839.328125 456.527344 839.328125 453.617188 841.128906 451.816406 C 842.929688 450.015625 845.839844 450.015625 847.640625 451.816406 Z M 847.640625 451.816406 " fill-opacity="1" fill-rule="nonzero"/><path fill="#4b4132" d="M 861.191406 476.378906 C 863.363281 478.550781 863.363281 482.078125 861.191406 484.253906 C 859.015625 486.425781 855.488281 486.425781 853.316406 484.253906 C 851.140625 482.078125 851.140625 478.550781 853.316406 476.378906 C 855.488281 474.203125 859.015625 474.203125 861.191406 476.378906 Z M 861.191406 476.378906 " fill-opacity="1" fill-rule="nonzero"/><path fill="#4b4132" d="M 867.925781 503.4375 C 870.429688 505.941406 870.429688 509.984375 867.925781 512.488281 C 865.425781 514.988281 861.378906 514.988281 858.878906 512.488281 C 856.378906 509.984375 856.378906 505.941406 858.878906 503.4375 C 861.378906 500.9375 865.425781 500.9375 867.925781 503.4375 Z M 867.925781 503.4375 " fill-opacity="1" fill-rule="nonzero"/><path fill="#4b4132" d="M 867.5 531.292969 C 870.253906 534.046875 870.253906 538.511719 867.5 541.265625 C 864.746094 544.023438 860.28125 544.023438 857.523438 541.265625 C 854.769531 538.511719 854.769531 534.046875 857.523438 531.292969 C 860.28125 528.535156 864.746094 528.535156 867.5 531.292969 Z M 867.5 531.292969 " fill-opacity="1" fill-rule="nonzero"/><path fill="#4b4132" d="M 859.917969 558.199219 C 862.835938 561.117188 862.835938 565.855469 859.917969 568.773438 C 856.996094 571.691406 852.261719 571.691406 849.339844 568.773438 C 846.421875 565.855469 846.421875 561.117188 849.339844 558.199219 C 852.261719 555.28125 856.996094 555.28125 859.917969 558.199219 Z M 859.917969 558.199219 " fill-opacity="1" fill-rule="nonzero"/><path fill="#4b4132" d="M 847.894531 587.851562 C 847.894531 588.355469 847.847656 588.855469 847.746094 589.351562 C 847.648438 589.847656 847.503906 590.328125 847.308594 590.796875 C 847.117188 591.261719 846.878906 591.707031 846.597656 592.125 C 846.316406 592.546875 846 592.933594 845.640625 593.292969 C 845.285156 593.648438 844.894531 593.96875 844.476562 594.25 C 844.054688 594.527344 843.613281 594.765625 843.144531 594.960938 C 842.679688 595.152344 842.199219 595.296875 841.703125 595.398438 C 841.207031 595.496094 840.707031 595.542969 840.203125 595.546875 C 839.695312 595.542969 839.195312 595.496094 838.703125 595.398438 C 838.207031 595.296875 837.726562 595.152344 837.257812 594.960938 C 836.792969 594.765625 836.347656 594.527344 835.929688 594.25 C 835.507812 593.96875 835.121094 593.648438 834.761719 593.292969 C 834.40625 592.933594 834.085938 592.546875 833.804688 592.125 C 833.523438 591.707031 833.289062 591.261719 833.09375 590.796875 C 832.902344 590.328125 832.753906 589.847656 832.65625 589.351562 C 832.558594 588.855469 832.507812 588.355469 832.507812 587.851562 C 832.507812 587.347656 832.558594 586.847656 832.65625 586.351562 C 832.753906 585.855469 832.902344 585.375 833.09375 584.90625 C 833.289062 584.441406 833.523438 583.996094 833.804688 583.578125 C 834.085938 583.15625 834.40625 582.769531 834.761719 582.414062 C 835.121094 582.054688 835.507812 581.734375 835.929688 581.457031 C 836.347656 581.175781 836.792969 580.9375 837.257812 580.746094 C 837.726562 580.550781 838.207031 580.40625 838.703125 580.308594 C 839.195312 580.207031 839.695312 580.160156 840.203125 580.160156 C 840.707031 580.160156 841.207031 580.207031 841.703125 580.308594 C 842.199219 580.40625 842.679688 580.550781 843.144531 580.746094 C 843.613281 580.9375 844.054688 581.175781 844.476562 581.457031 C 844.894531 581.734375 845.285156 582.054688 845.640625 582.414062 C 846 582.769531 846.316406 583.15625 846.597656 583.578125 C 846.878906 583.996094 847.117188 584.441406 847.308594 584.90625 C 847.503906 585.375 847.648438 585.855469 847.746094 586.351562 C 847.847656 586.847656 847.894531 587.347656 847.894531 587.851562 Z M 847.894531 587.851562 " fill-opacity="1" fill-rule="nonzero"/><path fill="#4b4132" d="M 825.609375 602.4375 C 828.617188 605.449219 828.617188 610.320312 825.609375 613.324219 C 822.597656 616.324219 817.722656 616.332031 814.722656 613.324219 C 811.722656 610.3125 811.714844 605.4375 814.722656 602.4375 C 817.734375 599.4375 822.605469 599.429688 825.609375 602.4375 Z M 825.609375 602.4375 " fill-opacity="1" fill-rule="nonzero"/><path fill="#4b4132" d="M 801.09375 617.015625 C 804.019531 619.941406 804.019531 624.6875 801.09375 627.617188 C 798.164062 630.546875 793.417969 630.546875 790.488281 627.617188 C 787.5625 624.6875 787.5625 619.941406 790.488281 617.015625 C 793.417969 614.085938 798.164062 614.085938 801.09375 617.015625 Z M 801.09375 617.015625 " fill-opacity="1" fill-rule="nonzero"/><path fill="#4b4132" d="M 773.585938 625.179688 C 776.347656 627.945312 776.347656 632.425781 773.585938 635.191406 C 770.820312 637.957031 766.335938 637.957031 763.574219 635.191406 C 760.808594 632.425781 760.808594 627.945312 763.574219 625.179688 C 766.335938 622.414062 770.820312 622.414062 773.585938 625.179688 Z M 773.585938 625.179688 " fill-opacity="1" fill-rule="nonzero"/><path fill="#4b4132" d="M 744.824219 626.515625 C 747.339844 629.035156 747.339844 633.117188 744.824219 635.628906 C 742.304688 638.148438 738.222656 638.148438 735.710938 635.628906 C 733.191406 633.109375 733.191406 629.027344 735.710938 626.515625 C 738.230469 623.996094 742.3125 623.996094 744.824219 626.515625 Z M 744.824219 626.515625 " fill-opacity="1" fill-rule="nonzero"/><path fill="#4b4132" d="M 716.589844 620.941406 C 718.78125 623.132812 718.78125 626.6875 716.589844 628.882812 C 714.398438 631.074219 710.839844 631.074219 708.648438 628.882812 C 706.457031 626.6875 706.457031 623.132812 708.648438 620.941406 C 710.839844 618.75 714.398438 618.75 716.589844 620.941406 Z M 716.589844 620.941406 " fill-opacity="1" fill-rule="nonzero"/><path fill="#4b4132" d="M 690.671875 608.757812 C 692.492188 610.574219 692.492188 613.511719 690.671875 615.332031 C 688.855469 617.152344 685.917969 617.152344 684.097656 615.332031 C 682.277344 613.511719 682.277344 610.574219 684.097656 608.757812 C 685.917969 606.9375 688.855469 606.9375 690.671875 608.757812 Z M 690.671875 608.757812 " fill-opacity="1" fill-rule="nonzero"/><path fill="#4b4132" d="M 668.722656 590.714844 C 670.140625 592.136719 670.140625 594.445312 668.722656 595.863281 C 667.300781 597.28125 664.992188 597.28125 663.574219 595.863281 C 662.15625 594.445312 662.15625 592.136719 663.574219 590.714844 C 664.992188 589.296875 667.300781 589.296875 668.722656 590.714844 Z M 668.722656 590.714844 " fill-opacity="1" fill-rule="nonzero"/><path fill="#4b4132" d="M 652.070312 568.011719 C 653.097656 569.039062 653.097656 570.703125 652.070312 571.730469 C 651.042969 572.757812 649.378906 572.757812 648.351562 571.730469 C 647.324219 570.703125 647.324219 569.039062 648.351562 568.011719 C 649.378906 566.984375 651.042969 566.984375 652.070312 568.011719 Z M 652.070312 568.011719 " fill-opacity="1" fill-rule="nonzero"/><path fill="#4b4132" d="M 641.851562 541.996094 C 642.523438 542.667969 642.523438 543.757812 641.851562 544.429688 C 641.175781 545.105469 640.085938 545.105469 639.414062 544.429688 C 638.742188 543.757812 638.742188 542.667969 639.414062 541.996094 C 640.085938 541.320312 641.175781 541.320312 641.851562 541.996094 Z M 641.851562 541.996094 " fill-opacity="1" fill-rule="nonzero"/><path fill="#4b4132" d="M 638.6875 514.316406 C 639.066406 514.695312 639.066406 515.324219 638.6875 515.714844 C 638.304688 516.105469 637.675781 516.097656 637.292969 515.714844 C 636.914062 515.332031 636.914062 514.707031 637.292969 514.324219 C 637.675781 513.941406 638.304688 513.941406 638.6875 514.324219 Z M 638.6875 514.316406 " fill-opacity="1" fill-rule="nonzero"/><path fill="#4b4132" d="M 642.722656 486.714844 C 642.894531 486.890625 642.894531 487.171875 642.722656 487.34375 C 642.550781 487.515625 642.269531 487.515625 642.097656 487.34375 C 641.921875 487.171875 641.921875 486.890625 642.097656 486.714844 C 642.269531 486.542969 642.550781 486.542969 642.722656 486.714844 Z M 642.722656 486.714844 " fill-opacity="1" fill-rule="nonzero"/><path fill="#4b4132" d="M 653.734375 460.957031 C 653.734375 460.957031 653.78125 461.074219 653.734375 461.117188 C 653.691406 461.164062 653.617188 461.164062 653.570312 461.117188 C 653.527344 461.074219 653.527344 461 653.570312 460.957031 C 653.617188 460.910156 653.691406 460.910156 653.734375 460.957031 Z M 653.734375 460.957031 " fill-opacity="1" fill-rule="nonzero"/><path fill="#4b4132" d="M 788.617188 379.925781 C 788.617188 379.996094 788.550781 380.0625 788.480469 380.0625 C 788.40625 380.0625 788.34375 379.996094 788.34375 379.925781 C 788.34375 379.851562 788.40625 379.789062 788.480469 379.789062 C 788.550781 379.789062 788.617188 379.851562 788.617188 379.925781 Z M 788.617188 379.925781 " fill-opacity="1" fill-rule="nonzero"/><path fill="#4b4132" d="M 821.941406 392.964844 C 821.941406 393.265625 821.699219 393.511719 821.398438 393.511719 C 821.097656 393.511719 820.851562 393.265625 820.851562 392.964844 C 820.851562 392.664062 821.097656 392.417969 821.398438 392.417969 C 821.699219 392.417969 821.941406 392.664062 821.941406 392.964844 Z M 821.941406 392.964844 " fill-opacity="1" fill-rule="nonzero"/><path fill="#4b4132" d="M 851.242188 413.796875 C 851.242188 414.46875 850.695312 415.015625 850.023438 415.015625 C 849.351562 415.015625 848.804688 414.46875 848.804688 413.796875 C 848.804688 413.125 849.351562 412.578125 850.023438 412.578125 C 850.695312 412.578125 851.242188 413.125 851.242188 413.796875 Z M 851.242188 413.796875 " fill-opacity="1" fill-rule="nonzero"/><path fill="#4b4132" d="M 874.730469 441.078125 C 874.730469 442.25 873.773438 443.207031 872.601562 443.207031 C 871.429688 443.207031 870.472656 442.25 870.472656 441.078125 C 870.472656 439.90625 871.429688 438.949219 872.601562 438.949219 C 873.773438 438.949219 874.730469 439.90625 874.730469 441.078125 Z M 874.730469 441.078125 " fill-opacity="1" fill-rule="nonzero"/><path fill="#4b4132" d="M 890.953125 473.105469 C 890.953125 474.894531 889.496094 476.351562 887.707031 476.351562 C 885.914062 476.351562 884.460938 474.894531 884.460938 473.105469 C 884.460938 471.3125 885.914062 469.859375 887.707031 469.859375 C 889.496094 469.859375 890.953125 471.3125 890.953125 473.105469 Z M 890.953125 473.105469 " fill-opacity="1" fill-rule="nonzero"/><path fill="#4b4132" d="M 898.800781 507.886719 C 898.800781 510.367188 896.78125 512.386719 894.296875 512.386719 C 891.816406 512.386719 889.796875 510.367188 889.796875 507.886719 C 889.796875 505.402344 891.816406 503.382812 894.296875 503.382812 C 896.78125 503.382812 898.800781 505.402344 898.800781 507.886719 Z M 898.800781 507.886719 " fill-opacity="1" fill-rule="nonzero"/><path fill="#4b4132" d="M 897.84375 543.230469 C 897.84375 546.40625 895.269531 548.988281 892.089844 548.988281 C 888.914062 548.988281 886.332031 546.414062 886.332031 543.230469 C 886.332031 540.046875 888.90625 537.476562 892.089844 537.476562 C 895.269531 537.476562 897.84375 540.046875 897.84375 543.230469 Z M 897.84375 543.230469 " fill-opacity="1" fill-rule="nonzero"/><path fill="#4b4132" d="M 888.113281 576.902344 C 888.113281 580.75 884.996094 583.871094 881.148438 583.871094 C 877.304688 583.871094 874.183594 580.75 874.183594 576.902344 C 874.183594 573.058594 877.304688 569.9375 881.148438 569.9375 C 884.996094 569.9375 888.113281 573.058594 888.113281 576.902344 Z M 888.113281 576.902344 " fill-opacity="1" fill-rule="nonzero"/><path fill="#4b4132" d="M 870.15625 606.785156 C 870.15625 611.203125 866.574219 614.785156 862.152344 614.785156 C 857.734375 614.785156 854.152344 611.203125 854.152344 606.785156 C 854.152344 602.363281 857.734375 598.78125 862.152344 598.78125 C 866.574219 598.78125 870.15625 602.363281 870.15625 606.785156 Z M 870.15625 606.785156 " fill-opacity="1" fill-rule="nonzero"/><path fill="#4b4132" d="M 845.15625 631.027344 C 845.15625 635.890625 841.210938 639.839844 836.347656 639.839844 C 831.480469 639.839844 827.535156 635.890625 827.535156 631.027344 C 827.535156 626.160156 831.480469 622.214844 836.347656 622.214844 C 841.210938 622.214844 845.15625 626.160156 845.15625 631.027344 Z M 845.15625 631.027344 " fill-opacity="1" fill-rule="nonzero"/><path fill="#4b4132" d="M 814.667969 648.105469 C 814.667969 653.269531 810.484375 657.453125 805.320312 657.453125 C 800.15625 657.453125 795.972656 653.269531 795.972656 648.105469 C 795.972656 642.9375 800.15625 638.757812 805.320312 638.757812 C 810.484375 638.757812 814.667969 642.9375 814.667969 648.105469 Z M 814.667969 648.105469 " fill-opacity="1" fill-rule="nonzero"/><path fill="#4b4132" d="M 780.640625 656.878906 C 780.640625 657.511719 780.578125 658.136719 780.457031 658.753906 C 780.332031 659.375 780.152344 659.972656 779.910156 660.558594 C 779.667969 661.140625 779.371094 661.695312 779.019531 662.21875 C 778.671875 662.742188 778.273438 663.230469 777.824219 663.675781 C 777.378906 664.121094 776.894531 664.519531 776.371094 664.871094 C 775.84375 665.222656 775.289062 665.515625 774.707031 665.757812 C 774.125 666 773.523438 666.183594 772.90625 666.304688 C 772.285156 666.429688 771.660156 666.492188 771.03125 666.492188 C 770.398438 666.492188 769.773438 666.429688 769.15625 666.304688 C 768.535156 666.183594 767.933594 666 767.351562 665.757812 C 766.769531 665.515625 766.214844 665.222656 765.691406 664.871094 C 765.164062 664.519531 764.679688 664.121094 764.234375 663.675781 C 763.785156 663.230469 763.386719 662.742188 763.039062 662.21875 C 762.6875 661.695312 762.390625 661.140625 762.148438 660.558594 C 761.90625 659.972656 761.726562 659.375 761.601562 658.753906 C 761.480469 658.136719 761.417969 657.511719 761.417969 656.878906 C 761.417969 656.246094 761.480469 655.621094 761.601562 655.003906 C 761.726562 654.386719 761.90625 653.785156 762.148438 653.199219 C 762.390625 652.617188 762.6875 652.0625 763.039062 651.539062 C 763.386719 651.015625 763.785156 650.527344 764.234375 650.082031 C 764.679688 649.636719 765.164062 649.238281 765.691406 648.886719 C 766.214844 648.535156 766.769531 648.242188 767.351562 648 C 767.933594 647.757812 768.535156 647.574219 769.15625 647.453125 C 769.773438 647.328125 770.398438 647.265625 771.03125 647.265625 C 771.660156 647.265625 772.285156 647.328125 772.90625 647.453125 C 773.523438 647.574219 774.125 647.757812 774.707031 648 C 775.289062 648.242188 775.84375 648.535156 776.371094 648.886719 C 776.894531 649.238281 777.378906 649.636719 777.824219 650.082031 C 778.273438 650.527344 778.671875 651.015625 779.019531 651.539062 C 779.371094 652.0625 779.667969 652.617188 779.910156 653.199219 C 780.152344 653.785156 780.332031 654.386719 780.457031 655.003906 C 780.578125 655.621094 780.640625 656.246094 780.640625 656.878906 Z M 780.640625 656.878906 " fill-opacity="1" fill-rule="nonzero"/><path fill="#4b4132" d="M 745.242188 656.878906 C 745.242188 662.191406 740.929688 666.5 735.621094 666.5 C 730.308594 666.5 726 662.191406 726 656.878906 C 726 651.570312 730.308594 647.257812 735.621094 647.257812 C 740.929688 647.257812 745.242188 651.570312 745.242188 656.878906 Z M 745.242188 656.878906 " fill-opacity="1" fill-rule="nonzero"/><path fill="#4b4132" d="M 710.6875 648.09375 C 710.6875 653.269531 706.496094 657.460938 701.320312 657.460938 C 696.144531 657.460938 691.953125 653.269531 691.953125 648.09375 C 691.953125 642.921875 696.144531 638.730469 701.320312 638.730469 C 706.496094 638.730469 710.6875 642.921875 710.6875 648.09375 Z M 710.6875 648.09375 " fill-opacity="1" fill-rule="nonzero"/><path fill="#4b4132" d="M 679.160156 631.007812 C 679.160156 635.902344 675.195312 639.855469 670.3125 639.855469 C 665.429688 639.855469 661.464844 635.890625 661.464844 631.007812 C 661.464844 626.117188 665.429688 622.160156 670.3125 622.160156 C 675.195312 622.160156 679.160156 626.125 679.160156 631.007812 Z M 679.160156 631.007812 " fill-opacity="1" fill-rule="nonzero"/><path fill="#4b4132" d="M 652.554688 606.757812 C 652.554688 611.203125 648.941406 614.8125 644.496094 614.8125 C 640.050781 614.8125 636.441406 611.203125 636.441406 606.757812 C 636.441406 602.308594 640.050781 598.699219 644.496094 598.699219 C 648.941406 598.699219 652.554688 602.308594 652.554688 606.757812 Z M 652.554688 606.757812 " fill-opacity="1" fill-rule="nonzero"/><path fill="#4b4132" d="M 632.53125 576.875 C 632.53125 580.75 629.382812 583.894531 625.511719 583.894531 C 621.636719 583.894531 618.488281 580.75 618.488281 576.875 C 618.488281 573.003906 621.636719 569.855469 625.511719 569.855469 C 629.382812 569.855469 632.53125 573.003906 632.53125 576.875 Z M 632.53125 576.875 " fill-opacity="1" fill-rule="nonzero"/><path fill="#4b4132" d="M 620.390625 543.195312 C 620.390625 546.40625 617.789062 549.003906 614.578125 549.003906 C 611.371094 549.003906 608.769531 546.40625 608.769531 543.195312 C 608.769531 539.984375 611.371094 537.382812 614.578125 537.382812 C 617.789062 537.382812 620.390625 539.984375 620.390625 543.195312 Z M 620.390625 543.195312 " fill-opacity="1" fill-rule="nonzero"/><path fill="#4b4132" d="M 616.933594 507.847656 C 616.933594 510.359375 614.898438 512.394531 612.386719 512.394531 C 609.878906 512.394531 607.839844 510.359375 607.839844 507.847656 C 607.839844 505.339844 609.878906 503.300781 612.386719 503.300781 C 614.898438 503.300781 616.933594 505.339844 616.933594 507.847656 Z M 616.933594 507.847656 " fill-opacity="1" fill-rule="nonzero"/><path fill="#4b4132" d="M 622.28125 473.066406 C 622.28125 474.886719 620.808594 476.359375 618.988281 476.359375 C 617.171875 476.359375 615.699219 474.886719 615.699219 473.066406 C 615.699219 471.25 617.171875 469.777344 618.988281 469.777344 C 620.808594 469.777344 622.28125 471.25 622.28125 473.066406 Z M 622.28125 473.066406 " fill-opacity="1" fill-rule="nonzero"/><path fill="#4b4132" d="M 636.238281 441.039062 C 636.238281 442.230469 635.277344 443.195312 634.085938 443.195312 C 632.894531 443.195312 631.929688 442.230469 631.929688 441.039062 C 631.929688 439.851562 632.894531 438.886719 634.085938 438.886719 C 635.277344 438.886719 636.238281 439.851562 636.238281 441.039062 Z M 636.238281 441.039062 " fill-opacity="1" fill-rule="nonzero"/><path fill="#4b4132" d="M 657.917969 413.769531 C 657.917969 414.453125 657.363281 415.007812 656.679688 415.007812 C 656 415.007812 655.445312 414.453125 655.445312 413.769531 C 655.445312 413.089844 656 412.535156 656.679688 412.535156 C 657.363281 412.535156 657.917969 413.089844 657.917969 413.769531 Z M 657.917969 413.769531 " fill-opacity="1" fill-rule="nonzero"/><path fill="#4b4132" d="M 685.871094 392.945312 C 685.871094 393.253906 685.625 393.5 685.316406 393.5 C 685.007812 393.5 684.761719 393.253906 684.761719 392.945312 C 684.761719 392.636719 685.007812 392.390625 685.316406 392.390625 C 685.625 392.390625 685.871094 392.636719 685.871094 392.945312 Z M 685.871094 392.945312 " fill-opacity="1" fill-rule="nonzero"/><path fill="#4b4132" d="M 718.378906 379.914062 C 718.378906 379.996094 718.316406 380.0625 718.234375 380.0625 C 718.152344 380.0625 718.089844 379.996094 718.089844 379.914062 C 718.089844 379.835938 718.152344 379.769531 718.234375 379.769531 C 718.316406 379.769531 718.378906 379.835938 718.378906 379.914062 Z M 718.378906 379.914062 " fill-opacity="1" fill-rule="nonzero"/><path fill="#4b4132" d="M 909.21875 427.5 C 909.148438 427.574219 909.039062 427.574219 908.976562 427.5 C 908.910156 427.429688 908.910156 427.320312 908.976562 427.253906 C 909.039062 427.191406 909.15625 427.183594 909.21875 427.253906 C 909.285156 427.328125 909.292969 427.4375 909.21875 427.5 Z M 909.21875 427.5 " fill-opacity="1" fill-rule="nonzero"/><path fill="#4b4132" d="M 927.152344 468.492188 C 926.886719 468.757812 926.453125 468.757812 926.179688 468.492188 C 925.90625 468.230469 925.914062 467.792969 926.179688 467.519531 C 926.441406 467.246094 926.878906 467.257812 927.152344 467.519531 C 927.425781 467.785156 927.414062 468.222656 927.152344 468.492188 Z M 927.152344 468.492188 " fill-opacity="1" fill-rule="nonzero"/><path fill="#4b4132" d="M 934.636719 512.804688 C 934.042969 513.394531 933.082031 513.394531 932.480469 512.804688 C 931.878906 512.214844 931.890625 511.25 932.480469 510.648438 C 933.070312 510.050781 934.035156 510.058594 934.636719 510.648438 C 935.234375 511.242188 935.226562 512.203125 934.636719 512.804688 Z M 934.636719 512.804688 " fill-opacity="1" fill-rule="nonzero"/><path fill="#4b4132" d="M 931.289062 557.671875 C 930.253906 558.707031 928.570312 558.707031 927.535156 557.671875 C 926.496094 556.632812 926.496094 554.953125 927.535156 553.914062 C 928.570312 552.878906 930.253906 552.878906 931.289062 553.914062 C 932.328125 554.953125 932.328125 556.632812 931.289062 557.671875 Z M 931.289062 557.671875 " fill-opacity="1" fill-rule="nonzero"/><path fill="#4b4132" d="M 917.3125 600.320312 C 915.730469 601.902344 913.15625 601.902344 911.566406 600.320312 C 909.976562 598.738281 909.976562 596.164062 911.566406 594.570312 C 913.15625 592.980469 915.722656 592.988281 917.3125 594.570312 C 918.894531 596.152344 918.894531 598.726562 917.3125 600.320312 Z M 917.3125 600.320312 " fill-opacity="1" fill-rule="nonzero"/><path fill="#4b4132" d="M 893.507812 638 C 891.304688 640.203125 887.75 640.203125 885.550781 638 C 883.351562 635.800781 883.351562 632.246094 885.550781 630.042969 C 887.75 627.84375 891.304688 627.84375 893.507812 630.042969 C 895.707031 632.246094 895.707031 635.800781 893.507812 638 Z M 893.507812 638 " fill-opacity="1" fill-rule="nonzero"/><path fill="#4b4132" d="M 861.425781 668.390625 C 858.617188 671.199219 854.070312 671.199219 851.257812 668.390625 C 848.449219 665.582031 848.449219 661.035156 851.257812 658.226562 C 854.070312 655.414062 858.617188 655.414062 861.425781 658.226562 C 864.234375 661.035156 864.234375 665.582031 861.425781 668.390625 Z M 861.425781 668.390625 " fill-opacity="1" fill-rule="nonzero"/><path fill="#4b4132" d="M 823.0625 689.558594 C 819.660156 692.960938 814.148438 692.960938 810.75 689.558594 C 807.347656 686.160156 807.347656 680.648438 810.75 677.246094 C 814.148438 673.847656 819.660156 673.847656 823.0625 677.246094 C 826.460938 680.648438 826.460938 686.160156 823.0625 689.558594 Z M 823.0625 689.558594 " fill-opacity="1" fill-rule="nonzero"/><path fill="#4b4132" d="M 780.769531 700.097656 C 776.867188 704 770.53125 704 766.628906 700.097656 C 762.726562 696.199219 762.726562 689.859375 766.628906 685.960938 C 770.53125 682.058594 776.867188 682.058594 780.769531 685.960938 C 784.667969 689.859375 784.667969 696.199219 780.769531 700.097656 Z M 780.769531 700.097656 " fill-opacity="1" fill-rule="nonzero"/><path fill="#4b4132" d="M 737.25 699.425781 C 732.945312 703.726562 725.972656 703.726562 721.671875 699.425781 C 717.371094 695.125 717.371094 688.152344 721.671875 683.851562 C 725.972656 679.546875 732.945312 679.546875 737.25 683.851562 C 741.550781 688.152344 741.550781 695.125 737.25 699.425781 Z M 737.25 699.425781 " fill-opacity="1" fill-rule="nonzero"/><path fill="#4b4132" d="M 695.210938 687.578125 C 690.644531 692.144531 683.253906 692.144531 678.6875 687.578125 C 674.121094 683.011719 674.121094 675.621094 678.6875 671.054688 C 683.253906 666.492188 690.644531 666.492188 695.210938 671.054688 C 699.773438 675.621094 699.773438 683.011719 695.210938 687.578125 Z M 695.210938 687.578125 " fill-opacity="1" fill-rule="nonzero"/><path fill="#4b4132" d="M 660.890625 656.761719 C 660.890625 657.550781 660.816406 658.332031 660.660156 659.105469 C 660.507812 659.878906 660.277344 660.628906 659.976562 661.359375 C 659.675781 662.085938 659.304688 662.777344 658.867188 663.433594 C 658.429688 664.089844 657.929688 664.695312 657.375 665.253906 C 656.816406 665.8125 656.210938 666.308594 655.554688 666.75 C 654.898438 667.1875 654.207031 667.558594 653.476562 667.859375 C 652.746094 668.160156 651.996094 668.386719 651.222656 668.542969 C 650.449219 668.695312 649.667969 668.773438 648.878906 668.773438 C 648.089844 668.773438 647.308594 668.695312 646.535156 668.542969 C 645.761719 668.386719 645.011719 668.160156 644.28125 667.859375 C 643.554688 667.558594 642.863281 667.1875 642.207031 666.75 C 641.550781 666.308594 640.941406 665.8125 640.386719 665.253906 C 639.828125 664.695312 639.328125 664.089844 638.890625 663.433594 C 638.453125 662.777344 638.082031 662.085938 637.78125 661.359375 C 637.480469 660.628906 637.253906 659.878906 637.097656 659.105469 C 636.945312 658.332031 636.867188 657.550781 636.867188 656.761719 C 636.867188 655.972656 636.945312 655.191406 637.097656 654.417969 C 637.253906 653.644531 637.480469 652.894531 637.78125 652.164062 C 638.082031 651.433594 638.453125 650.742188 638.890625 650.085938 C 639.328125 649.429688 639.828125 648.824219 640.386719 648.265625 C 640.941406 647.710938 641.550781 647.210938 642.207031 646.773438 C 642.863281 646.335938 643.554688 645.964844 644.28125 645.664062 C 645.011719 645.359375 645.761719 645.132812 646.535156 644.980469 C 647.308594 644.824219 648.089844 644.75 648.878906 644.75 C 649.667969 644.75 650.449219 644.824219 651.222656 644.980469 C 651.996094 645.132812 652.746094 645.359375 653.476562 645.664062 C 654.207031 645.964844 654.898438 646.335938 655.554688 646.773438 C 656.210938 647.210938 656.816406 647.710938 657.375 648.265625 C 657.929688 648.824219 658.429688 649.429688 658.867188 650.085938 C 659.304688 650.742188 659.675781 651.433594 659.976562 652.164062 C 660.277344 652.894531 660.507812 653.644531 660.660156 654.417969 C 660.816406 655.191406 660.890625 655.972656 660.890625 656.761719 Z M 660.890625 656.761719 " fill-opacity="1" fill-rule="nonzero"/><path fill="#4b4132" d="M 626.082031 633.964844 C 621.382812 638.664062 613.769531 638.664062 609.070312 633.964844 C 604.367188 629.261719 604.367188 621.652344 609.070312 616.949219 C 613.769531 612.25 621.382812 612.25 626.082031 616.949219 C 630.785156 621.652344 630.785156 629.261719 626.082031 633.964844 Z M 626.082031 633.964844 " fill-opacity="1" fill-rule="nonzero"/><path fill="#4b4132" d="M 603.3125 595.664062 C 598.738281 600.238281 591.320312 600.238281 586.746094 595.664062 C 582.171875 591.089844 582.171875 583.667969 586.746094 579.09375 C 591.320312 574.519531 598.738281 574.519531 603.3125 579.09375 C 607.886719 583.667969 607.886719 591.089844 603.3125 595.664062 Z M 603.3125 595.664062 " fill-opacity="1" fill-rule="nonzero"/><path fill="#4b4132" d="M 590.546875 552.6875 C 586.226562 557.007812 579.214844 557.007812 574.898438 552.6875 C 570.578125 548.367188 570.578125 541.359375 574.898438 537.039062 C 579.214844 532.71875 586.226562 532.71875 590.546875 537.039062 C 594.867188 541.359375 594.867188 548.367188 590.546875 552.6875 Z M 590.546875 552.6875 " fill-opacity="1" fill-rule="nonzero"/><path fill="#4b4132" d="M 588.464844 507.738281 C 584.535156 511.667969 578.152344 511.667969 574.222656 507.738281 C 570.296875 503.8125 570.296875 497.429688 574.222656 493.5 C 578.152344 489.570312 584.535156 489.570312 588.464844 493.5 C 592.390625 497.429688 592.390625 503.8125 588.464844 507.738281 Z M 588.464844 507.738281 " fill-opacity="1" fill-rule="nonzero"/><path fill="#4b4132" d="M 597.175781 463.628906 C 593.746094 467.058594 588.191406 467.058594 584.761719 463.628906 C 581.335938 460.199219 581.335938 454.644531 584.761719 451.214844 C 588.191406 447.789062 593.746094 447.789062 597.175781 451.214844 C 600.601562 454.644531 600.601562 460.199219 597.175781 463.628906 Z M 597.175781 463.628906 " fill-opacity="1" fill-rule="nonzero"/><path fill="#4b4132" d="M 616.214844 423.128906 C 613.378906 425.964844 608.789062 425.964844 605.949219 423.128906 C 603.113281 420.289062 603.113281 415.699219 605.949219 412.859375 C 608.789062 410.023438 613.378906 410.023438 616.214844 412.859375 C 619.054688 415.699219 619.054688 420.289062 616.214844 423.128906 Z M 616.214844 423.128906 " fill-opacity="1" fill-rule="nonzero"/><path fill="#4b4132" d="M 644.398438 388.835938 C 642.179688 391.054688 638.578125 391.054688 636.359375 388.835938 C 634.140625 386.617188 634.140625 383.015625 636.359375 380.796875 C 638.578125 378.578125 642.179688 378.578125 644.398438 380.796875 C 646.617188 383.015625 646.617188 386.617188 644.398438 388.835938 Z M 644.398438 388.835938 " fill-opacity="1" fill-rule="nonzero"/><path fill="#4b4132" d="M 679.878906 362.8125 C 678.269531 364.421875 675.667969 364.421875 674.058594 362.8125 C 672.449219 361.203125 672.449219 358.601562 674.058594 356.992188 C 675.667969 355.382812 678.269531 355.382812 679.878906 356.992188 C 681.488281 358.601562 681.488281 361.203125 679.878906 362.8125 Z M 679.878906 362.8125 " fill-opacity="1" fill-rule="nonzero"/><path fill="#4b4132" d="M 720.527344 346.851562 C 719.472656 347.90625 717.769531 347.90625 716.722656 346.851562 C 715.679688 345.796875 715.667969 344.097656 716.722656 343.050781 C 717.78125 341.996094 719.480469 342.007812 720.527344 343.050781 C 721.570312 344.097656 721.570312 345.808594 720.527344 346.851562 Z M 720.527344 346.851562 " fill-opacity="1" fill-rule="nonzero"/><path fill="#4b4132" d="M 763.78125 341.90625 C 763.183594 342.507812 762.199219 342.507812 761.601562 341.90625 C 761 341.304688 761 340.324219 761.601562 339.722656 C 762.199219 339.125 763.183594 339.125 763.78125 339.722656 C 764.382812 340.324219 764.382812 341.304688 763.78125 341.90625 Z M 763.78125 341.90625 " fill-opacity="1" fill-rule="nonzero"/><path fill="#4b4132" d="M 806.902344 348.207031 C 806.628906 348.480469 806.191406 348.480469 805.921875 348.207031 C 805.648438 347.933594 805.648438 347.5 805.921875 347.226562 C 806.191406 346.953125 806.628906 346.953125 806.902344 347.226562 C 807.175781 347.5 807.175781 347.933594 806.902344 348.207031 Z M 806.902344 348.207031 " fill-opacity="1" fill-rule="nonzero"/><path fill="#4b4132" d="M 847.148438 365.421875 C 847.078125 365.492188 846.96875 365.492188 846.894531 365.421875 C 846.820312 365.347656 846.820312 365.238281 846.894531 365.167969 C 846.96875 365.09375 847.078125 365.09375 847.148438 365.167969 C 847.222656 365.238281 847.222656 365.347656 847.148438 365.421875 Z M 847.148438 365.421875 " fill-opacity="1" fill-rule="nonzero"/><path fill="#4b4132" d="M 973.765625 576.15625 C 973.644531 576.15625 973.546875 576.058594 973.546875 575.941406 C 973.546875 575.820312 973.644531 575.722656 973.765625 575.722656 C 973.882812 575.722656 973.984375 575.820312 973.984375 575.941406 C 973.984375 576.058594 973.882812 576.15625 973.765625 576.15625 Z M 973.765625 576.15625 " fill-opacity="1" fill-rule="nonzero"/><path fill="#4b4132" d="M 953.386719 628.234375 C 952.914062 628.234375 952.53125 627.851562 952.53125 627.378906 C 952.53125 626.90625 952.914062 626.527344 953.386719 626.527344 C 953.859375 626.527344 954.242188 626.90625 954.242188 627.378906 C 954.242188 627.851562 953.859375 628.234375 953.386719 628.234375 Z M 953.386719 628.234375 " fill-opacity="1" fill-rule="nonzero"/><path fill="#4b4132" d="M 920.832031 674.019531 C 919.777344 674.019531 918.933594 673.164062 918.933594 672.121094 C 918.933594 671.074219 919.785156 670.21875 920.832031 670.21875 C 921.878906 670.21875 922.734375 671.074219 922.734375 672.121094 C 922.734375 673.164062 921.878906 674.019531 920.832031 674.019531 Z M 920.832031 674.019531 " fill-opacity="1" fill-rule="nonzero"/><path fill="#4b4132" d="M 878.210938 710.71875 C 876.375 710.71875 874.894531 709.230469 874.894531 707.402344 C 874.894531 705.574219 876.382812 704.082031 878.210938 704.082031 C 880.039062 704.082031 881.53125 705.574219 881.53125 707.402344 C 881.53125 709.230469 880.039062 710.71875 878.210938 710.71875 Z M 878.210938 710.71875 " fill-opacity="1" fill-rule="nonzero"/><path fill="#4b4132" d="M 828.171875 736.0625 C 825.371094 736.0625 823.089844 733.789062 823.089844 730.988281 C 823.089844 728.1875 825.363281 725.90625 828.171875 725.90625 C 830.980469 725.90625 833.253906 728.179688 833.253906 730.988281 C 833.253906 733.800781 830.980469 736.0625 828.171875 736.0625 Z M 828.171875 736.0625 " fill-opacity="1" fill-rule="nonzero"/><g clip-path="url(#3a21ce17e8)"><path fill="#4b4132" d="M 773.820312 748.320312 C 769.9375 748.320312 766.792969 745.175781 766.792969 741.292969 C 766.792969 737.410156 769.9375 734.261719 773.820312 734.261719 C 777.703125 734.261719 780.851562 737.410156 780.851562 741.292969 C 780.851562 745.175781 777.703125 748.320312 773.820312 748.320312 Z M 773.820312 748.320312 " fill-opacity="1" fill-rule="nonzero"/></g><path fill="#4b4132" d="M 718.597656 746.839844 C 713.632812 746.839844 709.613281 742.8125 709.613281 737.855469 C 709.613281 732.898438 713.640625 728.871094 718.597656 728.871094 C 723.554688 728.871094 727.582031 732.890625 727.582031 737.855469 C 727.582031 742.820312 723.5625 746.839844 718.597656 746.839844 Z M 718.597656 746.839844 " fill-opacity="1" fill-rule="nonzero"/><path fill="#4b4132" d="M 665.976562 731.636719 C 659.964844 731.636719 655.097656 726.761719 655.097656 720.757812 C 655.097656 714.757812 659.972656 709.882812 665.976562 709.882812 C 671.976562 709.882812 676.851562 714.757812 676.851562 720.757812 C 676.851562 726.761719 671.976562 731.636719 665.976562 731.636719 Z M 665.976562 731.636719 " fill-opacity="1" fill-rule="nonzero"/><path fill="#4b4132" d="M 619.289062 703.574219 C 612.386719 703.574219 606.785156 697.980469 606.785156 691.070312 C 606.785156 684.160156 612.378906 678.566406 619.289062 678.566406 C 626.199219 678.566406 631.792969 684.160156 631.792969 691.070312 C 631.792969 697.980469 626.199219 703.574219 619.289062 703.574219 Z M 619.289062 703.574219 " fill-opacity="1" fill-rule="nonzero"/><path fill="#4b4132" d="M 581.417969 664.507812 C 573.816406 664.507812 567.648438 658.34375 567.648438 650.742188 C 567.648438 643.140625 573.816406 636.972656 581.417969 636.972656 C 589.019531 636.972656 595.183594 643.140625 595.183594 650.742188 C 595.183594 658.34375 589.019531 664.507812 581.417969 664.507812 Z M 581.417969 664.507812 " fill-opacity="1" fill-rule="nonzero"/><path fill="#4b4132" d="M 554.726562 616.878906 C 546.660156 616.878906 540.125 610.339844 540.125 602.273438 C 540.125 594.207031 546.660156 587.671875 554.726562 587.671875 C 562.792969 587.671875 569.332031 594.207031 569.332031 602.273438 C 569.332031 610.339844 562.792969 616.878906 554.726562 616.878906 Z M 554.726562 616.878906 " fill-opacity="1" fill-rule="nonzero"/><g clip-path="url(#60db609182)"><path fill="#4b4132" d="M 556.039062 548.6875 C 556.039062 549.671875 555.941406 550.652344 555.75 551.617188 C 555.554688 552.585938 555.269531 553.523438 554.894531 554.4375 C 554.515625 555.347656 554.054688 556.214844 553.503906 557.03125 C 552.957031 557.851562 552.335938 558.613281 551.636719 559.308594 C 550.941406 560.007812 550.179688 560.628906 549.359375 561.175781 C 548.539062 561.726562 547.675781 562.1875 546.765625 562.566406 C 545.851562 562.941406 544.914062 563.226562 543.945312 563.421875 C 542.976562 563.613281 542 563.710938 541.015625 563.710938 C 540.027344 563.710938 539.050781 563.613281 538.085938 563.421875 C 537.117188 563.226562 536.175781 562.941406 535.265625 562.566406 C 534.355469 562.1875 533.488281 561.726562 532.667969 561.175781 C 531.847656 560.628906 531.089844 560.007812 530.394531 559.308594 C 529.695312 558.613281 529.074219 557.851562 528.523438 557.03125 C 527.976562 556.214844 527.515625 555.347656 527.136719 554.4375 C 526.757812 553.523438 526.472656 552.585938 526.28125 551.617188 C 526.089844 550.652344 525.992188 549.671875 525.992188 548.6875 C 525.992188 547.699219 526.089844 546.722656 526.28125 545.757812 C 526.472656 544.789062 526.757812 543.851562 527.136719 542.9375 C 527.515625 542.027344 527.976562 541.160156 528.523438 540.339844 C 529.074219 539.519531 529.695312 538.761719 530.394531 538.066406 C 531.089844 537.367188 531.847656 536.746094 532.667969 536.195312 C 533.488281 535.648438 534.355469 535.1875 535.265625 534.808594 C 536.175781 534.429688 537.117188 534.144531 538.085938 533.953125 C 539.050781 533.761719 540.027344 533.664062 541.015625 533.664062 C 542 533.664062 542.976562 533.761719 543.945312 533.953125 C 544.914062 534.144531 545.851562 534.429688 546.765625 534.808594 C 547.675781 535.1875 548.539062 535.648438 549.359375 536.195312 C 550.179688 536.746094 550.941406 537.367188 551.636719 538.066406 C 552.335938 538.761719 552.957031 539.519531 553.503906 540.339844 C 554.054688 541.160156 554.515625 542.027344 554.894531 542.9375 C 555.269531 543.851562 555.554688 544.789062 555.75 545.757812 C 555.941406 546.722656 556.039062 547.699219 556.039062 548.6875 Z M 556.039062 548.6875 " fill-opacity="1" fill-rule="nonzero"/></g><g clip-path="url(#4b2bced718)"><path fill="#4b4132" d="M 541.015625 508.394531 C 532.714844 508.394531 525.984375 501.664062 525.984375 493.363281 C 525.984375 485.0625 532.714844 478.332031 541.015625 478.332031 C 549.316406 478.332031 556.046875 485.0625 556.046875 493.363281 C 556.046875 501.664062 549.316406 508.394531 541.015625 508.394531 Z M 541.015625 508.394531 " fill-opacity="1" fill-rule="nonzero"/></g><path fill="#4b4132" d="M 554.746094 454.40625 C 546.660156 454.40625 540.105469 447.851562 540.105469 439.769531 C 540.105469 431.683594 546.660156 425.128906 554.746094 425.128906 C 562.828125 425.128906 569.386719 431.683594 569.386719 439.769531 C 569.386719 447.851562 562.828125 454.40625 554.746094 454.40625 Z M 554.746094 454.40625 " fill-opacity="1" fill-rule="nonzero"/><path fill="#4b4132" d="M 581.445312 405.132812 C 573.804688 405.132812 567.613281 398.9375 567.613281 391.300781 C 567.613281 383.664062 573.804688 377.46875 581.445312 377.46875 C 589.082031 377.46875 595.273438 383.664062 595.273438 391.300781 C 595.273438 398.9375 589.082031 405.132812 581.445312 405.132812 Z M 581.445312 405.132812 " fill-opacity="1" fill-rule="nonzero"/><path fill="#4b4132" d="M 619.335938 363.574219 C 612.378906 363.574219 606.75 357.9375 606.75 350.992188 C 606.75 344.042969 612.386719 338.40625 619.335938 338.40625 C 626.28125 338.40625 631.921875 344.042969 631.921875 350.992188 C 631.921875 357.9375 626.28125 363.574219 619.335938 363.574219 Z M 619.335938 363.574219 " fill-opacity="1" fill-rule="nonzero"/><path fill="#4b4132" d="M 666.03125 332.277344 C 659.972656 332.277344 655.0625 327.367188 655.0625 321.308594 C 655.0625 315.253906 659.972656 310.34375 666.03125 310.34375 C 672.085938 310.34375 676.996094 315.253906 676.996094 321.308594 C 676.996094 327.367188 672.085938 332.277344 666.03125 332.277344 Z M 666.03125 332.277344 " fill-opacity="1" fill-rule="nonzero"/><path fill="#4b4132" d="M 718.652344 313.308594 C 713.640625 313.308594 709.578125 309.242188 709.578125 304.234375 C 709.578125 299.222656 713.640625 295.15625 718.652344 295.15625 C 723.664062 295.15625 727.726562 299.222656 727.726562 304.234375 C 727.726562 309.242188 723.664062 313.308594 718.652344 313.308594 Z M 718.652344 313.308594 " fill-opacity="1" fill-rule="nonzero"/><g clip-path="url(#b2b9b8d71d)"><path fill="#4b4132" d="M 773.875 307.90625 C 769.949219 307.90625 766.765625 304.722656 766.765625 300.796875 C 766.765625 296.867188 769.949219 293.683594 773.875 293.683594 C 777.804688 293.683594 780.988281 296.867188 780.988281 300.796875 C 780.988281 304.722656 777.804688 307.90625 773.875 307.90625 Z M 773.875 307.90625 " fill-opacity="1" fill-rule="nonzero"/></g><path fill="#4b4132" d="M 828.226562 316.273438 C 825.390625 316.273438 823.089844 313.972656 823.089844 311.132812 C 823.089844 308.296875 825.390625 305.996094 828.226562 305.996094 C 831.0625 305.996094 833.363281 308.296875 833.363281 311.132812 C 833.363281 313.972656 831.0625 316.273438 828.226562 316.273438 Z M 828.226562 316.273438 " fill-opacity="1" fill-rule="nonzero"/><path fill="#4b4132" d="M 878.265625 338.085938 C 876.410156 338.085938 874.902344 336.585938 874.902344 334.722656 C 874.902344 332.859375 876.410156 331.359375 878.265625 331.359375 C 880.121094 331.359375 881.632812 332.867188 881.632812 334.722656 C 881.632812 336.578125 880.121094 338.085938 878.265625 338.085938 Z M 878.265625 338.085938 " fill-opacity="1" fill-rule="nonzero"/><path fill="#4b4132" d="M 920.878906 371.949219 C 919.8125 371.949219 918.949219 371.085938 918.949219 370.023438 C 918.949219 368.957031 919.8125 368.09375 920.878906 368.09375 C 921.941406 368.09375 922.804688 368.957031 922.804688 370.023438 C 922.804688 371.085938 921.941406 371.949219 920.878906 371.949219 Z M 920.878906 371.949219 " fill-opacity="1" fill-rule="nonzero"/><path fill="#4b4132" d="M 953.414062 415.632812 C 952.929688 415.632812 952.550781 415.242188 952.550781 414.769531 C 952.550781 414.296875 952.941406 413.898438 953.414062 413.898438 C 953.886719 413.898438 954.285156 414.289062 954.285156 414.769531 C 954.285156 415.253906 953.894531 415.632812 953.414062 415.632812 Z M 953.414062 415.632812 " fill-opacity="1" fill-rule="nonzero"/><path fill="#4b4132" d="M 973.78125 466.429688 C 973.664062 466.429688 973.5625 466.328125 973.5625 466.210938 C 973.5625 466.09375 973.664062 465.992188 973.78125 465.992188 C 973.902344 465.992188 974 466.09375 974 466.210938 C 974 466.328125 973.902344 466.429688 973.78125 466.429688 Z M 973.78125 466.429688 " fill-opacity="1" fill-rule="nonzero"/></svg>