<svg xmlns="http://www.w3.org/2000/svg" xmlns:xlink="http://www.w3.org/1999/xlink" width="2000" zoomAndPan="magnify" viewBox="350 345 800 800" height="2000" preserveAspectRatio="xMidYMid meet" version="1.0"><defs><clipPath id="98ef21c812"><path d="M 1117 839 L 1118.484375 839 L 1118.484375 841 L 1117 841 Z M 1117 839 " clip-rule="nonzero"/></clipPath><clipPath id="008ed9e1a4"><path d="M 777 1100 L 801 1100 L 801 1123.84375 L 777 1123.84375 Z M 777 1100 " clip-rule="nonzero"/></clipPath><clipPath id="29d4701e89"><path d="M 381.234375 770 L 431 770 L 431 821 L 381.234375 821 Z M 381.234375 770 " clip-rule="nonzero"/></clipPath><clipPath id="ab64f41fa9"><path d="M 381.234375 679 L 431 679 L 431 730 L 381.234375 730 Z M 381.234375 679 " clip-rule="nonzero"/></clipPath><clipPath id="28f8a9b35a"><path d="M 777 376.09375 L 801 376.09375 L 801 400 L 777 400 Z M 777 376.09375 " clip-rule="nonzero"/></clipPath><clipPath id="81359a5d16"><path d="M 1117 659 L 1118.484375 659 L 1118.484375 661 L 1117 661 Z M 1117 659 " clip-rule="nonzero"/></clipPath></defs><path fill="#4b4132" d="M 650.417969 812.964844 C 650.417969 812.964844 650.535156 812.917969 650.582031 812.964844 C 650.625 813.007812 650.625 813.082031 650.582031 813.128906 C 650.535156 813.171875 650.460938 813.171875 650.417969 813.128906 C 650.371094 813.082031 650.371094 813.007812 650.417969 812.964844 Z M 650.417969 812.964844 " fill-opacity="1" fill-rule="nonzero"/><path fill="#4b4132" d="M 638.347656 785.355469 C 638.527344 785.175781 638.824219 785.175781 639.003906 785.355469 C 639.183594 785.535156 639.183594 785.832031 639.003906 786.011719 C 638.824219 786.191406 638.527344 786.191406 638.347656 786.011719 C 638.167969 785.832031 638.167969 785.535156 638.347656 785.355469 Z M 638.347656 785.355469 " fill-opacity="1" fill-rule="nonzero"/><path fill="#4b4132" d="M 633.308594 755.5 C 633.710938 755.097656 634.355469 755.097656 634.757812 755.5 C 635.160156 755.90625 635.160156 756.546875 634.757812 756.953125 C 634.355469 757.355469 633.710938 757.355469 633.308594 756.953125 C 632.902344 756.546875 632.902344 755.90625 633.308594 755.5 Z M 633.308594 755.5 " fill-opacity="1" fill-rule="nonzero"/><path fill="#4b4132" d="M 635.550781 725.273438 C 636.253906 724.574219 637.390625 724.574219 638.078125 725.273438 C 638.765625 725.976562 638.78125 727.113281 638.078125 727.804688 C 637.375 728.492188 636.238281 728.507812 635.550781 727.804688 C 634.863281 727.101562 634.847656 725.964844 635.550781 725.273438 Z M 635.550781 725.273438 " fill-opacity="1" fill-rule="nonzero"/><path fill="#4b4132" d="M 644.972656 696.542969 C 646.035156 695.484375 647.769531 695.484375 648.847656 696.542969 C 649.921875 697.605469 649.90625 699.339844 648.847656 700.417969 C 647.785156 701.496094 646.050781 701.480469 644.972656 700.417969 C 643.894531 699.355469 643.910156 697.621094 644.972656 696.542969 Z M 644.972656 696.542969 " fill-opacity="1" fill-rule="nonzero"/><path fill="#4b4132" d="M 661.003906 671.164062 C 662.484375 669.683594 664.878906 669.683594 666.359375 671.164062 C 667.839844 672.644531 667.839844 675.039062 666.359375 676.519531 C 664.878906 678 662.484375 678 661.003906 676.519531 C 659.523438 675.039062 659.523438 672.644531 661.003906 671.164062 Z M 661.003906 671.164062 " fill-opacity="1" fill-rule="nonzero"/><path fill="#4b4132" d="M 682.617188 650.675781 C 684.5 648.789062 687.582031 648.789062 689.46875 650.675781 C 691.351562 652.558594 691.351562 655.640625 689.46875 657.523438 C 687.582031 659.410156 684.5 659.410156 682.617188 657.523438 C 680.734375 655.640625 680.734375 652.558594 682.617188 650.675781 Z M 682.617188 650.675781 " fill-opacity="1" fill-rule="nonzero"/><path fill="#4b4132" d="M 708.460938 636.421875 C 710.75 634.132812 714.457031 634.132812 716.746094 636.421875 C 719.035156 638.710938 719.035156 642.417969 716.746094 644.707031 C 714.457031 646.996094 710.75 646.996094 708.460938 644.707031 C 706.171875 642.417969 706.171875 638.710938 708.460938 636.421875 Z M 708.460938 636.421875 " fill-opacity="1" fill-rule="nonzero"/><path fill="#4b4132" d="M 736.953125 629.316406 C 739.585938 626.683594 743.847656 626.683594 746.480469 629.316406 C 749.113281 631.949219 749.113281 636.210938 746.480469 638.84375 C 743.847656 641.476562 739.585938 641.476562 736.953125 638.84375 C 734.320312 636.210938 734.320312 631.949219 736.953125 629.316406 Z M 736.953125 629.316406 " fill-opacity="1" fill-rule="nonzero"/><path fill="#4b4132" d="M 766.28125 629.765625 C 769.183594 626.863281 773.878906 626.863281 776.78125 629.765625 C 779.683594 632.667969 779.683594 637.363281 776.78125 640.265625 C 773.878906 643.164062 769.183594 643.164062 766.28125 640.265625 C 763.378906 637.363281 763.378906 632.667969 766.28125 629.765625 Z M 766.28125 629.765625 " fill-opacity="1" fill-rule="nonzero"/><path fill="#4b4132" d="M 794.59375 637.75 C 797.660156 634.6875 802.65625 634.6875 805.722656 637.75 C 808.789062 640.816406 808.789062 645.8125 805.722656 648.878906 C 802.65625 651.945312 797.660156 651.945312 794.59375 648.878906 C 791.527344 645.8125 791.527344 640.816406 794.59375 637.75 Z M 794.59375 637.75 " fill-opacity="1" fill-rule="nonzero"/><path fill="#4b4132" d="M 833.898438 658.511719 C 833.898438 659.042969 833.847656 659.570312 833.742188 660.089844 C 833.640625 660.609375 833.484375 661.117188 833.28125 661.605469 C 833.078125 662.097656 832.832031 662.566406 832.535156 663.007812 C 832.238281 663.449219 831.90625 663.855469 831.527344 664.230469 C 831.152344 664.609375 830.746094 664.945312 830.300781 665.238281 C 829.859375 665.535156 829.394531 665.78125 828.902344 665.988281 C 828.414062 666.191406 827.90625 666.34375 827.386719 666.445312 C 826.863281 666.550781 826.339844 666.601562 825.808594 666.601562 C 825.277344 666.601562 824.75 666.550781 824.230469 666.445312 C 823.707031 666.34375 823.203125 666.191406 822.710938 665.988281 C 822.21875 665.78125 821.753906 665.535156 821.3125 665.238281 C 820.871094 664.945312 820.460938 664.609375 820.085938 664.230469 C 819.710938 663.855469 819.375 663.449219 819.078125 663.007812 C 818.785156 662.566406 818.535156 662.097656 818.332031 661.605469 C 818.128906 661.117188 817.976562 660.609375 817.871094 660.089844 C 817.769531 659.570312 817.714844 659.042969 817.714844 658.511719 C 817.714844 657.980469 817.769531 657.453125 817.871094 656.933594 C 817.976562 656.410156 818.128906 655.90625 818.332031 655.414062 C 818.535156 654.921875 818.785156 654.457031 819.078125 654.015625 C 819.375 653.574219 819.710938 653.164062 820.085938 652.789062 C 820.460938 652.414062 820.871094 652.078125 821.3125 651.785156 C 821.753906 651.488281 822.21875 651.238281 822.710938 651.035156 C 823.203125 650.832031 823.707031 650.679688 824.230469 650.574219 C 824.75 650.472656 825.277344 650.417969 825.808594 650.417969 C 826.339844 650.417969 826.863281 650.472656 827.386719 650.574219 C 827.90625 650.679688 828.414062 650.832031 828.902344 651.035156 C 829.394531 651.238281 829.859375 651.488281 830.300781 651.785156 C 830.746094 652.078125 831.152344 652.414062 831.527344 652.789062 C 831.90625 653.164062 832.238281 653.574219 832.535156 654.015625 C 832.832031 654.457031 833.078125 654.921875 833.28125 655.414062 C 833.484375 655.90625 833.640625 656.410156 833.742188 656.933594 C 833.847656 657.453125 833.898438 657.980469 833.898438 658.511719 Z M 833.898438 658.511719 " fill-opacity="1" fill-rule="nonzero"/><path fill="#4b4132" d="M 841.167969 673.871094 C 844.339844 670.699219 849.46875 670.699219 852.625 673.871094 C 855.792969 677.042969 855.792969 682.171875 852.625 685.328125 C 849.453125 688.484375 844.324219 688.5 841.167969 685.328125 C 837.996094 682.15625 837.996094 677.027344 841.167969 673.871094 Z M 841.167969 673.871094 " fill-opacity="1" fill-rule="nonzero"/><path fill="#4b4132" d="M 856.511719 699.683594 C 859.59375 696.605469 864.589844 696.605469 867.667969 699.683594 C 870.75 702.765625 870.75 707.761719 867.667969 710.84375 C 864.589844 713.921875 859.59375 713.921875 856.511719 710.84375 C 853.429688 707.761719 853.429688 702.765625 856.511719 699.683594 Z M 856.511719 699.683594 " fill-opacity="1" fill-rule="nonzero"/><path fill="#4b4132" d="M 865.113281 728.625 C 868.027344 725.710938 872.738281 725.710938 875.65625 728.625 C 878.574219 731.542969 878.574219 736.253906 875.65625 739.167969 C 872.738281 742.085938 868.027344 742.085938 865.113281 739.167969 C 862.195312 736.253906 862.195312 731.542969 865.113281 728.625 Z M 865.113281 728.625 " fill-opacity="1" fill-rule="nonzero"/><path fill="#4b4132" d="M 866.519531 758.910156 C 869.164062 756.265625 873.457031 756.265625 876.121094 758.910156 C 878.765625 761.558594 878.765625 765.851562 876.121094 768.5 C 873.472656 771.144531 869.179688 771.144531 866.53125 768.5 C 863.886719 765.851562 863.886719 761.558594 866.53125 758.898438 Z M 866.519531 758.910156 " fill-opacity="1" fill-rule="nonzero"/><path fill="#4b4132" d="M 860.640625 788.628906 C 862.945312 786.328125 866.699219 786.328125 869 788.628906 C 871.304688 790.933594 871.304688 794.6875 869 796.988281 C 866.699219 799.292969 862.945312 799.292969 860.640625 796.988281 C 858.335938 794.6875 858.335938 790.933594 860.640625 788.628906 Z M 860.640625 788.628906 " fill-opacity="1" fill-rule="nonzero"/><path fill="#4b4132" d="M 847.824219 815.910156 C 849.738281 813.996094 852.832031 813.996094 854.734375 815.910156 C 856.632812 817.824219 856.648438 820.921875 854.734375 822.820312 C 852.820312 824.734375 849.722656 824.734375 847.824219 822.820312 C 845.921875 820.90625 845.910156 817.808594 847.824219 815.910156 Z M 847.824219 815.910156 " fill-opacity="1" fill-rule="nonzero"/><path fill="#4b4132" d="M 828.828125 839.015625 C 830.324219 837.519531 832.746094 837.519531 834.242188 839.015625 C 835.738281 840.511719 835.738281 842.933594 834.242188 844.429688 C 832.746094 845.925781 830.324219 845.925781 828.828125 844.429688 C 827.332031 842.933594 827.332031 840.511719 828.828125 839.015625 Z M 828.828125 839.015625 " fill-opacity="1" fill-rule="nonzero"/><path fill="#4b4132" d="M 804.929688 856.546875 C 806.003906 855.46875 807.769531 855.46875 808.847656 856.546875 C 809.925781 857.621094 809.925781 859.386719 808.847656 860.464844 C 807.769531 861.539062 806.003906 861.539062 804.929688 860.464844 C 803.851562 859.386719 803.851562 857.621094 804.929688 856.546875 Z M 804.929688 856.546875 " fill-opacity="1" fill-rule="nonzero"/><path fill="#4b4132" d="M 777.542969 867.300781 C 778.246094 866.597656 779.398438 866.597656 780.101562 867.300781 C 780.804688 868.003906 780.804688 869.152344 780.101562 869.855469 C 779.398438 870.558594 778.246094 870.558594 777.542969 869.855469 C 776.839844 869.152344 776.839844 868.003906 777.542969 867.300781 Z M 777.542969 867.300781 " fill-opacity="1" fill-rule="nonzero"/><path fill="#4b4132" d="M 748.410156 870.632812 C 748.8125 870.230469 749.472656 870.230469 749.875 870.632812 C 750.277344 871.039062 750.277344 871.695312 749.875 872.101562 C 749.472656 872.503906 748.8125 872.503906 748.410156 872.101562 C 748.003906 871.695312 748.003906 871.039062 748.410156 870.632812 Z M 748.410156 870.632812 " fill-opacity="1" fill-rule="nonzero"/><path fill="#4b4132" d="M 719.347656 866.386719 C 719.527344 866.207031 719.828125 866.207031 720.007812 866.386719 C 720.1875 866.566406 720.1875 866.867188 720.007812 867.042969 C 719.828125 867.222656 719.527344 867.222656 719.347656 867.042969 C 719.171875 866.867188 719.171875 866.566406 719.347656 866.386719 Z M 719.347656 866.386719 " fill-opacity="1" fill-rule="nonzero"/><path fill="#4b4132" d="M 692.234375 854.796875 C 692.234375 854.796875 692.355469 854.75 692.398438 854.796875 C 692.441406 854.839844 692.441406 854.914062 692.398438 854.960938 C 692.355469 855.003906 692.277344 855.003906 692.234375 854.960938 C 692.1875 854.914062 692.1875 854.839844 692.234375 854.796875 Z M 692.234375 854.796875 " fill-opacity="1" fill-rule="nonzero"/><path fill="#4b4132" d="M 606.9375 712.816406 C 607.015625 712.816406 607.089844 712.875 607.089844 712.964844 C 607.089844 713.054688 607.027344 713.117188 606.9375 713.117188 C 606.847656 713.117188 606.789062 713.054688 606.789062 712.964844 C 606.789062 712.875 606.847656 712.816406 606.9375 712.816406 Z M 606.9375 712.816406 " fill-opacity="1" fill-rule="nonzero"/><path fill="#4b4132" d="M 620.667969 677.730469 C 620.984375 677.730469 621.253906 677.984375 621.253906 678.3125 C 621.253906 678.640625 620.996094 678.894531 620.667969 678.894531 C 620.339844 678.894531 620.085938 678.640625 620.085938 678.3125 C 620.085938 677.984375 620.339844 677.730469 620.667969 677.730469 Z M 620.667969 677.730469 " fill-opacity="1" fill-rule="nonzero"/><path fill="#4b4132" d="M 642.59375 646.890625 C 643.296875 646.890625 643.878906 647.457031 643.878906 648.175781 C 643.878906 648.894531 643.3125 649.460938 642.59375 649.460938 C 641.875 649.460938 641.308594 648.894531 641.308594 648.175781 C 641.308594 647.457031 641.875 646.890625 642.59375 646.890625 Z M 642.59375 646.890625 " fill-opacity="1" fill-rule="nonzero"/><path fill="#4b4132" d="M 671.308594 622.167969 C 672.550781 622.167969 673.554688 623.167969 673.554688 624.410156 C 673.554688 625.652344 672.550781 626.65625 671.308594 626.65625 C 670.070312 626.65625 669.066406 625.652344 669.066406 624.410156 C 669.066406 623.167969 670.070312 622.167969 671.308594 622.167969 Z M 671.308594 622.167969 " fill-opacity="1" fill-rule="nonzero"/><path fill="#4b4132" d="M 705.019531 605.085938 C 706.90625 605.085938 708.445312 606.613281 708.445312 608.511719 C 708.445312 610.410156 706.921875 611.9375 705.019531 611.9375 C 703.136719 611.9375 701.597656 610.410156 701.597656 608.511719 C 701.597656 606.613281 703.121094 605.085938 705.019531 605.085938 Z M 705.019531 605.085938 " fill-opacity="1" fill-rule="nonzero"/><path fill="#4b4132" d="M 741.632812 596.832031 C 744.25 596.832031 746.375 598.957031 746.375 601.574219 C 746.375 604.191406 744.25 606.3125 741.632812 606.3125 C 739.015625 606.3125 736.894531 604.191406 736.894531 601.574219 C 736.894531 598.957031 739.015625 596.832031 741.632812 596.832031 Z M 741.632812 596.832031 " fill-opacity="1" fill-rule="nonzero"/><path fill="#4b4132" d="M 778.84375 597.832031 C 782.195312 597.832031 784.902344 600.539062 784.902344 603.890625 C 784.902344 607.242188 782.195312 609.949219 778.84375 609.949219 C 775.496094 609.949219 772.789062 607.242188 772.789062 603.890625 C 772.789062 600.539062 775.496094 597.832031 778.84375 597.832031 Z M 778.84375 597.832031 " fill-opacity="1" fill-rule="nonzero"/><path fill="#4b4132" d="M 814.292969 608.078125 C 818.34375 608.078125 821.621094 611.355469 821.621094 615.40625 C 821.621094 619.460938 818.34375 622.734375 814.292969 622.734375 C 810.238281 622.734375 806.960938 619.460938 806.960938 615.40625 C 806.960938 611.355469 810.238281 608.078125 814.292969 608.078125 Z M 814.292969 608.078125 " fill-opacity="1" fill-rule="nonzero"/><path fill="#4b4132" d="M 845.742188 626.984375 C 850.394531 626.984375 854.164062 630.753906 854.164062 635.402344 C 854.164062 640.054688 850.394531 643.824219 845.742188 643.824219 C 841.09375 643.824219 837.324219 640.054688 837.324219 635.402344 C 837.324219 630.753906 841.09375 626.984375 845.742188 626.984375 Z M 845.742188 626.984375 " fill-opacity="1" fill-rule="nonzero"/><path fill="#4b4132" d="M 871.257812 653.292969 C 876.390625 653.292969 880.53125 657.449219 880.53125 662.5625 C 880.53125 667.679688 876.375 671.835938 871.257812 671.835938 C 866.144531 671.835938 861.988281 667.679688 861.988281 662.5625 C 861.988281 657.433594 866.144531 653.292969 871.257812 653.292969 Z M 871.257812 653.292969 " fill-opacity="1" fill-rule="nonzero"/><path fill="#4b4132" d="M 889.238281 685.386719 C 894.664062 685.386719 899.078125 689.785156 899.078125 695.226562 C 899.078125 700.671875 894.679688 705.070312 889.238281 705.070312 C 883.792969 705.070312 879.394531 700.65625 879.394531 695.226562 C 879.394531 689.800781 883.792969 685.386719 889.238281 685.386719 Z M 889.238281 685.386719 " fill-opacity="1" fill-rule="nonzero"/><path fill="#4b4132" d="M 908.605469 731.316406 C 908.605469 731.984375 908.539062 732.640625 908.410156 733.292969 C 908.28125 733.945312 908.089844 734.578125 907.835938 735.191406 C 907.578125 735.804688 907.269531 736.390625 906.898438 736.941406 C 906.527344 737.496094 906.109375 738.007812 905.640625 738.476562 C 905.167969 738.949219 904.65625 739.367188 904.105469 739.738281 C 903.550781 740.105469 902.96875 740.417969 902.355469 740.671875 C 901.738281 740.925781 901.105469 741.117188 900.453125 741.25 C 899.804688 741.378906 899.144531 741.441406 898.480469 741.441406 C 897.816406 741.441406 897.15625 741.378906 896.503906 741.25 C 895.851562 741.117188 895.21875 740.925781 894.605469 740.671875 C 893.992188 740.417969 893.40625 740.105469 892.855469 739.738281 C 892.300781 739.367188 891.789062 738.949219 891.320312 738.476562 C 890.851562 738.007812 890.429688 737.496094 890.0625 736.941406 C 889.691406 736.390625 889.378906 735.808594 889.125 735.191406 C 888.871094 734.578125 888.679688 733.945312 888.546875 733.292969 C 888.417969 732.640625 888.355469 731.984375 888.355469 731.316406 C 888.355469 730.652344 888.417969 729.996094 888.546875 729.34375 C 888.679688 728.691406 888.871094 728.058594 889.125 727.441406 C 889.378906 726.828125 889.691406 726.246094 890.0625 725.691406 C 890.429688 725.140625 890.851562 724.628906 891.320312 724.15625 C 891.789062 723.6875 892.300781 723.269531 892.855469 722.898438 C 893.40625 722.53125 893.992188 722.21875 894.605469 721.964844 C 895.21875 721.707031 895.851562 721.515625 896.503906 721.386719 C 897.15625 721.257812 897.816406 721.191406 898.480469 721.191406 C 899.144531 721.191406 899.804688 721.257812 900.453125 721.386719 C 901.105469 721.515625 901.738281 721.707031 902.355469 721.964844 C 902.96875 722.21875 903.550781 722.53125 904.105469 722.898438 C 904.65625 723.269531 905.167969 723.6875 905.640625 724.15625 C 906.109375 724.628906 906.527344 725.140625 906.898438 725.691406 C 907.269531 726.246094 907.578125 726.828125 907.835938 727.441406 C 908.089844 728.058594 908.28125 728.691406 908.410156 729.34375 C 908.539062 729.996094 908.605469 730.652344 908.605469 731.316406 Z M 908.605469 731.316406 " fill-opacity="1" fill-rule="nonzero"/><path fill="#4b4132" d="M 898.480469 758.464844 C 904.074219 758.464844 908.605469 762.996094 908.605469 768.589844 C 908.605469 774.183594 904.074219 778.714844 898.480469 778.714844 C 892.886719 778.714844 888.355469 774.183594 888.355469 768.589844 C 888.355469 762.996094 892.886719 758.464844 898.480469 758.464844 Z M 898.480469 758.464844 " fill-opacity="1" fill-rule="nonzero"/><path fill="#4b4132" d="M 889.222656 794.835938 C 894.664062 794.835938 899.078125 799.25 899.078125 804.691406 C 899.078125 810.136719 894.664062 814.5625 889.222656 814.5625 C 883.777344 814.5625 879.367188 810.152344 879.367188 804.691406 C 879.367188 799.234375 883.777344 794.835938 889.222656 794.835938 Z M 889.222656 794.835938 " fill-opacity="1" fill-rule="nonzero"/><path fill="#4b4132" d="M 871.246094 828.039062 C 876.390625 828.039062 880.5625 832.210938 880.5625 837.355469 C 880.5625 842.5 876.390625 846.675781 871.246094 846.675781 C 866.097656 846.675781 861.925781 842.5 861.925781 837.355469 C 861.925781 832.210938 866.097656 828.039062 871.246094 828.039062 Z M 871.246094 828.039062 " fill-opacity="1" fill-rule="nonzero"/><path fill="#4b4132" d="M 845.714844 856.039062 C 850.394531 856.039062 854.195312 859.835938 854.195312 864.515625 C 854.195312 869.199219 850.394531 872.996094 845.714844 872.996094 C 841.03125 872.996094 837.234375 869.199219 837.234375 864.515625 C 837.234375 859.835938 841.03125 856.039062 845.714844 856.039062 Z M 845.714844 856.039062 " fill-opacity="1" fill-rule="nonzero"/><path fill="#4b4132" d="M 814.261719 877.109375 C 818.34375 877.109375 821.648438 880.414062 821.648438 884.5 C 821.648438 888.582031 818.34375 891.886719 814.261719 891.886719 C 810.179688 891.886719 806.871094 888.582031 806.871094 884.5 C 806.871094 880.414062 810.179688 877.109375 814.261719 877.109375 Z M 814.261719 877.109375 " fill-opacity="1" fill-rule="nonzero"/><path fill="#4b4132" d="M 778.800781 889.898438 C 782.179688 889.898438 784.917969 892.636719 784.917969 896.015625 C 784.917969 899.394531 782.179688 902.132812 778.800781 902.132812 C 775.421875 902.132812 772.683594 899.394531 772.683594 896.015625 C 772.683594 892.636719 775.421875 889.898438 778.800781 889.898438 Z M 778.800781 889.898438 " fill-opacity="1" fill-rule="nonzero"/><path fill="#4b4132" d="M 741.605469 893.53125 C 744.25 893.53125 746.390625 895.671875 746.390625 898.316406 C 746.390625 900.964844 744.25 903.105469 741.605469 903.105469 C 738.957031 903.105469 736.816406 900.964844 736.816406 898.316406 C 736.816406 895.671875 738.957031 893.53125 741.605469 893.53125 Z M 741.605469 893.53125 " fill-opacity="1" fill-rule="nonzero"/><path fill="#4b4132" d="M 704.992188 887.910156 C 706.90625 887.910156 708.460938 889.464844 708.460938 891.378906 C 708.460938 893.292969 706.90625 894.847656 704.992188 894.847656 C 703.078125 894.847656 701.523438 893.292969 701.523438 891.378906 C 701.523438 889.464844 703.078125 887.910156 704.992188 887.910156 Z M 704.992188 887.910156 " fill-opacity="1" fill-rule="nonzero"/><path fill="#4b4132" d="M 671.28125 873.207031 C 672.535156 873.207031 673.539062 874.222656 673.539062 875.464844 C 673.539062 876.707031 672.523438 877.722656 671.28125 877.722656 C 670.039062 877.722656 669.023438 876.707031 669.023438 875.464844 C 669.023438 874.222656 670.039062 873.207031 671.28125 873.207031 Z M 671.28125 873.207031 " fill-opacity="1" fill-rule="nonzero"/><path fill="#4b4132" d="M 642.566406 850.398438 C 643.28125 850.398438 643.867188 850.980469 643.867188 851.699219 C 643.867188 852.417969 643.28125 853 642.566406 853 C 641.847656 853 641.261719 852.417969 641.261719 851.699219 C 641.261719 850.980469 641.847656 850.398438 642.566406 850.398438 Z M 642.566406 850.398438 " fill-opacity="1" fill-rule="nonzero"/><path fill="#4b4132" d="M 620.652344 820.964844 C 620.984375 820.964844 621.238281 821.234375 621.238281 821.546875 C 621.238281 821.863281 620.96875 822.132812 620.652344 822.132812 C 620.339844 822.132812 620.070312 821.863281 620.070312 821.546875 C 620.070312 821.234375 620.339844 820.964844 620.652344 820.964844 Z M 620.652344 820.964844 " fill-opacity="1" fill-rule="nonzero"/><path fill="#4b4132" d="M 606.925781 786.746094 C 607.015625 786.746094 607.074219 786.804688 607.074219 786.894531 C 607.074219 786.984375 607.015625 787.042969 606.925781 787.042969 C 606.835938 787.042969 606.773438 786.984375 606.773438 786.894531 C 606.773438 786.804688 606.835938 786.746094 606.925781 786.746094 Z M 606.925781 786.746094 " fill-opacity="1" fill-rule="nonzero"/><path fill="#4b4132" d="M 657.027344 585.855469 C 657.027344 585.855469 657.101562 586.046875 657.027344 586.109375 C 656.953125 586.167969 656.832031 586.183594 656.773438 586.109375 C 656.714844 586.035156 656.699219 585.914062 656.773438 585.855469 C 656.847656 585.792969 656.96875 585.777344 657.027344 585.855469 Z M 657.027344 585.855469 " fill-opacity="1" fill-rule="nonzero"/><path fill="#4b4132" d="M 700.175781 566.996094 C 700.460938 567.277344 700.460938 567.726562 700.175781 568.011719 C 699.890625 568.296875 699.441406 568.296875 699.160156 568.011719 C 698.875 567.726562 698.875 567.277344 699.160156 566.996094 C 699.441406 566.710938 699.890625 566.710938 700.175781 566.996094 Z M 700.175781 566.996094 " fill-opacity="1" fill-rule="nonzero"/><path fill="#4b4132" d="M 746.808594 559.113281 C 747.4375 559.742188 747.4375 560.757812 746.808594 561.386719 C 746.179688 562.015625 745.164062 562.015625 744.535156 561.386719 C 743.90625 560.757812 743.90625 559.742188 744.535156 559.113281 C 745.164062 558.484375 746.179688 558.484375 746.808594 559.113281 Z M 746.808594 559.113281 " fill-opacity="1" fill-rule="nonzero"/><path fill="#4b4132" d="M 794.039062 562.628906 C 795.132812 563.71875 795.132812 565.5 794.039062 566.589844 C 792.949219 567.683594 791.167969 567.683594 790.078125 566.589844 C 788.984375 565.5 788.984375 563.71875 790.078125 562.628906 C 791.167969 561.535156 792.949219 561.535156 794.039062 562.628906 Z M 794.039062 562.628906 " fill-opacity="1" fill-rule="nonzero"/><path fill="#4b4132" d="M 838.9375 577.34375 C 840.613281 579.019531 840.613281 581.726562 838.9375 583.386719 C 837.265625 585.0625 834.558594 585.0625 832.898438 583.386719 C 831.238281 581.710938 831.222656 579.003906 832.898438 577.34375 C 834.570312 575.683594 837.277344 575.667969 838.9375 577.34375 Z M 838.9375 577.34375 " fill-opacity="1" fill-rule="nonzero"/><path fill="#4b4132" d="M 878.601562 602.410156 C 880.921875 604.730469 880.921875 608.46875 878.601562 610.785156 C 876.285156 613.105469 872.546875 613.105469 870.226562 610.785156 C 867.910156 608.46875 867.910156 604.730469 870.226562 602.410156 C 872.546875 600.09375 876.285156 600.09375 878.601562 602.410156 Z M 878.601562 602.410156 " fill-opacity="1" fill-rule="nonzero"/><path fill="#4b4132" d="M 910.59375 636.167969 C 913.554688 639.128906 913.554688 643.914062 910.59375 646.875 C 907.632812 649.835938 902.847656 649.835938 899.886719 646.875 C 896.925781 643.914062 896.925781 639.128906 899.886719 636.167969 C 902.847656 633.207031 907.632812 633.207031 910.59375 636.167969 Z M 910.59375 636.167969 " fill-opacity="1" fill-rule="nonzero"/><path fill="#4b4132" d="M 932.878906 676.5625 C 936.453125 680.136719 936.453125 685.941406 932.878906 689.515625 C 929.304688 693.089844 923.5 693.089844 919.925781 689.515625 C 916.351562 685.941406 916.351562 680.136719 919.925781 676.5625 C 923.5 672.988281 929.304688 672.988281 932.878906 676.5625 Z M 932.878906 676.5625 " fill-opacity="1" fill-rule="nonzero"/><path fill="#4b4132" d="M 943.960938 721.074219 C 948.074219 725.1875 948.074219 731.839844 943.960938 735.953125 C 939.847656 740.066406 933.191406 740.066406 929.078125 735.953125 C 924.96875 731.839844 924.96875 725.1875 929.078125 721.074219 C 933.191406 716.960938 939.847656 716.960938 943.960938 721.074219 Z M 943.960938 721.074219 " fill-opacity="1" fill-rule="nonzero"/><path fill="#4b4132" d="M 943.257812 766.882812 C 947.789062 771.414062 947.789062 778.757812 943.257812 783.289062 C 938.726562 787.820312 931.382812 787.820312 926.851562 783.289062 C 922.320312 778.757812 922.320312 771.414062 926.851562 766.882812 C 931.382812 762.351562 938.726562 762.351562 943.257812 766.882812 Z M 943.257812 766.882812 " fill-opacity="1" fill-rule="nonzero"/><path fill="#4b4132" d="M 930.785156 811.140625 C 935.585938 815.941406 935.585938 823.730469 930.785156 828.53125 C 925.984375 833.332031 918.191406 833.332031 913.390625 828.53125 C 908.589844 823.730469 908.589844 815.941406 913.390625 811.140625 C 918.191406 806.335938 925.984375 806.335938 930.785156 811.140625 Z M 930.785156 811.140625 " fill-opacity="1" fill-rule="nonzero"/><path fill="#4b4132" d="M 911.011719 859.910156 C 911.011719 860.742188 910.933594 861.5625 910.769531 862.378906 C 910.609375 863.195312 910.367188 863.984375 910.050781 864.753906 C 909.730469 865.519531 909.34375 866.25 908.878906 866.941406 C 908.417969 867.632812 907.894531 868.269531 907.308594 868.859375 C 906.71875 869.445312 906.082031 869.96875 905.390625 870.429688 C 904.699219 870.894531 903.96875 871.28125 903.203125 871.601562 C 902.433594 871.917969 901.644531 872.160156 900.828125 872.320312 C 900.011719 872.484375 899.191406 872.5625 898.359375 872.5625 C 897.527344 872.5625 896.707031 872.484375 895.890625 872.320312 C 895.078125 872.160156 894.285156 871.917969 893.519531 871.601562 C 892.75 871.28125 892.019531 870.894531 891.332031 870.429688 C 890.640625 869.96875 890 869.445312 889.414062 868.859375 C 888.824219 868.269531 888.300781 867.632812 887.839844 866.941406 C 887.378906 866.25 886.988281 865.519531 886.671875 864.753906 C 886.351562 863.984375 886.113281 863.195312 885.949219 862.378906 C 885.789062 861.5625 885.707031 860.742188 885.707031 859.910156 C 885.707031 859.078125 885.789062 858.257812 885.949219 857.441406 C 886.113281 856.628906 886.351562 855.835938 886.671875 855.070312 C 886.988281 854.300781 887.378906 853.570312 887.839844 852.882812 C 888.300781 852.191406 888.824219 851.550781 889.414062 850.964844 C 890 850.375 890.640625 849.851562 891.332031 849.390625 C 892.019531 848.929688 892.75 848.539062 893.519531 848.222656 C 894.285156 847.902344 895.078125 847.664062 895.890625 847.5 C 896.707031 847.339844 897.527344 847.257812 898.359375 847.257812 C 899.191406 847.257812 900.011719 847.339844 900.828125 847.5 C 901.644531 847.664062 902.433594 847.902344 903.203125 848.222656 C 903.96875 848.539062 904.699219 848.929688 905.390625 849.390625 C 906.082031 849.851562 906.71875 850.375 907.308594 850.964844 C 907.894531 851.550781 908.417969 852.191406 908.878906 852.882812 C 909.34375 853.570312 909.730469 854.300781 910.050781 855.070312 C 910.367188 855.835938 910.609375 856.628906 910.769531 857.441406 C 910.933594 858.257812 911.011719 859.078125 911.011719 859.910156 Z M 911.011719 859.910156 " fill-opacity="1" fill-rule="nonzero"/><path fill="#4b4132" d="M 874.355469 883.902344 C 879.304688 888.851562 879.304688 896.867188 874.355469 901.804688 C 869.40625 906.738281 861.386719 906.753906 856.453125 901.804688 C 851.515625 896.851562 851.503906 888.835938 856.453125 883.902344 C 861.402344 878.964844 869.417969 878.949219 874.355469 883.902344 Z M 874.355469 883.902344 " fill-opacity="1" fill-rule="nonzero"/><path fill="#4b4132" d="M 834.035156 907.875 C 838.847656 912.691406 838.847656 920.5 834.035156 925.3125 C 829.21875 930.128906 821.410156 930.128906 816.59375 925.3125 C 811.777344 920.5 811.777344 912.691406 816.59375 907.875 C 821.410156 903.058594 829.21875 903.058594 834.035156 907.875 Z M 834.035156 907.875 " fill-opacity="1" fill-rule="nonzero"/><path fill="#4b4132" d="M 788.789062 921.304688 C 793.335938 925.851562 793.335938 933.226562 788.789062 937.773438 C 784.246094 942.320312 776.871094 942.320312 772.324219 937.773438 C 767.777344 933.226562 767.777344 925.851562 772.324219 921.304688 C 776.871094 916.757812 784.246094 916.757812 788.789062 921.304688 Z M 788.789062 921.304688 " fill-opacity="1" fill-rule="nonzero"/><path fill="#4b4132" d="M 741.484375 923.503906 C 745.628906 927.648438 745.628906 934.363281 741.484375 938.492188 C 737.339844 942.632812 730.625 942.632812 726.5 938.492188 C 722.355469 934.347656 722.355469 927.632812 726.5 923.503906 C 730.640625 919.363281 737.355469 919.363281 741.484375 923.503906 Z M 741.484375 923.503906 " fill-opacity="1" fill-rule="nonzero"/><path fill="#4b4132" d="M 695.046875 914.335938 C 698.648438 917.941406 698.648438 923.789062 695.046875 927.394531 C 691.441406 930.996094 685.59375 930.996094 681.988281 927.394531 C 678.382812 923.789062 678.382812 917.941406 681.988281 914.335938 C 685.59375 910.730469 691.441406 910.730469 695.046875 914.335938 Z M 695.046875 914.335938 " fill-opacity="1" fill-rule="nonzero"/><path fill="#4b4132" d="M 652.421875 894.296875 C 655.410156 897.285156 655.410156 902.117188 652.421875 905.109375 C 649.429688 908.101562 644.597656 908.101562 641.605469 905.109375 C 638.617188 902.117188 638.617188 897.285156 641.605469 894.296875 C 644.597656 891.304688 649.429688 891.304688 652.421875 894.296875 Z M 652.421875 894.296875 " fill-opacity="1" fill-rule="nonzero"/><path fill="#4b4132" d="M 616.316406 864.621094 C 618.648438 866.957031 618.648438 870.753906 616.316406 873.085938 C 613.984375 875.421875 610.183594 875.421875 607.851562 873.085938 C 605.519531 870.753906 605.519531 866.957031 607.851562 864.621094 C 610.183594 862.289062 613.984375 862.289062 616.316406 864.621094 Z M 616.316406 864.621094 " fill-opacity="1" fill-rule="nonzero"/><path fill="#4b4132" d="M 588.933594 827.277344 C 590.621094 828.964844 590.621094 831.703125 588.933594 833.394531 C 587.242188 835.082031 584.503906 835.082031 582.816406 833.394531 C 581.125 831.703125 581.125 828.964844 582.816406 827.277344 C 584.503906 825.585938 587.242188 825.585938 588.933594 827.277344 Z M 588.933594 827.277344 " fill-opacity="1" fill-rule="nonzero"/><path fill="#4b4132" d="M 572.121094 784.488281 C 573.226562 785.59375 573.226562 787.386719 572.121094 788.496094 C 571.015625 789.601562 569.21875 789.601562 568.113281 788.496094 C 567.007812 787.386719 567.007812 785.59375 568.113281 784.488281 C 569.21875 783.378906 571.015625 783.378906 572.121094 784.488281 Z M 572.121094 784.488281 " fill-opacity="1" fill-rule="nonzero"/><path fill="#4b4132" d="M 566.917969 738.960938 C 567.542969 739.589844 567.542969 740.621094 566.917969 741.261719 C 566.289062 741.90625 565.257812 741.890625 564.628906 741.261719 C 564 740.636719 564 739.601562 564.628906 738.976562 C 565.257812 738.347656 566.289062 738.347656 566.917969 738.976562 Z M 566.917969 738.960938 " fill-opacity="1" fill-rule="nonzero"/><path fill="#4b4132" d="M 573.558594 693.566406 C 573.839844 693.851562 573.839844 694.316406 573.558594 694.601562 C 573.273438 694.882812 572.808594 694.882812 572.523438 694.601562 C 572.242188 694.316406 572.242188 693.851562 572.523438 693.566406 C 572.808594 693.285156 573.273438 693.285156 573.558594 693.566406 Z M 573.558594 693.566406 " fill-opacity="1" fill-rule="nonzero"/><path fill="#4b4132" d="M 591.667969 651.199219 C 591.667969 651.199219 591.742188 651.390625 591.667969 651.464844 C 591.59375 651.542969 591.472656 651.542969 591.398438 651.464844 C 591.324219 651.390625 591.324219 651.273438 591.398438 651.199219 C 591.472656 651.121094 591.59375 651.121094 591.667969 651.199219 Z M 591.667969 651.199219 " fill-opacity="1" fill-rule="nonzero"/><path fill="#4b4132" d="M 813.511719 517.921875 C 813.511719 518.042969 813.410156 518.148438 813.289062 518.148438 C 813.167969 518.148438 813.066406 518.042969 813.066406 517.921875 C 813.066406 517.804688 813.167969 517.699219 813.289062 517.699219 C 813.410156 517.699219 813.511719 517.804688 813.511719 517.921875 Z M 813.511719 517.921875 " fill-opacity="1" fill-rule="nonzero"/><path fill="#4b4132" d="M 868.328125 539.371094 C 868.328125 539.863281 867.925781 540.265625 867.429688 540.265625 C 866.9375 540.265625 866.53125 539.863281 866.53125 539.371094 C 866.53125 538.875 866.9375 538.472656 867.429688 538.472656 C 867.925781 538.472656 868.328125 538.875 868.328125 539.371094 Z M 868.328125 539.371094 " fill-opacity="1" fill-rule="nonzero"/><path fill="#4b4132" d="M 916.515625 573.632812 C 916.515625 574.742188 915.621094 575.640625 914.511719 575.640625 C 913.40625 575.640625 912.507812 574.742188 912.507812 573.632812 C 912.507812 572.527344 913.40625 571.628906 914.511719 571.628906 C 915.621094 571.628906 916.515625 572.527344 916.515625 573.632812 Z M 916.515625 573.632812 " fill-opacity="1" fill-rule="nonzero"/><path fill="#4b4132" d="M 955.148438 618.503906 C 955.148438 620.433594 953.578125 622.003906 951.648438 622.003906 C 949.71875 622.003906 948.148438 620.433594 948.148438 618.503906 C 948.148438 616.574219 949.71875 615.003906 951.648438 615.003906 C 953.578125 615.003906 955.148438 616.574219 955.148438 618.503906 Z M 955.148438 618.503906 " fill-opacity="1" fill-rule="nonzero"/><path fill="#4b4132" d="M 981.832031 671.179688 C 981.832031 674.125 979.4375 676.519531 976.492188 676.519531 C 973.542969 676.519531 971.152344 674.125 971.152344 671.179688 C 971.152344 668.234375 973.542969 665.839844 976.492188 665.839844 C 979.4375 665.839844 981.832031 668.234375 981.832031 671.179688 Z M 981.832031 671.179688 " fill-opacity="1" fill-rule="nonzero"/><path fill="#4b4132" d="M 994.738281 728.386719 C 994.738281 732.46875 991.417969 735.789062 987.335938 735.789062 C 983.25 735.789062 979.929688 732.46875 979.929688 728.386719 C 979.929688 724.304688 983.25 720.984375 987.335938 720.984375 C 991.417969 720.984375 994.738281 724.304688 994.738281 728.386719 Z M 994.738281 728.386719 " fill-opacity="1" fill-rule="nonzero"/><path fill="#4b4132" d="M 993.167969 786.519531 C 993.167969 791.742188 988.933594 795.988281 983.699219 795.988281 C 978.480469 795.988281 974.234375 791.753906 974.234375 786.519531 C 974.234375 781.285156 978.464844 777.054688 983.699219 777.054688 C 988.933594 777.054688 993.167969 781.285156 993.167969 786.519531 Z M 993.167969 786.519531 " fill-opacity="1" fill-rule="nonzero"/><path fill="#4b4132" d="M 977.164062 841.902344 C 977.164062 848.230469 972.035156 853.359375 965.707031 853.359375 C 959.382812 853.359375 954.25 848.230469 954.25 841.902344 C 954.25 835.578125 959.382812 830.445312 965.707031 830.445312 C 972.035156 830.445312 977.164062 835.578125 977.164062 841.902344 Z M 977.164062 841.902344 " fill-opacity="1" fill-rule="nonzero"/><path fill="#4b4132" d="M 947.625 891.050781 C 947.625 898.316406 941.734375 904.210938 934.464844 904.210938 C 927.195312 904.210938 921.300781 898.316406 921.300781 891.050781 C 921.300781 883.78125 927.195312 877.886719 934.464844 877.886719 C 941.734375 877.886719 947.625 883.78125 947.625 891.050781 Z M 947.625 891.050781 " fill-opacity="1" fill-rule="nonzero"/><path fill="#4b4132" d="M 906.511719 930.921875 C 906.511719 938.925781 900.019531 945.414062 892.019531 945.414062 C 884.015625 945.414062 877.527344 938.925781 877.527344 930.921875 C 877.527344 922.921875 884.015625 916.429688 892.019531 916.429688 C 900.019531 916.429688 906.511719 922.921875 906.511719 930.921875 Z M 906.511719 930.921875 " fill-opacity="1" fill-rule="nonzero"/><path fill="#4b4132" d="M 856.363281 959.011719 C 856.363281 967.503906 849.484375 974.386719 840.988281 974.386719 C 832.492188 974.386719 825.613281 967.503906 825.613281 959.011719 C 825.613281 950.515625 832.492188 943.636719 840.988281 943.636719 C 849.484375 943.636719 856.363281 950.515625 856.363281 959.011719 Z M 856.363281 959.011719 " fill-opacity="1" fill-rule="nonzero"/><path fill="#4b4132" d="M 800.398438 973.441406 C 800.398438 974.480469 800.296875 975.507812 800.09375 976.527344 C 799.890625 977.546875 799.589844 978.535156 799.195312 979.492188 C 798.796875 980.453125 798.308594 981.363281 797.734375 982.226562 C 797.15625 983.089844 796.5 983.886719 795.765625 984.621094 C 795.03125 985.355469 794.234375 986.011719 793.371094 986.585938 C 792.507812 987.164062 791.597656 987.652344 790.636719 988.046875 C 789.679688 988.445312 788.691406 988.746094 787.671875 988.949219 C 786.652344 989.152344 785.625 989.25 784.589844 989.25 C 783.550781 989.25 782.523438 989.152344 781.503906 988.949219 C 780.484375 988.746094 779.496094 988.445312 778.539062 988.046875 C 777.578125 987.652344 776.667969 987.164062 775.804688 986.585938 C 774.941406 986.011719 774.144531 985.355469 773.410156 984.621094 C 772.675781 983.886719 772.019531 983.089844 771.445312 982.226562 C 770.867188 981.363281 770.378906 980.453125 769.984375 979.492188 C 769.585938 978.535156 769.285156 977.546875 769.082031 976.527344 C 768.878906 975.507812 768.78125 974.480469 768.78125 973.441406 C 768.78125 972.40625 768.878906 971.375 769.082031 970.359375 C 769.285156 969.339844 769.585938 968.351562 769.984375 967.394531 C 770.378906 966.433594 770.867188 965.523438 771.445312 964.660156 C 772.019531 963.796875 772.675781 963 773.410156 962.265625 C 774.144531 961.53125 774.941406 960.875 775.804688 960.296875 C 776.667969 959.722656 777.578125 959.234375 778.539062 958.835938 C 779.496094 958.441406 780.484375 958.140625 781.503906 957.9375 C 782.523438 957.734375 783.550781 957.632812 784.589844 957.632812 C 785.625 957.632812 786.652344 957.734375 787.671875 957.9375 C 788.691406 958.140625 789.679688 958.441406 790.636719 958.835938 C 791.597656 959.234375 792.507812 959.722656 793.371094 960.296875 C 794.234375 960.875 795.03125 961.53125 795.765625 962.265625 C 796.5 963 797.15625 963.796875 797.734375 964.660156 C 798.308594 965.523438 798.796875 966.433594 799.195312 967.394531 C 799.589844 968.351562 799.890625 969.339844 800.09375 970.359375 C 800.296875 971.375 800.398438 972.40625 800.398438 973.441406 Z M 800.398438 973.441406 " fill-opacity="1" fill-rule="nonzero"/><path fill="#4b4132" d="M 742.171875 973.441406 C 742.171875 982.175781 735.082031 989.265625 726.347656 989.265625 C 717.613281 989.265625 710.523438 982.175781 710.523438 973.441406 C 710.523438 964.707031 717.613281 957.621094 726.347656 957.621094 C 735.082031 957.621094 742.171875 964.707031 742.171875 973.441406 Z M 742.171875 973.441406 " fill-opacity="1" fill-rule="nonzero"/><path fill="#4b4132" d="M 685.339844 958.996094 C 685.339844 967.503906 678.445312 974.398438 669.933594 974.398438 C 661.425781 974.398438 654.53125 967.503906 654.53125 958.996094 C 654.53125 950.484375 661.425781 943.589844 669.933594 943.589844 C 678.445312 943.589844 685.339844 950.484375 685.339844 958.996094 Z M 685.339844 958.996094 " fill-opacity="1" fill-rule="nonzero"/><path fill="#4b4132" d="M 633.484375 930.894531 C 633.484375 938.9375 626.964844 945.445312 618.933594 945.445312 C 610.902344 945.445312 604.382812 938.925781 604.382812 930.894531 C 604.382812 922.847656 610.902344 916.339844 618.933594 916.339844 C 626.964844 916.339844 633.484375 922.859375 633.484375 930.894531 Z M 633.484375 930.894531 " fill-opacity="1" fill-rule="nonzero"/><path fill="#4b4132" d="M 589.722656 891.003906 C 589.722656 898.316406 583.785156 904.253906 576.472656 904.253906 C 569.160156 904.253906 563.222656 898.316406 563.222656 891.003906 C 563.222656 883.691406 569.160156 877.753906 576.472656 877.753906 C 583.785156 877.753906 589.722656 883.691406 589.722656 891.003906 Z M 589.722656 891.003906 " fill-opacity="1" fill-rule="nonzero"/><path fill="#4b4132" d="M 556.789062 841.859375 C 556.789062 848.230469 551.617188 853.40625 545.246094 853.40625 C 538.875 853.40625 533.699219 848.230469 533.699219 841.859375 C 533.699219 835.488281 538.875 830.3125 545.246094 830.3125 C 551.617188 830.3125 556.789062 835.488281 556.789062 841.859375 Z M 556.789062 841.859375 " fill-opacity="1" fill-rule="nonzero"/><path fill="#4b4132" d="M 536.824219 786.460938 C 536.824219 791.742188 532.546875 796.019531 527.265625 796.019531 C 521.988281 796.019531 517.710938 791.742188 517.710938 786.460938 C 517.710938 781.179688 521.988281 776.902344 527.265625 776.902344 C 532.546875 776.902344 536.824219 781.179688 536.824219 786.460938 Z M 536.824219 786.460938 " fill-opacity="1" fill-rule="nonzero"/><path fill="#4b4132" d="M 531.140625 728.328125 C 531.140625 732.453125 527.789062 735.804688 523.664062 735.804688 C 519.535156 735.804688 516.183594 732.453125 516.183594 728.328125 C 516.183594 724.199219 519.535156 720.847656 523.664062 720.847656 C 527.789062 720.847656 531.140625 724.199219 531.140625 728.328125 Z M 531.140625 728.328125 " fill-opacity="1" fill-rule="nonzero"/><path fill="#4b4132" d="M 539.933594 671.117188 C 539.933594 674.109375 537.511719 676.53125 534.519531 676.53125 C 531.53125 676.53125 529.105469 674.109375 529.105469 671.117188 C 529.105469 668.128906 531.53125 665.703125 534.519531 665.703125 C 537.511719 665.703125 539.933594 668.128906 539.933594 671.117188 Z M 539.933594 671.117188 " fill-opacity="1" fill-rule="nonzero"/><path fill="#4b4132" d="M 562.894531 618.445312 C 562.894531 620.402344 561.308594 621.988281 559.347656 621.988281 C 557.390625 621.988281 555.804688 620.402344 555.804688 618.445312 C 555.804688 616.484375 557.390625 614.898438 559.347656 614.898438 C 561.308594 614.898438 562.894531 616.484375 562.894531 618.445312 Z M 562.894531 618.445312 " fill-opacity="1" fill-rule="nonzero"/><path fill="#4b4132" d="M 598.546875 573.589844 C 598.546875 574.710938 597.636719 575.625 596.515625 575.625 C 595.394531 575.625 594.480469 574.710938 594.480469 573.589844 C 594.480469 572.46875 595.394531 571.554688 596.515625 571.554688 C 597.636719 571.554688 598.546875 572.46875 598.546875 573.589844 Z M 598.546875 573.589844 " fill-opacity="1" fill-rule="nonzero"/><path fill="#4b4132" d="M 644.523438 539.339844 C 644.523438 539.847656 644.121094 540.253906 643.613281 540.253906 C 643.101562 540.253906 642.699219 539.847656 642.699219 539.339844 C 642.699219 538.832031 643.101562 538.429688 643.613281 538.429688 C 644.121094 538.429688 644.523438 538.832031 644.523438 539.339844 Z M 644.523438 539.339844 " fill-opacity="1" fill-rule="nonzero"/><path fill="#4b4132" d="M 697.992188 517.90625 C 697.992188 518.042969 697.886719 518.148438 697.753906 518.148438 C 697.617188 518.148438 697.511719 518.042969 697.511719 517.90625 C 697.511719 517.773438 697.617188 517.667969 697.753906 517.667969 C 697.886719 517.667969 697.992188 517.773438 697.992188 517.90625 Z M 697.992188 517.90625 " fill-opacity="1" fill-rule="nonzero"/><path fill="#4b4132" d="M 1011.878906 596.171875 C 1011.757812 596.292969 1011.578125 596.292969 1011.472656 596.171875 C 1011.367188 596.054688 1011.367188 595.875 1011.472656 595.769531 C 1011.578125 595.664062 1011.773438 595.648438 1011.878906 595.769531 C 1011.980469 595.890625 1011.996094 596.070312 1011.878906 596.171875 Z M 1011.878906 596.171875 " fill-opacity="1" fill-rule="nonzero"/><path fill="#4b4132" d="M 1041.371094 663.597656 C 1040.9375 664.03125 1040.21875 664.03125 1039.769531 663.597656 C 1039.320312 663.164062 1039.335938 662.445312 1039.769531 661.996094 C 1040.203125 661.546875 1040.921875 661.5625 1041.371094 661.996094 C 1041.820312 662.429688 1041.804688 663.148438 1041.371094 663.597656 Z M 1041.371094 663.597656 " fill-opacity="1" fill-rule="nonzero"/><path fill="#4b4132" d="M 1053.679688 736.476562 C 1052.707031 737.449219 1051.121094 737.449219 1050.136719 736.476562 C 1049.148438 735.503906 1049.164062 733.921875 1050.136719 732.933594 C 1051.105469 731.945312 1052.691406 731.960938 1053.679688 732.933594 C 1054.667969 733.90625 1054.652344 735.492188 1053.679688 736.476562 Z M 1053.679688 736.476562 " fill-opacity="1" fill-rule="nonzero"/><path fill="#4b4132" d="M 1048.175781 810.269531 C 1046.472656 811.976562 1043.703125 811.976562 1042 810.269531 C 1040.292969 808.566406 1040.292969 805.800781 1042 804.09375 C 1043.703125 802.390625 1046.472656 802.390625 1048.175781 804.09375 C 1049.882812 805.800781 1049.882812 808.566406 1048.175781 810.269531 Z M 1048.175781 810.269531 " fill-opacity="1" fill-rule="nonzero"/><path fill="#4b4132" d="M 1025.1875 880.414062 C 1022.585938 883.019531 1018.351562 883.019531 1015.734375 880.414062 C 1013.117188 877.8125 1013.117188 873.582031 1015.734375 870.964844 C 1018.351562 868.347656 1022.570312 868.359375 1025.1875 870.964844 C 1027.789062 873.566406 1027.789062 877.796875 1025.1875 880.414062 Z M 1025.1875 880.414062 " fill-opacity="1" fill-rule="nonzero"/><path fill="#4b4132" d="M 986.03125 942.394531 C 982.414062 946.011719 976.566406 946.011719 972.945312 942.394531 C 969.328125 938.773438 969.328125 932.925781 972.945312 929.308594 C 976.566406 925.6875 982.414062 925.6875 986.03125 929.308594 C 989.652344 932.925781 989.652344 938.773438 986.03125 942.394531 Z M 986.03125 942.394531 " fill-opacity="1" fill-rule="nonzero"/><path fill="#4b4132" d="M 933.269531 992.378906 C 928.644531 997 921.167969 997 916.546875 992.378906 C 911.925781 987.757812 911.925781 980.277344 916.546875 975.65625 C 921.167969 971.035156 928.644531 971.035156 933.269531 975.65625 C 937.890625 980.277344 937.890625 987.757812 933.269531 992.378906 Z M 933.269531 992.378906 " fill-opacity="1" fill-rule="nonzero"/><path fill="#4b4132" d="M 870.167969 1027.195312 C 864.574219 1032.789062 855.511719 1032.789062 849.917969 1027.195312 C 844.324219 1021.601562 844.324219 1012.539062 849.917969 1006.945312 C 855.511719 1001.351562 864.574219 1001.351562 870.167969 1006.945312 C 875.761719 1012.539062 875.761719 1021.601562 870.167969 1027.195312 Z M 870.167969 1027.195312 " fill-opacity="1" fill-rule="nonzero"/><path fill="#4b4132" d="M 800.605469 1044.53125 C 794.191406 1050.945312 783.765625 1050.945312 777.347656 1044.53125 C 770.933594 1038.113281 770.933594 1027.6875 777.347656 1021.273438 C 783.765625 1014.855469 794.191406 1014.855469 800.605469 1021.273438 C 807.023438 1027.6875 807.023438 1038.113281 800.605469 1044.53125 Z M 800.605469 1044.53125 " fill-opacity="1" fill-rule="nonzero"/><path fill="#4b4132" d="M 729.027344 1043.421875 C 721.953125 1050.496094 710.480469 1050.496094 703.40625 1043.421875 C 696.332031 1036.347656 696.332031 1024.878906 703.40625 1017.804688 C 710.480469 1010.730469 721.953125 1010.730469 729.027344 1017.804688 C 736.101562 1024.878906 736.101562 1036.347656 729.027344 1043.421875 Z M 729.027344 1043.421875 " fill-opacity="1" fill-rule="nonzero"/><path fill="#4b4132" d="M 659.882812 1023.933594 C 652.375 1031.441406 640.214844 1031.441406 632.707031 1023.933594 C 625.199219 1016.425781 625.199219 1004.269531 632.707031 996.757812 C 640.214844 989.25 652.375 989.25 659.882812 996.757812 C 667.390625 1004.269531 667.390625 1016.425781 659.882812 1023.933594 Z M 659.882812 1023.933594 " fill-opacity="1" fill-rule="nonzero"/><path fill="#4b4132" d="M 603.4375 973.25 C 603.4375 973.894531 603.40625 974.542969 603.34375 975.183594 C 603.28125 975.828125 603.1875 976.46875 603.058594 977.101562 C 602.933594 977.738281 602.777344 978.363281 602.589844 978.984375 C 602.402344 979.601562 602.183594 980.210938 601.933594 980.808594 C 601.6875 981.40625 601.410156 981.992188 601.105469 982.5625 C 600.800781 983.132812 600.46875 983.6875 600.109375 984.226562 C 599.75 984.761719 599.363281 985.28125 598.953125 985.78125 C 598.542969 986.28125 598.109375 986.761719 597.652344 987.21875 C 597.195312 987.675781 596.714844 988.109375 596.214844 988.519531 C 595.714844 988.929688 595.195312 989.316406 594.660156 989.675781 C 594.121094 990.035156 593.566406 990.367188 592.996094 990.671875 C 592.425781 990.976562 591.839844 991.253906 591.242188 991.5 C 590.644531 991.75 590.035156 991.96875 589.417969 992.15625 C 588.796875 992.34375 588.171875 992.5 587.535156 992.625 C 586.902344 992.753906 586.261719 992.847656 585.617188 992.910156 C 584.976562 992.972656 584.328125 993.003906 583.683594 993.003906 C 583.035156 993.003906 582.390625 992.972656 581.746094 992.910156 C 581.101562 992.847656 580.460938 992.753906 579.828125 992.625 C 579.191406 992.5 578.566406 992.34375 577.945312 992.15625 C 577.328125 991.96875 576.71875 991.75 576.121094 991.5 C 575.523438 991.253906 574.9375 990.976562 574.367188 990.671875 C 573.796875 990.367188 573.242188 990.035156 572.707031 989.675781 C 572.167969 989.316406 571.648438 988.929688 571.148438 988.519531 C 570.648438 988.109375 570.167969 987.675781 569.710938 987.21875 C 569.253906 986.761719 568.820312 986.28125 568.410156 985.78125 C 568 985.28125 567.613281 984.761719 567.253906 984.226562 C 566.894531 983.6875 566.5625 983.132812 566.257812 982.5625 C 565.953125 981.992188 565.675781 981.40625 565.429688 980.808594 C 565.179688 980.210938 564.964844 979.601562 564.777344 978.984375 C 564.585938 978.363281 564.429688 977.738281 564.304688 977.101562 C 564.179688 976.46875 564.082031 975.828125 564.019531 975.183594 C 563.957031 974.542969 563.925781 973.894531 563.925781 973.25 C 563.925781 972.601562 563.957031 971.957031 564.019531 971.3125 C 564.082031 970.667969 564.179688 970.027344 564.304688 969.394531 C 564.429688 968.757812 564.585938 968.132812 564.777344 967.511719 C 564.964844 966.894531 565.179688 966.285156 565.429688 965.6875 C 565.675781 965.089844 565.953125 964.503906 566.257812 963.933594 C 566.5625 963.363281 566.894531 962.808594 567.253906 962.273438 C 567.613281 961.734375 568 961.214844 568.410156 960.714844 C 568.820312 960.214844 569.253906 959.734375 569.710938 959.277344 C 570.167969 958.820312 570.648438 958.386719 571.148438 957.976562 C 571.648438 957.566406 572.167969 957.179688 572.707031 956.820312 C 573.242188 956.460938 573.796875 956.128906 574.367188 955.824219 C 574.9375 955.519531 575.523438 955.242188 576.121094 954.996094 C 576.71875 954.746094 577.328125 954.53125 577.945312 954.34375 C 578.566406 954.15625 579.191406 953.996094 579.828125 953.871094 C 580.460938 953.746094 581.101562 953.648438 581.746094 953.585938 C 582.390625 953.523438 583.035156 953.492188 583.683594 953.492188 C 584.328125 953.492188 584.976562 953.523438 585.617188 953.585938 C 586.261719 953.648438 586.902344 953.746094 587.535156 953.871094 C 588.171875 953.996094 588.796875 954.15625 589.417969 954.34375 C 590.035156 954.53125 590.644531 954.746094 591.242188 954.996094 C 591.839844 955.242188 592.425781 955.519531 592.996094 955.824219 C 593.566406 956.128906 594.121094 956.460938 594.660156 956.820312 C 595.195312 957.179688 595.714844 957.566406 596.214844 957.976562 C 596.714844 958.386719 597.195312 958.820312 597.652344 959.277344 C 598.109375 959.734375 598.542969 960.214844 598.953125 960.714844 C 599.363281 961.214844 599.75 961.734375 600.109375 962.273438 C 600.46875 962.808594 600.800781 963.363281 601.105469 963.933594 C 601.410156 964.503906 601.6875 965.089844 601.933594 965.6875 C 602.183594 966.285156 602.402344 966.894531 602.589844 967.511719 C 602.777344 968.132812 602.933594 968.757812 603.058594 969.394531 C 603.1875 970.027344 603.28125 970.667969 603.34375 971.3125 C 603.40625 971.957031 603.4375 972.601562 603.4375 973.25 Z M 603.4375 973.25 " fill-opacity="1" fill-rule="nonzero"/><path fill="#4b4132" d="M 546.1875 935.753906 C 538.453125 943.484375 525.9375 943.484375 518.203125 935.753906 C 510.472656 928.019531 510.472656 915.503906 518.203125 907.769531 C 525.9375 900.039062 538.453125 900.039062 546.1875 907.769531 C 553.917969 915.503906 553.917969 928.019531 546.1875 935.753906 Z M 546.1875 935.753906 " fill-opacity="1" fill-rule="nonzero"/><path fill="#4b4132" d="M 508.738281 872.757812 C 501.214844 880.28125 489.007812 880.28125 481.488281 872.757812 C 473.964844 865.234375 473.964844 853.03125 481.488281 845.507812 C 489.007812 837.984375 501.214844 837.984375 508.738281 845.507812 C 516.257812 853.03125 516.257812 865.234375 508.738281 872.757812 Z M 508.738281 872.757812 " fill-opacity="1" fill-rule="nonzero"/><path fill="#4b4132" d="M 487.738281 802.074219 C 480.632812 809.179688 469.101562 809.179688 462 802.074219 C 454.894531 794.972656 454.894531 783.441406 462 776.335938 C 469.101562 769.230469 480.632812 769.230469 487.738281 776.335938 C 494.84375 783.441406 494.84375 794.972656 487.738281 802.074219 Z M 487.738281 802.074219 " fill-opacity="1" fill-rule="nonzero"/><path fill="#4b4132" d="M 484.3125 728.148438 C 477.851562 734.609375 467.351562 734.609375 460.890625 728.148438 C 454.429688 721.6875 454.429688 711.1875 460.890625 704.726562 C 467.351562 698.265625 477.851562 698.265625 484.3125 704.726562 C 490.773438 711.1875 490.773438 721.6875 484.3125 728.148438 Z M 484.3125 728.148438 " fill-opacity="1" fill-rule="nonzero"/><path fill="#4b4132" d="M 498.640625 655.59375 C 493.003906 661.234375 483.863281 661.234375 478.226562 655.59375 C 472.585938 649.957031 472.585938 640.816406 478.226562 635.179688 C 483.863281 629.539062 493.003906 629.539062 498.640625 635.179688 C 504.28125 640.816406 504.28125 649.957031 498.640625 655.59375 Z M 498.640625 655.59375 " fill-opacity="1" fill-rule="nonzero"/><path fill="#4b4132" d="M 529.960938 588.980469 C 525.292969 593.644531 517.742188 593.644531 513.074219 588.980469 C 508.40625 584.3125 508.40625 576.761719 513.074219 572.09375 C 517.742188 567.429688 525.292969 567.429688 529.960938 572.09375 C 534.625 576.761719 534.625 584.3125 529.960938 588.980469 Z M 529.960938 588.980469 " fill-opacity="1" fill-rule="nonzero"/><path fill="#4b4132" d="M 576.308594 532.578125 C 572.660156 536.230469 566.738281 536.230469 563.085938 532.578125 C 559.4375 528.929688 559.4375 523.007812 563.085938 519.359375 C 566.738281 515.710938 572.660156 515.710938 576.308594 519.359375 C 579.957031 523.007812 579.957031 528.929688 576.308594 532.578125 Z M 576.308594 532.578125 " fill-opacity="1" fill-rule="nonzero"/><path fill="#4b4132" d="M 634.667969 489.777344 C 632.019531 492.421875 627.742188 492.421875 625.097656 489.777344 C 622.449219 487.128906 622.449219 482.851562 625.097656 480.203125 C 627.742188 477.554688 632.019531 477.554688 634.667969 480.203125 C 637.316406 482.851562 637.316406 487.128906 634.667969 489.777344 Z M 634.667969 489.777344 " fill-opacity="1" fill-rule="nonzero"/><path fill="#4b4132" d="M 701.523438 463.527344 C 699.785156 465.261719 696.988281 465.261719 695.269531 463.527344 C 693.550781 461.792969 693.535156 458.996094 695.269531 457.277344 C 697.003906 455.539062 699.800781 455.554688 701.523438 457.277344 C 703.242188 458.996094 703.242188 461.808594 701.523438 463.527344 Z M 701.523438 463.527344 " fill-opacity="1" fill-rule="nonzero"/><path fill="#4b4132" d="M 772.667969 455.390625 C 771.679688 456.378906 770.066406 456.378906 769.078125 455.390625 C 768.089844 454.402344 768.089844 452.789062 769.078125 451.800781 C 770.066406 450.816406 771.679688 450.816406 772.667969 451.800781 C 773.65625 452.789062 773.65625 454.402344 772.667969 455.390625 Z M 772.667969 455.390625 " fill-opacity="1" fill-rule="nonzero"/><path fill="#4b4132" d="M 843.589844 465.757812 C 843.140625 466.203125 842.421875 466.203125 841.976562 465.757812 C 841.527344 465.308594 841.527344 464.589844 841.976562 464.140625 C 842.421875 463.691406 843.140625 463.691406 843.589844 464.140625 C 844.039062 464.589844 844.039062 465.308594 843.589844 465.757812 Z M 843.589844 465.757812 " fill-opacity="1" fill-rule="nonzero"/><path fill="#4b4132" d="M 909.785156 494.066406 C 909.667969 494.1875 909.488281 494.1875 909.367188 494.066406 C 909.246094 493.949219 909.246094 493.769531 909.367188 493.648438 C 909.488281 493.53125 909.667969 493.53125 909.785156 493.648438 C 909.90625 493.769531 909.90625 493.949219 909.785156 494.066406 Z M 909.785156 494.066406 " fill-opacity="1" fill-rule="nonzero"/><g clip-path="url(#98ef21c812)"><path fill="#4b4132" d="M 1118.035156 840.675781 C 1117.839844 840.675781 1117.675781 840.511719 1117.675781 840.316406 C 1117.675781 840.125 1117.839844 839.960938 1118.035156 839.960938 C 1118.230469 839.960938 1118.394531 840.125 1118.394531 840.316406 C 1118.394531 840.511719 1118.230469 840.675781 1118.035156 840.675781 Z M 1118.035156 840.675781 " fill-opacity="1" fill-rule="nonzero"/></g><path fill="#4b4132" d="M 1084.519531 926.332031 C 1083.742188 926.332031 1083.113281 925.703125 1083.113281 924.925781 C 1083.113281 924.148438 1083.742188 923.519531 1084.519531 923.519531 C 1085.296875 923.519531 1085.925781 924.148438 1085.925781 924.925781 C 1085.925781 925.703125 1085.296875 926.332031 1084.519531 926.332031 Z M 1084.519531 926.332031 " fill-opacity="1" fill-rule="nonzero"/><path fill="#4b4132" d="M 1030.976562 1001.636719 C 1029.242188 1001.636719 1027.851562 1000.230469 1027.851562 998.507812 C 1027.851562 996.789062 1029.257812 995.382812 1030.976562 995.382812 C 1032.695312 995.382812 1034.101562 996.789062 1034.101562 998.507812 C 1034.101562 1000.230469 1032.695312 1001.636719 1030.976562 1001.636719 Z M 1030.976562 1001.636719 " fill-opacity="1" fill-rule="nonzero"/><path fill="#4b4132" d="M 960.875 1062 C 957.855469 1062 955.417969 1059.546875 955.417969 1056.539062 C 955.417969 1053.535156 957.871094 1051.082031 960.875 1051.082031 C 963.882812 1051.082031 966.335938 1053.535156 966.335938 1056.539062 C 966.335938 1059.546875 963.882812 1062 960.875 1062 Z M 960.875 1062 " fill-opacity="1" fill-rule="nonzero"/><path fill="#4b4132" d="M 878.574219 1103.679688 C 873.964844 1103.679688 870.210938 1099.941406 870.210938 1095.335938 C 870.210938 1090.730469 873.953125 1086.976562 878.574219 1086.976562 C 883.195312 1086.976562 886.933594 1090.714844 886.933594 1095.335938 C 886.933594 1099.957031 883.195312 1103.679688 878.574219 1103.679688 Z M 878.574219 1103.679688 " fill-opacity="1" fill-rule="nonzero"/><g clip-path="url(#008ed9e1a4)"><path fill="#4b4132" d="M 789.179688 1123.84375 C 782.792969 1123.84375 777.617188 1118.667969 777.617188 1112.28125 C 777.617188 1105.894531 782.792969 1100.71875 789.179688 1100.71875 C 795.566406 1100.71875 800.742188 1105.894531 800.742188 1112.28125 C 800.742188 1118.667969 795.566406 1123.84375 789.179688 1123.84375 Z M 789.179688 1123.84375 " fill-opacity="1" fill-rule="nonzero"/></g><path fill="#4b4132" d="M 698.351562 1121.40625 C 690.183594 1121.40625 683.574219 1114.777344 683.574219 1106.628906 C 683.574219 1098.476562 690.199219 1091.851562 698.351562 1091.851562 C 706.503906 1091.851562 713.128906 1098.460938 713.128906 1106.628906 C 713.128906 1114.792969 706.515625 1121.40625 698.351562 1121.40625 Z M 698.351562 1121.40625 " fill-opacity="1" fill-rule="nonzero"/><path fill="#4b4132" d="M 611.800781 1096.398438 C 601.914062 1096.398438 593.910156 1088.382812 593.910156 1078.511719 C 593.910156 1068.640625 601.929688 1060.621094 611.800781 1060.621094 C 621.671875 1060.621094 629.6875 1068.640625 629.6875 1078.511719 C 629.6875 1088.382812 621.671875 1096.398438 611.800781 1096.398438 Z M 611.800781 1096.398438 " fill-opacity="1" fill-rule="nonzero"/><path fill="#4b4132" d="M 535.015625 1050.242188 C 523.664062 1050.242188 514.449219 1041.046875 514.449219 1029.679688 C 514.449219 1018.3125 523.648438 1009.113281 535.015625 1009.113281 C 546.382812 1009.113281 555.578125 1018.3125 555.578125 1029.679688 C 555.578125 1041.046875 546.382812 1050.242188 535.015625 1050.242188 Z M 535.015625 1050.242188 " fill-opacity="1" fill-rule="nonzero"/><path fill="#4b4132" d="M 472.722656 985.992188 C 460.21875 985.992188 450.078125 975.851562 450.078125 963.347656 C 450.078125 950.84375 460.21875 940.703125 472.722656 940.703125 C 485.226562 940.703125 495.367188 950.84375 495.367188 963.347656 C 495.367188 975.851562 485.226562 985.992188 472.722656 985.992188 Z M 472.722656 985.992188 " fill-opacity="1" fill-rule="nonzero"/><path fill="#4b4132" d="M 428.824219 907.652344 C 415.558594 907.652344 404.804688 896.898438 404.804688 883.632812 C 404.804688 870.363281 415.558594 859.613281 428.824219 859.613281 C 442.09375 859.613281 452.84375 870.363281 452.84375 883.632812 C 452.84375 896.898438 442.09375 907.652344 428.824219 907.652344 Z M 428.824219 907.652344 " fill-opacity="1" fill-rule="nonzero"/><g clip-path="url(#29d4701e89)"><path fill="#4b4132" d="M 430.980469 795.496094 C 430.980469 796.304688 430.941406 797.109375 430.859375 797.917969 C 430.78125 798.722656 430.664062 799.519531 430.503906 800.316406 C 430.347656 801.109375 430.152344 801.890625 429.914062 802.667969 C 429.679688 803.441406 429.410156 804.203125 429.097656 804.949219 C 428.789062 805.699219 428.445312 806.429688 428.0625 807.140625 C 427.679688 807.855469 427.265625 808.546875 426.816406 809.222656 C 426.367188 809.894531 425.882812 810.542969 425.371094 811.167969 C 424.859375 811.792969 424.316406 812.394531 423.742188 812.964844 C 423.171875 813.539062 422.570312 814.082031 421.945312 814.59375 C 421.320312 815.105469 420.671875 815.589844 420 816.039062 C 419.324219 816.488281 418.632812 816.902344 417.917969 817.285156 C 417.207031 817.667969 416.476562 818.011719 415.726562 818.320312 C 414.980469 818.632812 414.21875 818.902344 413.445312 819.136719 C 412.667969 819.375 411.886719 819.570312 411.09375 819.726562 C 410.296875 819.886719 409.5 820.003906 408.695312 820.082031 C 407.886719 820.164062 407.082031 820.203125 406.273438 820.203125 C 405.460938 820.203125 404.65625 820.164062 403.851562 820.082031 C 403.042969 820.003906 402.246094 819.886719 401.453125 819.726562 C 400.65625 819.570312 399.875 819.375 399.101562 819.136719 C 398.324219 818.902344 397.5625 818.632812 396.816406 818.320312 C 396.070312 818.011719 395.339844 817.667969 394.625 817.285156 C 393.910156 816.902344 393.21875 816.488281 392.546875 816.039062 C 391.871094 815.589844 391.222656 815.105469 390.597656 814.59375 C 389.972656 814.082031 389.375 813.539062 388.800781 812.964844 C 388.230469 812.394531 387.6875 811.792969 387.171875 811.167969 C 386.660156 810.542969 386.179688 809.894531 385.726562 809.222656 C 385.277344 808.546875 384.863281 807.855469 384.480469 807.140625 C 384.101562 806.429688 383.753906 805.699219 383.445312 804.949219 C 383.136719 804.203125 382.863281 803.441406 382.628906 802.667969 C 382.394531 801.890625 382.195312 801.109375 382.039062 800.316406 C 381.882812 799.519531 381.761719 798.722656 381.683594 797.917969 C 381.605469 797.109375 381.5625 796.304688 381.5625 795.496094 C 381.5625 794.683594 381.605469 793.878906 381.683594 793.074219 C 381.761719 792.265625 381.882812 791.46875 382.039062 790.675781 C 382.195312 789.878906 382.394531 789.097656 382.628906 788.324219 C 382.863281 787.546875 383.136719 786.785156 383.445312 786.039062 C 383.753906 785.292969 384.101562 784.5625 384.480469 783.847656 C 384.863281 783.132812 385.277344 782.441406 385.726562 781.769531 C 386.179688 781.09375 386.660156 780.445312 387.171875 779.820312 C 387.6875 779.195312 388.230469 778.597656 388.800781 778.023438 C 389.375 777.453125 389.972656 776.910156 390.597656 776.394531 C 391.222656 775.882812 391.871094 775.402344 392.546875 774.949219 C 393.21875 774.5 393.910156 774.085938 394.625 773.703125 C 395.339844 773.324219 396.070312 772.976562 396.816406 772.667969 C 397.5625 772.359375 398.324219 772.085938 399.101562 771.851562 C 399.875 771.617188 400.65625 771.417969 401.453125 771.261719 C 402.246094 771.105469 403.042969 770.984375 403.851562 770.90625 C 404.65625 770.828125 405.460938 770.785156 406.273438 770.785156 C 407.082031 770.785156 407.886719 770.828125 408.695312 770.90625 C 409.5 770.984375 410.296875 771.105469 411.09375 771.261719 C 411.886719 771.417969 412.667969 771.617188 413.445312 771.851562 C 414.21875 772.085938 414.980469 772.359375 415.726562 772.667969 C 416.476562 772.976562 417.207031 773.324219 417.917969 773.703125 C 418.632812 774.085938 419.324219 774.5 420 774.949219 C 420.671875 775.402344 421.320312 775.882812 421.945312 776.394531 C 422.570312 776.910156 423.171875 777.453125 423.742188 778.023438 C 424.316406 778.597656 424.859375 779.195312 425.371094 779.820312 C 425.882812 780.445312 426.367188 781.09375 426.816406 781.769531 C 427.265625 782.441406 427.679688 783.132812 428.0625 783.847656 C 428.445312 784.5625 428.789062 785.292969 429.097656 786.039062 C 429.410156 786.785156 429.679688 787.546875 429.914062 788.324219 C 430.152344 789.097656 430.347656 789.878906 430.503906 790.675781 C 430.664062 791.46875 430.78125 792.265625 430.859375 793.074219 C 430.941406 793.878906 430.980469 794.683594 430.980469 795.496094 Z M 430.980469 795.496094 " fill-opacity="1" fill-rule="nonzero"/></g><g clip-path="url(#ab64f41fa9)"><path fill="#4b4132" d="M 406.273438 729.222656 C 392.617188 729.222656 381.550781 718.15625 381.550781 704.5 C 381.550781 690.847656 392.617188 679.777344 406.273438 679.777344 C 419.925781 679.777344 430.996094 690.847656 430.996094 704.5 C 430.996094 718.15625 419.925781 729.222656 406.273438 729.222656 Z M 406.273438 729.222656 " fill-opacity="1" fill-rule="nonzero"/></g><path fill="#4b4132" d="M 428.855469 640.429688 C 415.558594 640.429688 404.777344 629.644531 404.777344 616.347656 C 404.777344 603.054688 415.558594 592.269531 428.855469 592.269531 C 442.152344 592.269531 452.933594 603.054688 452.933594 616.347656 C 452.933594 629.644531 442.152344 640.429688 428.855469 640.429688 Z M 428.855469 640.429688 " fill-opacity="1" fill-rule="nonzero"/><path fill="#4b4132" d="M 472.765625 559.382812 C 460.203125 559.382812 450.019531 549.195312 450.019531 536.632812 C 450.019531 524.070312 460.203125 513.886719 472.765625 513.886719 C 485.332031 513.886719 495.515625 524.070312 495.515625 536.632812 C 495.515625 549.195312 485.332031 559.382812 472.765625 559.382812 Z M 472.765625 559.382812 " fill-opacity="1" fill-rule="nonzero"/><path fill="#4b4132" d="M 535.089844 491.03125 C 523.648438 491.03125 514.390625 481.757812 514.390625 470.332031 C 514.390625 458.90625 523.664062 449.632812 535.089844 449.632812 C 546.515625 449.632812 555.789062 458.90625 555.789062 470.332031 C 555.789062 481.757812 546.515625 491.03125 535.089844 491.03125 Z M 535.089844 491.03125 " fill-opacity="1" fill-rule="nonzero"/><path fill="#4b4132" d="M 611.890625 439.550781 C 601.929688 439.550781 593.851562 431.476562 593.851562 421.515625 C 593.851562 411.554688 601.929688 403.476562 611.890625 403.476562 C 621.851562 403.476562 629.925781 411.554688 629.925781 421.515625 C 629.925781 431.476562 621.851562 439.550781 611.890625 439.550781 Z M 611.890625 439.550781 " fill-opacity="1" fill-rule="nonzero"/><path fill="#4b4132" d="M 698.441406 408.355469 C 690.199219 408.355469 683.515625 401.667969 683.515625 393.429688 C 683.515625 385.1875 690.199219 378.5 698.441406 378.5 C 706.679688 378.5 713.367188 385.1875 713.367188 393.429688 C 713.367188 401.667969 706.679688 408.355469 698.441406 408.355469 Z M 698.441406 408.355469 " fill-opacity="1" fill-rule="nonzero"/><g clip-path="url(#28f8a9b35a)"><path fill="#4b4132" d="M 789.269531 399.46875 C 782.808594 399.46875 777.574219 394.234375 777.574219 387.773438 C 777.574219 381.3125 782.808594 376.078125 789.269531 376.078125 C 795.730469 376.078125 800.964844 381.3125 800.964844 387.773438 C 800.964844 394.234375 795.730469 399.46875 789.269531 399.46875 Z M 789.269531 399.46875 " fill-opacity="1" fill-rule="nonzero"/></g><path fill="#4b4132" d="M 878.664062 413.230469 C 873.996094 413.230469 870.210938 409.445312 870.210938 404.78125 C 870.210938 400.113281 873.996094 396.328125 878.664062 396.328125 C 883.328125 396.328125 887.113281 400.113281 887.113281 404.78125 C 887.113281 409.445312 883.328125 413.230469 878.664062 413.230469 Z M 878.664062 413.230469 " fill-opacity="1" fill-rule="nonzero"/><path fill="#4b4132" d="M 960.964844 449.109375 C 957.914062 449.109375 955.433594 446.640625 955.433594 443.574219 C 955.433594 440.511719 957.914062 438.042969 960.964844 438.042969 C 964.015625 438.042969 966.5 440.523438 966.5 443.574219 C 966.5 446.628906 964.015625 449.109375 960.964844 449.109375 Z M 960.964844 449.109375 " fill-opacity="1" fill-rule="nonzero"/><path fill="#4b4132" d="M 1031.050781 504.804688 C 1029.300781 504.804688 1027.878906 503.386719 1027.878906 501.636719 C 1027.878906 499.886719 1029.300781 498.464844 1031.050781 498.464844 C 1032.800781 498.464844 1034.222656 499.886719 1034.222656 501.636719 C 1034.222656 503.386719 1032.800781 504.804688 1031.050781 504.804688 Z M 1031.050781 504.804688 " fill-opacity="1" fill-rule="nonzero"/><path fill="#4b4132" d="M 1084.5625 576.65625 C 1083.773438 576.65625 1083.144531 576.011719 1083.144531 575.234375 C 1083.144531 574.457031 1083.785156 573.800781 1084.5625 573.800781 C 1085.34375 573.800781 1086 574.441406 1086 575.234375 C 1086 576.027344 1085.355469 576.65625 1084.5625 576.65625 Z M 1084.5625 576.65625 " fill-opacity="1" fill-rule="nonzero"/><g clip-path="url(#81359a5d16)"><path fill="#4b4132" d="M 1118.066406 660.199219 C 1117.871094 660.199219 1117.707031 660.035156 1117.707031 659.84375 C 1117.707031 659.648438 1117.871094 659.484375 1118.066406 659.484375 C 1118.261719 659.484375 1118.425781 659.648438 1118.425781 659.84375 C 1118.425781 660.035156 1118.261719 660.199219 1118.066406 660.199219 Z M 1118.066406 660.199219 " fill-opacity="1" fill-rule="nonzero"/></g></svg>