<svg xmlns="http://www.w3.org/2000/svg" xmlns:xlink="http://www.w3.org/1999/xlink" width="2000" zoomAndPan="magnify" viewBox="0 0 1500 1499.999933" height="2000" preserveAspectRatio="xMidYMid meet" version="1.0"><defs><clipPath id="fb0d75fb66"><path d="M 0.453125 0.453125 L 1157.546875 0.453125 L 1157.546875 1157.546875 L 0.453125 1157.546875 Z M 0.453125 0.453125 " clip-rule="nonzero"/></clipPath><clipPath id="4806f1dd5d"><path d="M 70.953125 0.453125 L 1087.046875 0.453125 C 1125.984375 0.453125 1157.546875 32.015625 1157.546875 70.953125 L 1157.546875 1087.046875 C 1157.546875 1125.984375 1125.984375 1157.546875 1087.046875 1157.546875 L 70.953125 1157.546875 C 32.015625 1157.546875 0.453125 1125.984375 0.453125 1087.046875 L 0.453125 70.953125 C 0.453125 32.015625 32.015625 0.453125 70.953125 0.453125 Z M 70.953125 0.453125 " clip-rule="nonzero"/></clipPath><clipPath id="17c9b40792"><path d="M 0.453125 0.453125 L 1157.546875 0.453125 L 1157.546875 1157.546875 L 0.453125 1157.546875 Z M 0.453125 0.453125 " clip-rule="nonzero"/></clipPath><clipPath id="779bfe7b8f"><path d="M 70.953125 0.453125 L 1087.046875 0.453125 C 1125.984375 0.453125 1157.546875 32.015625 1157.546875 70.953125 L 1157.546875 1087.046875 C 1157.546875 1125.984375 1125.984375 1157.546875 1087.046875 1157.546875 L 70.953125 1157.546875 C 32.015625 1157.546875 0.453125 1125.984375 0.453125 1087.046875 L 0.453125 70.953125 C 0.453125 32.015625 32.015625 0.453125 70.953125 0.453125 Z M 70.953125 0.453125 " clip-rule="nonzero"/></clipPath><clipPath id="4739fd297c"><rect x="0" width="1158" y="0" height="1158"/></clipPath><clipPath id="1dddb8b5b4"><path d="M 624 994 L 652 994 L 652 1022.316406 L 624 1022.316406 Z M 624 994 " clip-rule="nonzero"/></clipPath><clipPath id="7b887d3799"><path d="M 624 135.855469 L 653 135.855469 L 653 164 L 624 164 Z M 624 135.855469 " clip-rule="nonzero"/></clipPath><clipPath id="72f202372d"><rect x="0" width="1158" y="0" height="1158"/></clipPath></defs><g transform="matrix(1, 0, 0, 1, 171, 171)"><g clip-path="url(#72f202372d)"><g clip-path="url(#fb0d75fb66)"><g clip-path="url(#4806f1dd5d)"><g transform="matrix(1, 0, 0, 1, 0, 0.000000000000113687)"><g clip-path="url(#4739fd297c)"><g clip-path="url(#17c9b40792)"><g clip-path="url(#779bfe7b8f)"><path fill="#4b4132" d="M 0.453125 0.453125 L 1157.546875 0.453125 L 1157.546875 1157.546875 L 0.453125 1157.546875 Z M 0.453125 0.453125 " fill-opacity="1" fill-rule="nonzero"/></g></g></g></g></g></g><path fill="#dde6e6" d="M 473.730469 653.625 C 473.730469 653.625 473.875 653.570312 473.925781 653.625 C 473.980469 653.675781 473.980469 653.765625 473.925781 653.820312 C 473.875 653.871094 473.785156 653.871094 473.730469 653.820312 C 473.679688 653.765625 473.679688 653.675781 473.730469 653.625 Z M 473.730469 653.625 " fill-opacity="1" fill-rule="nonzero"/><path fill="#dde6e6" d="M 459.425781 620.902344 C 459.640625 620.6875 459.996094 620.6875 460.207031 620.902344 C 460.421875 621.113281 460.421875 621.46875 460.207031 621.683594 C 459.996094 621.894531 459.640625 621.894531 459.425781 621.683594 C 459.214844 621.46875 459.214844 621.113281 459.425781 620.902344 Z M 459.425781 620.902344 " fill-opacity="1" fill-rule="nonzero"/><path fill="#dde6e6" d="M 453.453125 585.519531 C 453.933594 585.042969 454.695312 585.042969 455.171875 585.519531 C 455.652344 586 455.652344 586.761719 455.171875 587.242188 C 454.695312 587.71875 453.933594 587.71875 453.453125 587.242188 C 452.976562 586.761719 452.976562 586 453.453125 585.519531 Z M 453.453125 585.519531 " fill-opacity="1" fill-rule="nonzero"/><path fill="#dde6e6" d="M 456.113281 549.699219 C 456.945312 548.863281 458.292969 548.863281 459.109375 549.699219 C 459.925781 550.53125 459.941406 551.878906 459.109375 552.691406 C 458.273438 553.507812 456.929688 553.527344 456.113281 552.691406 C 455.296875 551.859375 455.28125 550.511719 456.113281 549.699219 Z M 456.113281 549.699219 " fill-opacity="1" fill-rule="nonzero"/><path fill="#dde6e6" d="M 467.28125 515.644531 C 468.539062 514.386719 470.59375 514.386719 471.871094 515.644531 C 473.148438 516.90625 473.128906 518.960938 471.871094 520.238281 C 470.613281 521.511719 468.554688 521.496094 467.28125 520.238281 C 466.003906 518.980469 466.023438 516.921875 467.28125 515.644531 Z M 467.28125 515.644531 " fill-opacity="1" fill-rule="nonzero"/><path fill="#dde6e6" d="M 486.28125 485.566406 C 488.035156 483.8125 490.871094 483.8125 492.628906 485.566406 C 494.382812 487.320312 494.382812 490.15625 492.628906 491.910156 C 490.871094 493.667969 488.035156 493.667969 486.28125 491.910156 C 484.527344 490.15625 484.527344 487.320312 486.28125 485.566406 Z M 486.28125 485.566406 " fill-opacity="1" fill-rule="nonzero"/><path fill="#dde6e6" d="M 511.894531 461.28125 C 514.128906 459.046875 517.78125 459.046875 520.015625 461.28125 C 522.246094 463.515625 522.246094 467.167969 520.015625 469.398438 C 517.78125 471.632812 514.128906 471.632812 511.894531 469.398438 C 509.664062 467.167969 509.664062 463.515625 511.894531 461.28125 Z M 511.894531 461.28125 " fill-opacity="1" fill-rule="nonzero"/><path fill="#dde6e6" d="M 542.527344 444.390625 C 545.238281 441.675781 549.632812 441.675781 552.347656 444.390625 C 555.058594 447.101562 555.058594 451.496094 552.347656 454.207031 C 549.632812 456.921875 545.238281 456.921875 542.527344 454.207031 C 539.8125 451.496094 539.8125 447.101562 542.527344 444.390625 Z M 542.527344 444.390625 " fill-opacity="1" fill-rule="nonzero"/><path fill="#dde6e6" d="M 576.292969 435.96875 C 579.414062 432.847656 584.464844 432.847656 587.585938 435.96875 C 590.703125 439.089844 590.703125 444.140625 587.585938 447.261719 C 584.464844 450.378906 579.414062 450.378906 576.292969 447.261719 C 573.171875 444.140625 573.171875 439.089844 576.292969 435.96875 Z M 576.292969 435.96875 " fill-opacity="1" fill-rule="nonzero"/><path fill="#dde6e6" d="M 611.054688 436.5 C 614.492188 433.0625 620.058594 433.0625 623.496094 436.5 C 626.9375 439.941406 626.9375 445.503906 623.496094 448.945312 C 620.058594 452.382812 614.492188 452.382812 611.054688 448.945312 C 607.613281 445.503906 607.613281 439.941406 611.054688 436.5 Z M 611.054688 436.5 " fill-opacity="1" fill-rule="nonzero"/><path fill="#dde6e6" d="M 644.609375 445.964844 C 648.242188 442.332031 654.164062 442.332031 657.796875 445.964844 C 661.429688 449.601562 661.429688 455.519531 657.796875 459.15625 C 654.164062 462.789062 648.242188 462.789062 644.609375 459.15625 C 640.976562 455.519531 640.976562 449.601562 644.609375 445.964844 Z M 644.609375 445.964844 " fill-opacity="1" fill-rule="nonzero"/><path fill="#dde6e6" d="M 691.191406 470.570312 C 691.191406 471.199219 691.128906 471.824219 691.007812 472.441406 C 690.882812 473.058594 690.703125 473.65625 690.460938 474.238281 C 690.21875 474.820312 689.925781 475.375 689.574219 475.898438 C 689.226562 476.421875 688.828125 476.90625 688.382812 477.351562 C 687.9375 477.796875 687.453125 478.191406 686.929688 478.542969 C 686.40625 478.894531 685.851562 479.1875 685.273438 479.429688 C 684.691406 479.671875 684.089844 479.851562 683.472656 479.976562 C 682.855469 480.097656 682.230469 480.160156 681.601562 480.160156 C 680.972656 480.160156 680.347656 480.097656 679.730469 479.976562 C 679.113281 479.851562 678.515625 479.671875 677.933594 479.429688 C 677.351562 479.1875 676.796875 478.894531 676.273438 478.542969 C 675.75 478.191406 675.265625 477.796875 674.820312 477.351562 C 674.375 476.90625 673.976562 476.421875 673.628906 475.898438 C 673.277344 475.375 672.984375 474.820312 672.742188 474.238281 C 672.5 473.65625 672.320312 473.058594 672.195312 472.441406 C 672.074219 471.824219 672.011719 471.199219 672.011719 470.570312 C 672.011719 469.941406 672.074219 469.316406 672.195312 468.699219 C 672.320312 468.082031 672.5 467.480469 672.742188 466.898438 C 672.984375 466.316406 673.277344 465.765625 673.628906 465.242188 C 673.976562 464.71875 674.375 464.234375 674.820312 463.789062 C 675.265625 463.34375 675.75 462.945312 676.273438 462.597656 C 676.796875 462.246094 677.351562 461.949219 677.933594 461.710938 C 678.515625 461.46875 679.113281 461.289062 679.730469 461.164062 C 680.347656 461.042969 680.972656 460.980469 681.601562 460.980469 C 682.230469 460.980469 682.855469 461.042969 683.472656 461.164062 C 684.089844 461.289062 684.691406 461.46875 685.273438 461.710938 C 685.851562 461.949219 686.40625 462.246094 686.929688 462.597656 C 687.453125 462.945312 687.9375 463.34375 688.382812 463.789062 C 688.828125 464.234375 689.226562 464.71875 689.574219 465.242188 C 689.925781 465.765625 690.21875 466.316406 690.460938 466.898438 C 690.703125 467.480469 690.882812 468.082031 691.007812 468.699219 C 691.128906 469.316406 691.191406 469.941406 691.191406 470.570312 Z M 691.191406 470.570312 " fill-opacity="1" fill-rule="nonzero"/><path fill="#dde6e6" d="M 699.804688 488.773438 C 703.5625 485.015625 709.644531 485.015625 713.382812 488.773438 C 717.140625 492.53125 717.140625 498.613281 713.382812 502.351562 C 709.625 506.09375 703.546875 506.109375 699.804688 502.351562 C 696.046875 498.59375 696.046875 492.515625 699.804688 488.773438 Z M 699.804688 488.773438 " fill-opacity="1" fill-rule="nonzero"/><path fill="#dde6e6" d="M 717.992188 519.367188 C 721.644531 515.71875 727.566406 515.71875 731.214844 519.367188 C 734.867188 523.019531 734.867188 528.941406 731.214844 532.59375 C 727.566406 536.242188 721.644531 536.242188 717.992188 532.59375 C 714.339844 528.941406 714.339844 523.019531 717.992188 519.367188 Z M 717.992188 519.367188 " fill-opacity="1" fill-rule="nonzero"/><path fill="#dde6e6" d="M 728.183594 553.667969 C 731.640625 550.210938 737.226562 550.210938 740.683594 553.667969 C 744.136719 557.125 744.136719 562.707031 740.683594 566.164062 C 737.226562 569.621094 731.640625 569.621094 728.183594 566.164062 C 724.730469 562.707031 724.730469 557.125 728.183594 553.667969 Z M 728.183594 553.667969 " fill-opacity="1" fill-rule="nonzero"/><path fill="#dde6e6" d="M 729.851562 589.5625 C 732.988281 586.425781 738.078125 586.425781 741.230469 589.5625 C 744.367188 592.699219 744.367188 597.789062 741.230469 600.925781 C 738.09375 604.0625 733.007812 604.0625 729.871094 600.925781 C 726.730469 597.789062 726.730469 592.699219 729.871094 589.542969 Z M 729.851562 589.5625 " fill-opacity="1" fill-rule="nonzero"/><path fill="#dde6e6" d="M 722.886719 624.785156 C 725.613281 622.054688 730.0625 622.054688 732.792969 624.785156 C 735.523438 627.511719 735.523438 631.960938 732.792969 634.691406 C 730.0625 637.421875 725.613281 637.421875 722.886719 634.691406 C 720.15625 631.960938 720.15625 627.511719 722.886719 624.785156 Z M 722.886719 624.785156 " fill-opacity="1" fill-rule="nonzero"/><path fill="#dde6e6" d="M 707.695312 657.117188 C 709.964844 654.847656 713.632812 654.847656 715.882812 657.117188 C 718.136719 659.382812 718.152344 663.054688 715.882812 665.304688 C 713.613281 667.574219 709.945312 667.574219 707.695312 665.304688 C 705.441406 663.035156 705.425781 659.367188 707.695312 657.117188 Z M 707.695312 657.117188 " fill-opacity="1" fill-rule="nonzero"/><path fill="#dde6e6" d="M 685.183594 684.5 C 686.957031 682.730469 689.828125 682.730469 691.597656 684.5 C 693.371094 686.273438 693.371094 689.144531 691.597656 690.917969 C 689.828125 692.691406 686.957031 692.691406 685.183594 690.917969 C 683.410156 689.144531 683.410156 686.273438 685.183594 684.5 Z M 685.183594 684.5 " fill-opacity="1" fill-rule="nonzero"/><path fill="#dde6e6" d="M 656.855469 705.277344 C 658.132812 704 660.226562 704 661.5 705.277344 C 662.777344 706.550781 662.777344 708.644531 661.5 709.921875 C 660.226562 711.195312 658.132812 711.195312 656.855469 709.921875 C 655.582031 708.644531 655.582031 706.550781 656.855469 705.277344 Z M 656.855469 705.277344 " fill-opacity="1" fill-rule="nonzero"/><path fill="#dde6e6" d="M 624.402344 718.019531 C 625.234375 717.1875 626.597656 717.1875 627.433594 718.019531 C 628.265625 718.855469 628.265625 720.21875 627.433594 721.050781 C 626.597656 721.886719 625.234375 721.886719 624.402344 721.050781 C 623.566406 720.21875 623.566406 718.855469 624.402344 718.019531 Z M 624.402344 718.019531 " fill-opacity="1" fill-rule="nonzero"/><path fill="#dde6e6" d="M 589.871094 721.972656 C 590.351562 721.496094 591.128906 721.496094 591.609375 721.972656 C 592.085938 722.453125 592.085938 723.234375 591.609375 723.710938 C 591.128906 724.191406 590.351562 724.191406 589.871094 723.710938 C 589.394531 723.234375 589.394531 722.453125 589.871094 721.972656 Z M 589.871094 721.972656 " fill-opacity="1" fill-rule="nonzero"/><path fill="#dde6e6" d="M 555.429688 716.941406 C 555.644531 716.726562 555.996094 716.726562 556.210938 716.941406 C 556.421875 717.152344 556.421875 717.507812 556.210938 717.71875 C 555.996094 717.933594 555.644531 717.933594 555.429688 717.71875 C 555.21875 717.507812 555.21875 717.152344 555.429688 716.941406 Z M 555.429688 716.941406 " fill-opacity="1" fill-rule="nonzero"/><path fill="#dde6e6" d="M 523.292969 703.203125 C 523.292969 703.203125 523.433594 703.148438 523.488281 703.203125 C 523.542969 703.253906 523.542969 703.34375 523.488281 703.398438 C 523.433594 703.449219 523.347656 703.449219 523.292969 703.398438 C 523.238281 703.34375 523.238281 703.253906 523.292969 703.203125 Z M 523.292969 703.203125 " fill-opacity="1" fill-rule="nonzero"/><path fill="#dde6e6" d="M 422.203125 534.933594 C 422.292969 534.933594 422.378906 535.003906 422.378906 535.109375 C 422.378906 535.214844 422.308594 535.285156 422.203125 535.285156 C 422.097656 535.285156 422.027344 535.214844 422.027344 535.109375 C 422.027344 535.003906 422.097656 534.933594 422.203125 534.933594 Z M 422.203125 534.933594 " fill-opacity="1" fill-rule="nonzero"/><path fill="#dde6e6" d="M 438.476562 493.347656 C 438.847656 493.347656 439.167969 493.648438 439.167969 494.039062 C 439.167969 494.429688 438.867188 494.730469 438.476562 494.730469 C 438.085938 494.730469 437.785156 494.429688 437.785156 494.039062 C 437.785156 493.648438 438.085938 493.347656 438.476562 493.347656 Z M 438.476562 493.347656 " fill-opacity="1" fill-rule="nonzero"/><path fill="#dde6e6" d="M 464.460938 456.796875 C 465.292969 456.796875 465.984375 457.46875 465.984375 458.320312 C 465.984375 459.171875 465.3125 459.84375 464.460938 459.84375 C 463.609375 459.84375 462.9375 459.171875 462.9375 458.320312 C 462.9375 457.46875 463.609375 456.796875 464.460938 456.796875 Z M 464.460938 456.796875 " fill-opacity="1" fill-rule="nonzero"/><path fill="#dde6e6" d="M 498.496094 427.496094 C 499.964844 427.496094 501.152344 428.683594 501.152344 430.15625 C 501.152344 431.625 499.964844 432.8125 498.496094 432.8125 C 497.023438 432.8125 495.835938 431.625 495.835938 430.15625 C 495.835938 428.683594 497.023438 427.496094 498.496094 427.496094 Z M 498.496094 427.496094 " fill-opacity="1" fill-rule="nonzero"/><path fill="#dde6e6" d="M 538.449219 407.253906 C 540.683594 407.253906 542.507812 409.0625 542.507812 411.3125 C 542.507812 413.5625 540.699219 415.371094 538.449219 415.371094 C 536.214844 415.371094 534.390625 413.5625 534.390625 411.3125 C 534.390625 409.0625 536.199219 407.253906 538.449219 407.253906 Z M 538.449219 407.253906 " fill-opacity="1" fill-rule="nonzero"/><path fill="#dde6e6" d="M 581.839844 397.46875 C 584.945312 397.46875 587.460938 399.984375 587.460938 403.085938 C 587.460938 406.191406 584.945312 408.707031 581.839844 408.707031 C 578.738281 408.707031 576.222656 406.191406 576.222656 403.085938 C 576.222656 399.984375 578.738281 397.46875 581.839844 397.46875 Z M 581.839844 397.46875 " fill-opacity="1" fill-rule="nonzero"/><path fill="#dde6e6" d="M 625.941406 398.65625 C 629.914062 398.65625 633.121094 401.863281 633.121094 405.835938 C 633.121094 409.804688 629.914062 413.015625 625.941406 413.015625 C 621.972656 413.015625 618.765625 409.804688 618.765625 405.835938 C 618.765625 401.863281 621.972656 398.65625 625.941406 398.65625 Z M 625.941406 398.65625 " fill-opacity="1" fill-rule="nonzero"/><path fill="#dde6e6" d="M 667.953125 410.796875 C 672.757812 410.796875 676.640625 414.679688 676.640625 419.484375 C 676.640625 424.289062 672.757812 428.167969 667.953125 428.167969 C 663.148438 428.167969 659.269531 424.289062 659.269531 419.484375 C 659.269531 414.679688 663.148438 410.796875 667.953125 410.796875 Z M 667.953125 410.796875 " fill-opacity="1" fill-rule="nonzero"/><path fill="#dde6e6" d="M 705.230469 433.203125 C 710.742188 433.203125 715.210938 437.671875 715.210938 443.183594 C 715.210938 448.695312 710.742188 453.164062 705.230469 453.164062 C 699.71875 453.164062 695.25 448.695312 695.25 443.183594 C 695.25 437.671875 699.71875 433.203125 705.230469 433.203125 Z M 705.230469 433.203125 " fill-opacity="1" fill-rule="nonzero"/><path fill="#dde6e6" d="M 735.46875 464.382812 C 741.550781 464.382812 746.460938 469.3125 746.460938 475.375 C 746.460938 481.4375 741.53125 486.363281 735.46875 486.363281 C 729.410156 486.363281 724.480469 481.4375 724.480469 475.375 C 724.480469 469.292969 729.410156 464.382812 735.46875 464.382812 Z M 735.46875 464.382812 " fill-opacity="1" fill-rule="nonzero"/><path fill="#dde6e6" d="M 756.777344 502.421875 C 763.210938 502.421875 768.441406 507.632812 768.441406 514.085938 C 768.441406 520.539062 763.230469 525.75 756.777344 525.75 C 750.324219 525.75 745.113281 520.519531 745.113281 514.085938 C 745.113281 507.652344 750.324219 502.421875 756.777344 502.421875 Z M 756.777344 502.421875 " fill-opacity="1" fill-rule="nonzero"/><path fill="#dde6e6" d="M 779.730469 556.859375 C 779.730469 557.648438 779.65625 558.425781 779.5 559.199219 C 779.347656 559.972656 779.121094 560.722656 778.816406 561.449219 C 778.515625 562.179688 778.148438 562.871094 777.710938 563.527344 C 777.273438 564.179688 776.773438 564.785156 776.21875 565.34375 C 775.660156 565.902344 775.054688 566.398438 774.398438 566.835938 C 773.742188 567.273438 773.050781 567.644531 772.324219 567.945312 C 771.597656 568.246094 770.84375 568.472656 770.074219 568.628906 C 769.300781 568.78125 768.519531 568.859375 767.730469 568.859375 C 766.945312 568.859375 766.164062 568.78125 765.390625 568.628906 C 764.617188 568.472656 763.867188 568.246094 763.140625 567.945312 C 762.410156 567.644531 761.71875 567.273438 761.0625 566.835938 C 760.410156 566.398438 759.804688 565.902344 759.246094 565.34375 C 758.6875 564.785156 758.191406 564.179688 757.753906 563.527344 C 757.316406 562.871094 756.945312 562.179688 756.644531 561.449219 C 756.34375 560.722656 756.117188 559.972656 755.960938 559.199219 C 755.808594 558.425781 755.730469 557.648438 755.730469 556.859375 C 755.730469 556.070312 755.808594 555.289062 755.960938 554.515625 C 756.117188 553.746094 756.34375 552.996094 756.644531 552.265625 C 756.945312 551.539062 757.316406 550.847656 757.753906 550.191406 C 758.191406 549.535156 758.6875 548.929688 759.246094 548.375 C 759.804688 547.816406 760.410156 547.320312 761.0625 546.878906 C 761.71875 546.441406 762.410156 546.074219 763.140625 545.773438 C 763.867188 545.46875 764.617188 545.242188 765.390625 545.089844 C 766.164062 544.933594 766.945312 544.859375 767.730469 544.859375 C 768.519531 544.859375 769.300781 544.933594 770.074219 545.089844 C 770.84375 545.242188 771.597656 545.46875 772.324219 545.773438 C 773.050781 546.074219 773.742188 546.441406 774.398438 546.878906 C 775.054688 547.320312 775.660156 547.816406 776.21875 548.375 C 776.773438 548.929688 777.273438 549.535156 777.710938 550.191406 C 778.148438 550.847656 778.515625 551.539062 778.816406 552.265625 C 779.121094 552.996094 779.347656 553.746094 779.5 554.515625 C 779.65625 555.289062 779.730469 556.070312 779.730469 556.859375 Z M 779.730469 556.859375 " fill-opacity="1" fill-rule="nonzero"/><path fill="#dde6e6" d="M 767.730469 589.03125 C 774.359375 589.03125 779.730469 594.402344 779.730469 601.03125 C 779.730469 607.660156 774.359375 613.03125 767.730469 613.03125 C 761.101562 613.03125 755.730469 607.660156 755.730469 601.03125 C 755.730469 594.402344 761.101562 589.03125 767.730469 589.03125 Z M 767.730469 589.03125 " fill-opacity="1" fill-rule="nonzero"/><path fill="#dde6e6" d="M 756.757812 632.140625 C 763.210938 632.140625 768.441406 637.367188 768.441406 643.820312 C 768.441406 650.273438 763.210938 655.519531 756.757812 655.519531 C 750.308594 655.519531 745.078125 650.292969 745.078125 643.820312 C 745.078125 637.351562 750.308594 632.140625 756.757812 632.140625 Z M 756.757812 632.140625 " fill-opacity="1" fill-rule="nonzero"/><path fill="#dde6e6" d="M 735.453125 671.492188 C 741.550781 671.492188 746.496094 676.4375 746.496094 682.535156 C 746.496094 688.632812 741.550781 693.578125 735.453125 693.578125 C 729.355469 693.578125 724.410156 688.632812 724.410156 682.535156 C 724.410156 676.4375 729.355469 671.492188 735.453125 671.492188 Z M 735.453125 671.492188 " fill-opacity="1" fill-rule="nonzero"/><path fill="#dde6e6" d="M 705.195312 704.671875 C 710.742188 704.671875 715.246094 709.175781 715.246094 714.722656 C 715.246094 720.273438 710.742188 724.773438 705.195312 724.773438 C 699.648438 724.773438 695.144531 720.273438 695.144531 714.722656 C 695.144531 709.175781 699.648438 704.671875 705.195312 704.671875 Z M 705.195312 704.671875 " fill-opacity="1" fill-rule="nonzero"/><path fill="#dde6e6" d="M 667.917969 729.648438 C 672.757812 729.648438 676.675781 733.566406 676.675781 738.40625 C 676.675781 743.246094 672.757812 747.164062 667.917969 747.164062 C 663.078125 747.164062 659.160156 743.246094 659.160156 738.40625 C 659.160156 733.566406 663.078125 729.648438 667.917969 729.648438 Z M 667.917969 729.648438 " fill-opacity="1" fill-rule="nonzero"/><path fill="#dde6e6" d="M 625.890625 744.804688 C 629.894531 744.804688 633.140625 748.046875 633.140625 752.054688 C 633.140625 756.0625 629.894531 759.304688 625.890625 759.304688 C 621.882812 759.304688 618.640625 756.0625 618.640625 752.054688 C 618.640625 748.046875 621.882812 744.804688 625.890625 744.804688 Z M 625.890625 744.804688 " fill-opacity="1" fill-rule="nonzero"/><path fill="#dde6e6" d="M 581.804688 749.113281 C 584.945312 749.113281 587.476562 751.648438 587.476562 754.785156 C 587.476562 757.921875 584.945312 760.457031 581.804688 760.457031 C 578.667969 760.457031 576.132812 757.921875 576.132812 754.785156 C 576.132812 751.648438 578.667969 749.113281 581.804688 749.113281 Z M 581.804688 749.113281 " fill-opacity="1" fill-rule="nonzero"/><path fill="#dde6e6" d="M 538.414062 742.445312 C 540.683594 742.445312 542.527344 744.289062 542.527344 746.558594 C 542.527344 748.828125 540.683594 750.671875 538.414062 750.671875 C 536.144531 750.671875 534.300781 748.828125 534.300781 746.558594 C 534.300781 744.289062 536.144531 742.445312 538.414062 742.445312 Z M 538.414062 742.445312 " fill-opacity="1" fill-rule="nonzero"/><path fill="#dde6e6" d="M 498.460938 725.023438 C 499.949219 725.023438 501.136719 726.226562 501.136719 727.699219 C 501.136719 729.171875 499.929688 730.375 498.460938 730.375 C 496.988281 730.375 495.78125 729.171875 495.78125 727.699219 C 495.78125 726.226562 496.988281 725.023438 498.460938 725.023438 Z M 498.460938 725.023438 " fill-opacity="1" fill-rule="nonzero"/><path fill="#dde6e6" d="M 464.425781 697.992188 C 465.277344 697.992188 465.96875 698.683594 465.96875 699.53125 C 465.96875 700.382812 465.277344 701.074219 464.425781 701.074219 C 463.574219 701.074219 462.882812 700.382812 462.882812 699.53125 C 462.882812 698.683594 463.574219 697.992188 464.425781 697.992188 Z M 464.425781 697.992188 " fill-opacity="1" fill-rule="nonzero"/><path fill="#dde6e6" d="M 438.457031 663.105469 C 438.847656 663.105469 439.148438 663.425781 439.148438 663.796875 C 439.148438 664.171875 438.832031 664.488281 438.457031 664.488281 C 438.085938 664.488281 437.765625 664.171875 437.765625 663.796875 C 437.765625 663.425781 438.085938 663.105469 438.457031 663.105469 Z M 438.457031 663.105469 " fill-opacity="1" fill-rule="nonzero"/><path fill="#dde6e6" d="M 422.1875 622.550781 C 422.292969 622.550781 422.363281 622.621094 422.363281 622.726562 C 422.363281 622.832031 422.292969 622.90625 422.1875 622.90625 C 422.078125 622.90625 422.007812 622.832031 422.007812 622.726562 C 422.007812 622.621094 422.078125 622.550781 422.1875 622.550781 Z M 422.1875 622.550781 " fill-opacity="1" fill-rule="nonzero"/><path fill="#dde6e6" d="M 481.566406 384.457031 C 481.566406 384.457031 481.65625 384.6875 481.566406 384.757812 C 481.476562 384.832031 481.335938 384.847656 481.265625 384.757812 C 481.195312 384.671875 481.175781 384.527344 481.265625 384.457031 C 481.355469 384.386719 481.496094 384.371094 481.566406 384.457031 Z M 481.566406 384.457031 " fill-opacity="1" fill-rule="nonzero"/><path fill="#dde6e6" d="M 532.707031 362.105469 C 533.042969 362.441406 533.042969 362.972656 532.707031 363.3125 C 532.367188 363.648438 531.835938 363.648438 531.5 363.3125 C 531.164062 362.972656 531.164062 362.441406 531.5 362.105469 C 531.835938 361.769531 532.367188 361.769531 532.707031 362.105469 Z M 532.707031 362.105469 " fill-opacity="1" fill-rule="nonzero"/><path fill="#dde6e6" d="M 587.976562 352.765625 C 588.71875 353.507812 588.71875 354.714844 587.976562 355.457031 C 587.230469 356.203125 586.023438 356.203125 585.28125 355.457031 C 584.535156 354.714844 584.535156 353.507812 585.28125 352.765625 C 586.023438 352.019531 587.230469 352.019531 587.976562 352.765625 Z M 587.976562 352.765625 " fill-opacity="1" fill-rule="nonzero"/><path fill="#dde6e6" d="M 643.953125 356.929688 C 645.246094 358.222656 645.246094 360.332031 643.953125 361.628906 C 642.660156 362.921875 640.550781 362.921875 639.253906 361.628906 C 637.960938 360.332031 637.960938 358.222656 639.253906 356.929688 C 640.550781 355.636719 642.660156 355.636719 643.953125 356.929688 Z M 643.953125 356.929688 " fill-opacity="1" fill-rule="nonzero"/><path fill="#dde6e6" d="M 697.164062 374.371094 C 699.152344 376.355469 699.152344 379.566406 697.164062 381.535156 C 695.179688 383.519531 691.972656 383.519531 690.003906 381.535156 C 688.035156 379.546875 688.019531 376.339844 690.003906 374.371094 C 691.988281 372.40625 695.199219 372.386719 697.164062 374.371094 Z M 697.164062 374.371094 " fill-opacity="1" fill-rule="nonzero"/><path fill="#dde6e6" d="M 744.175781 404.082031 C 746.921875 406.828125 746.921875 411.257812 744.175781 414.007812 C 741.425781 416.753906 736.996094 416.753906 734.246094 414.007812 C 731.5 411.257812 731.5 406.828125 734.246094 404.082031 C 736.996094 401.332031 741.425781 401.332031 744.175781 404.082031 Z M 744.175781 404.082031 " fill-opacity="1" fill-rule="nonzero"/><path fill="#dde6e6" d="M 782.089844 444.085938 C 785.597656 447.597656 785.597656 453.269531 782.089844 456.777344 C 778.578125 460.289062 772.90625 460.289062 769.398438 456.777344 C 765.886719 453.269531 765.886719 447.597656 769.398438 444.085938 C 772.90625 440.578125 778.578125 440.578125 782.089844 444.085938 Z M 782.089844 444.085938 " fill-opacity="1" fill-rule="nonzero"/><path fill="#dde6e6" d="M 808.5 491.964844 C 812.738281 496.199219 812.738281 503.078125 808.5 507.316406 C 804.265625 511.550781 797.386719 511.550781 793.148438 507.316406 C 788.914062 503.078125 788.914062 496.199219 793.148438 491.964844 C 797.386719 487.726562 804.265625 487.726562 808.5 491.964844 Z M 808.5 491.964844 " fill-opacity="1" fill-rule="nonzero"/><path fill="#dde6e6" d="M 821.636719 544.714844 C 826.511719 549.589844 826.511719 557.480469 821.636719 562.355469 C 816.761719 567.226562 808.871094 567.226562 804 562.355469 C 799.125 557.480469 799.125 549.589844 804 544.714844 C 808.871094 539.84375 816.761719 539.84375 821.636719 544.714844 Z M 821.636719 544.714844 " fill-opacity="1" fill-rule="nonzero"/><path fill="#dde6e6" d="M 820.800781 599.011719 C 826.171875 604.382812 826.171875 613.085938 820.800781 618.457031 C 815.429688 623.828125 806.726562 623.828125 801.355469 618.457031 C 795.984375 613.085938 795.984375 604.382812 801.355469 599.011719 C 806.726562 593.640625 815.429688 593.640625 820.800781 599.011719 Z M 820.800781 599.011719 " fill-opacity="1" fill-rule="nonzero"/><path fill="#dde6e6" d="M 806.019531 651.460938 C 811.710938 657.152344 811.710938 666.386719 806.019531 672.074219 C 800.328125 677.765625 791.09375 677.765625 785.402344 672.074219 C 779.714844 666.386719 779.714844 657.152344 785.402344 651.460938 C 791.09375 645.769531 800.328125 645.769531 806.019531 651.460938 Z M 806.019531 651.460938 " fill-opacity="1" fill-rule="nonzero"/><path fill="#dde6e6" d="M 782.585938 709.265625 C 782.585938 710.25 782.488281 711.222656 782.296875 712.191406 C 782.105469 713.15625 781.820312 714.09375 781.445312 715.003906 C 781.066406 715.914062 780.605469 716.777344 780.058594 717.597656 C 779.511719 718.414062 778.890625 719.171875 778.195312 719.867188 C 777.496094 720.566406 776.738281 721.1875 775.921875 721.734375 C 775.101562 722.28125 774.238281 722.742188 773.328125 723.117188 C 772.417969 723.496094 771.480469 723.78125 770.515625 723.972656 C 769.550781 724.164062 768.574219 724.261719 767.589844 724.261719 C 766.605469 724.261719 765.628906 724.164062 764.664062 723.972656 C 763.699219 723.78125 762.761719 723.496094 761.851562 723.117188 C 760.941406 722.742188 760.078125 722.28125 759.257812 721.734375 C 758.441406 721.1875 757.683594 720.566406 756.984375 719.867188 C 756.289062 719.171875 755.667969 718.414062 755.121094 717.597656 C 754.574219 716.777344 754.113281 715.914062 753.734375 715.003906 C 753.359375 714.09375 753.074219 713.15625 752.882812 712.191406 C 752.691406 711.222656 752.59375 710.25 752.59375 709.265625 C 752.59375 708.28125 752.691406 707.304688 752.882812 706.339844 C 753.074219 705.375 753.359375 704.433594 753.734375 703.527344 C 754.113281 702.617188 754.574219 701.75 755.121094 700.933594 C 755.667969 700.113281 756.289062 699.355469 756.984375 698.660156 C 757.683594 697.964844 758.441406 697.34375 759.257812 696.796875 C 760.078125 696.25 760.941406 695.785156 761.851562 695.410156 C 762.761719 695.035156 763.699219 694.75 764.664062 694.558594 C 765.628906 694.363281 766.605469 694.269531 767.589844 694.269531 C 768.574219 694.269531 769.550781 694.363281 770.515625 694.558594 C 771.480469 694.75 772.417969 695.035156 773.328125 695.410156 C 774.238281 695.785156 775.101562 696.25 775.921875 696.796875 C 776.738281 697.34375 777.496094 697.964844 778.195312 698.660156 C 778.890625 699.355469 779.511719 700.113281 780.058594 700.933594 C 780.605469 701.75 781.066406 702.617188 781.445312 703.527344 C 781.820312 704.433594 782.105469 705.375 782.296875 706.339844 C 782.488281 707.304688 782.585938 708.28125 782.585938 709.265625 Z M 782.585938 709.265625 " fill-opacity="1" fill-rule="nonzero"/><path fill="#dde6e6" d="M 739.140625 737.695312 C 745.007812 743.5625 745.007812 753.066406 739.140625 758.914062 C 733.273438 764.765625 723.773438 764.78125 717.921875 758.914062 C 712.074219 753.046875 712.054688 743.546875 717.921875 737.695312 C 723.789062 731.847656 733.289062 731.828125 739.140625 737.695312 Z M 739.140625 737.695312 " fill-opacity="1" fill-rule="nonzero"/><path fill="#dde6e6" d="M 691.351562 766.109375 C 697.058594 771.820312 697.058594 781.070312 691.351562 786.777344 C 685.644531 792.488281 676.390625 792.488281 670.683594 786.777344 C 664.976562 781.070312 664.976562 771.820312 670.683594 766.109375 C 676.390625 760.402344 685.644531 760.402344 691.351562 766.109375 Z M 691.351562 766.109375 " fill-opacity="1" fill-rule="nonzero"/><path fill="#dde6e6" d="M 637.730469 782.027344 C 643.121094 787.417969 643.121094 796.15625 637.730469 801.542969 C 632.34375 806.933594 623.601562 806.933594 618.214844 801.542969 C 612.824219 796.15625 612.824219 787.417969 618.214844 782.027344 C 623.601562 776.640625 632.34375 776.640625 637.730469 782.027344 Z M 637.730469 782.027344 " fill-opacity="1" fill-rule="nonzero"/><path fill="#dde6e6" d="M 581.664062 784.632812 C 586.574219 789.542969 586.574219 797.503906 581.664062 802.394531 C 576.753906 807.304688 568.796875 807.304688 563.902344 802.394531 C 558.992188 797.484375 558.992188 789.527344 563.902344 784.632812 C 568.8125 779.722656 576.773438 779.722656 581.664062 784.632812 Z M 581.664062 784.632812 " fill-opacity="1" fill-rule="nonzero"/><path fill="#dde6e6" d="M 526.625 773.769531 C 530.898438 778.039062 530.898438 784.972656 526.625 789.242188 C 522.355469 793.515625 515.421875 793.515625 511.152344 789.242188 C 506.878906 784.972656 506.878906 778.039062 511.152344 773.769531 C 515.421875 769.496094 522.355469 769.496094 526.625 773.769531 Z M 526.625 773.769531 " fill-opacity="1" fill-rule="nonzero"/><path fill="#dde6e6" d="M 476.109375 750.015625 C 479.652344 753.5625 479.652344 759.285156 476.109375 762.832031 C 472.5625 766.378906 466.835938 766.378906 463.292969 762.832031 C 459.746094 759.285156 459.746094 753.5625 463.292969 750.015625 C 466.835938 746.472656 472.5625 746.472656 476.109375 750.015625 Z M 476.109375 750.015625 " fill-opacity="1" fill-rule="nonzero"/><path fill="#dde6e6" d="M 433.316406 714.847656 C 436.082031 717.613281 436.082031 722.117188 433.316406 724.882812 C 430.550781 727.644531 426.050781 727.644531 423.285156 724.882812 C 420.519531 722.117188 420.519531 717.613281 423.285156 714.847656 C 426.050781 712.082031 430.550781 712.082031 433.316406 714.847656 Z M 433.316406 714.847656 " fill-opacity="1" fill-rule="nonzero"/><path fill="#dde6e6" d="M 400.863281 670.585938 C 402.863281 672.589844 402.863281 675.832031 400.863281 677.835938 C 398.859375 679.839844 395.613281 679.839844 393.613281 677.835938 C 391.609375 675.832031 391.609375 672.589844 393.613281 670.585938 C 395.613281 668.585938 398.859375 668.585938 400.863281 670.585938 Z M 400.863281 670.585938 " fill-opacity="1" fill-rule="nonzero"/><path fill="#dde6e6" d="M 380.9375 619.875 C 382.25 621.183594 382.25 623.3125 380.9375 624.625 C 379.625 625.9375 377.5 625.9375 376.1875 624.625 C 374.875 623.3125 374.875 621.183594 376.1875 619.875 C 377.5 618.5625 379.625 618.5625 380.9375 619.875 Z M 380.9375 619.875 " fill-opacity="1" fill-rule="nonzero"/><path fill="#dde6e6" d="M 374.769531 565.917969 C 375.515625 566.660156 375.515625 567.882812 374.769531 568.644531 C 374.023438 569.410156 372.800781 569.390625 372.058594 568.644531 C 371.3125 567.902344 371.3125 566.679688 372.058594 565.933594 C 372.800781 565.191406 374.023438 565.191406 374.769531 565.933594 Z M 374.769531 565.917969 " fill-opacity="1" fill-rule="nonzero"/><path fill="#dde6e6" d="M 382.640625 512.117188 C 382.976562 512.457031 382.976562 513.003906 382.640625 513.34375 C 382.304688 513.679688 381.753906 513.679688 381.417969 513.34375 C 381.078125 513.003906 381.078125 512.457031 381.417969 512.117188 C 381.753906 511.78125 382.304688 511.78125 382.640625 512.117188 Z M 382.640625 512.117188 " fill-opacity="1" fill-rule="nonzero"/><path fill="#dde6e6" d="M 404.105469 461.902344 C 404.105469 461.902344 404.195312 462.132812 404.105469 462.222656 C 404.015625 462.308594 403.875 462.308594 403.785156 462.222656 C 403.699219 462.132812 403.699219 461.992188 403.785156 461.902344 C 403.875 461.8125 404.015625 461.8125 404.105469 461.902344 Z M 404.105469 461.902344 " fill-opacity="1" fill-rule="nonzero"/><path fill="#dde6e6" d="M 667.03125 303.949219 C 667.03125 304.089844 666.90625 304.214844 666.765625 304.214844 C 666.625 304.214844 666.5 304.089844 666.5 303.949219 C 666.5 303.804688 666.625 303.683594 666.765625 303.683594 C 666.90625 303.683594 667.03125 303.804688 667.03125 303.949219 Z M 667.03125 303.949219 " fill-opacity="1" fill-rule="nonzero"/><path fill="#dde6e6" d="M 731.996094 329.367188 C 731.996094 329.953125 731.519531 330.429688 730.933594 330.429688 C 730.347656 330.429688 729.871094 329.953125 729.871094 329.367188 C 729.871094 328.78125 730.347656 328.304688 730.933594 328.304688 C 731.519531 328.304688 731.996094 328.78125 731.996094 329.367188 Z M 731.996094 329.367188 " fill-opacity="1" fill-rule="nonzero"/><path fill="#dde6e6" d="M 789.109375 369.976562 C 789.109375 371.289062 788.046875 372.351562 786.734375 372.351562 C 785.421875 372.351562 784.359375 371.289062 784.359375 369.976562 C 784.359375 368.664062 785.421875 367.601562 786.734375 367.601562 C 788.046875 367.601562 789.109375 368.664062 789.109375 369.976562 Z M 789.109375 369.976562 " fill-opacity="1" fill-rule="nonzero"/><path fill="#dde6e6" d="M 834.894531 423.152344 C 834.894531 425.441406 833.03125 427.300781 830.746094 427.300781 C 828.460938 427.300781 826.597656 425.441406 826.597656 423.152344 C 826.597656 420.867188 828.460938 419.003906 830.746094 419.003906 C 833.03125 419.003906 834.894531 420.867188 834.894531 423.152344 Z M 834.894531 423.152344 " fill-opacity="1" fill-rule="nonzero"/><path fill="#dde6e6" d="M 866.515625 485.582031 C 866.515625 489.074219 863.679688 491.910156 860.1875 491.910156 C 856.695312 491.910156 853.859375 489.074219 853.859375 485.582031 C 853.859375 482.089844 856.695312 479.253906 860.1875 479.253906 C 863.679688 479.253906 866.515625 482.089844 866.515625 485.582031 Z M 866.515625 485.582031 " fill-opacity="1" fill-rule="nonzero"/><path fill="#dde6e6" d="M 881.8125 553.382812 C 881.8125 558.222656 877.878906 562.160156 873.039062 562.160156 C 868.199219 562.160156 864.265625 558.222656 864.265625 553.382812 C 864.265625 548.546875 868.199219 544.609375 873.039062 544.609375 C 877.878906 544.609375 881.8125 548.546875 881.8125 553.382812 Z M 881.8125 553.382812 " fill-opacity="1" fill-rule="nonzero"/><path fill="#dde6e6" d="M 879.953125 622.285156 C 879.953125 628.46875 874.9375 633.503906 868.734375 633.503906 C 862.546875 633.503906 857.511719 628.488281 857.511719 622.285156 C 857.511719 616.082031 862.527344 611.0625 868.734375 611.0625 C 874.9375 611.0625 879.953125 616.082031 879.953125 622.285156 Z M 879.953125 622.285156 " fill-opacity="1" fill-rule="nonzero"/><path fill="#dde6e6" d="M 860.988281 687.921875 C 860.988281 695.421875 854.90625 701.5 847.410156 701.5 C 839.910156 701.5 833.832031 695.421875 833.832031 687.921875 C 833.832031 680.425781 839.910156 674.34375 847.410156 674.34375 C 854.90625 674.34375 860.988281 680.425781 860.988281 687.921875 Z M 860.988281 687.921875 " fill-opacity="1" fill-rule="nonzero"/><path fill="#dde6e6" d="M 825.976562 746.167969 C 825.976562 754.785156 818.996094 761.769531 810.378906 761.769531 C 801.765625 761.769531 794.78125 754.785156 794.78125 746.167969 C 794.78125 737.554688 801.765625 730.570312 810.378906 730.570312 C 818.996094 730.570312 825.976562 737.554688 825.976562 746.167969 Z M 825.976562 746.167969 " fill-opacity="1" fill-rule="nonzero"/><path fill="#dde6e6" d="M 777.25 793.425781 C 777.25 802.910156 769.558594 810.601562 760.074219 810.601562 C 750.589844 810.601562 742.898438 802.910156 742.898438 793.425781 C 742.898438 783.941406 750.589844 776.25 760.074219 776.25 C 769.558594 776.25 777.25 783.941406 777.25 793.425781 Z M 777.25 793.425781 " fill-opacity="1" fill-rule="nonzero"/><path fill="#dde6e6" d="M 717.816406 826.714844 C 717.816406 836.785156 709.660156 844.9375 699.59375 844.9375 C 689.527344 844.9375 681.371094 836.785156 681.371094 826.714844 C 681.371094 816.648438 689.527344 808.492188 699.59375 808.492188 C 709.660156 808.492188 717.816406 816.648438 717.816406 826.714844 Z M 717.816406 826.714844 " fill-opacity="1" fill-rule="nonzero"/><path fill="#dde6e6" d="M 651.484375 843.820312 C 651.484375 844.433594 651.457031 845.046875 651.394531 845.65625 C 651.335938 846.269531 651.246094 846.875 651.125 847.476562 C 651.007812 848.078125 650.855469 848.671875 650.679688 849.257812 C 650.5 849.847656 650.292969 850.421875 650.058594 850.992188 C 649.824219 851.558594 649.5625 852.113281 649.273438 852.652344 C 648.984375 853.195312 648.667969 853.71875 648.328125 854.230469 C 647.988281 854.738281 647.621094 855.230469 647.234375 855.707031 C 646.84375 856.179688 646.433594 856.636719 646 857.070312 C 645.5625 857.503906 645.109375 857.914062 644.636719 858.304688 C 644.160156 858.691406 643.667969 859.058594 643.160156 859.398438 C 642.648438 859.738281 642.125 860.054688 641.582031 860.34375 C 641.039062 860.632812 640.488281 860.894531 639.917969 861.128906 C 639.351562 861.367188 638.777344 861.570312 638.1875 861.75 C 637.601562 861.929688 637.007812 862.078125 636.40625 862.195312 C 635.804688 862.316406 635.195312 862.40625 634.585938 862.464844 C 633.976562 862.527344 633.363281 862.558594 632.75 862.558594 C 632.136719 862.558594 631.523438 862.527344 630.914062 862.464844 C 630.300781 862.40625 629.695312 862.316406 629.09375 862.195312 C 628.492188 862.078125 627.898438 861.929688 627.3125 861.75 C 626.722656 861.570312 626.148438 861.367188 625.578125 861.128906 C 625.011719 860.894531 624.457031 860.632812 623.917969 860.34375 C 623.375 860.054688 622.851562 859.738281 622.339844 859.398438 C 621.832031 859.058594 621.339844 858.691406 620.863281 858.304688 C 620.390625 857.914062 619.933594 857.503906 619.5 857.070312 C 619.066406 856.636719 618.65625 856.179688 618.265625 855.707031 C 617.878906 855.230469 617.511719 854.738281 617.171875 854.230469 C 616.832031 853.71875 616.515625 853.195312 616.226562 852.652344 C 615.9375 852.113281 615.675781 851.558594 615.441406 850.992188 C 615.207031 850.421875 615 849.847656 614.820312 849.257812 C 614.640625 848.671875 614.492188 848.078125 614.375 847.476562 C 614.253906 846.875 614.164062 846.269531 614.105469 845.65625 C 614.042969 845.046875 614.015625 844.433594 614.015625 843.820312 C 614.015625 843.207031 614.042969 842.59375 614.105469 841.984375 C 614.164062 841.375 614.253906 840.765625 614.375 840.164062 C 614.492188 839.5625 614.640625 838.96875 614.820312 838.382812 C 615 837.792969 615.203125 837.21875 615.441406 836.652344 C 615.675781 836.082031 615.9375 835.53125 616.226562 834.988281 C 616.515625 834.449219 616.832031 833.921875 617.171875 833.410156 C 617.511719 832.902344 617.878906 832.410156 618.265625 831.933594 C 618.65625 831.460938 619.066406 831.007812 619.5 830.570312 C 619.933594 830.136719 620.390625 829.726562 620.863281 829.335938 C 621.339844 828.949219 621.832031 828.582031 622.339844 828.242188 C 622.851562 827.902344 623.375 827.585938 623.917969 827.296875 C 624.457031 827.007812 625.011719 826.746094 625.578125 826.511719 C 626.148438 826.277344 626.722656 826.070312 627.3125 825.890625 C 627.898438 825.714844 628.492188 825.5625 629.09375 825.445312 C 629.695312 825.324219 630.300781 825.234375 630.914062 825.175781 C 631.523438 825.113281 632.136719 825.085938 632.75 825.085938 C 633.363281 825.085938 633.976562 825.113281 634.585938 825.175781 C 635.195312 825.234375 635.804688 825.324219 636.40625 825.445312 C 637.007812 825.5625 637.601562 825.714844 638.1875 825.890625 C 638.777344 826.070312 639.351562 826.277344 639.917969 826.511719 C 640.488281 826.746094 641.039062 827.007812 641.582031 827.296875 C 642.125 827.585938 642.648438 827.902344 643.160156 828.242188 C 643.667969 828.582031 644.160156 828.949219 644.636719 829.335938 C 645.109375 829.726562 645.5625 830.136719 646 830.570312 C 646.433594 831.007812 646.84375 831.460938 647.234375 831.933594 C 647.621094 832.410156 647.988281 832.902344 648.328125 833.410156 C 648.667969 833.921875 648.984375 834.449219 649.273438 834.988281 C 649.5625 835.53125 649.824219 836.082031 650.058594 836.652344 C 650.292969 837.21875 650.5 837.792969 650.679688 838.382812 C 650.855469 838.96875 651.007812 839.5625 651.125 840.164062 C 651.246094 840.765625 651.335938 841.375 651.394531 841.984375 C 651.457031 842.59375 651.484375 843.207031 651.484375 843.820312 Z M 651.484375 843.820312 " fill-opacity="1" fill-rule="nonzero"/><path fill="#dde6e6" d="M 582.480469 843.820312 C 582.480469 854.171875 574.078125 862.574219 563.726562 862.574219 C 553.375 862.574219 544.972656 854.171875 544.972656 843.820312 C 544.972656 833.46875 553.375 825.066406 563.726562 825.066406 C 574.078125 825.066406 582.480469 833.46875 582.480469 843.820312 Z M 582.480469 843.820312 " fill-opacity="1" fill-rule="nonzero"/><path fill="#dde6e6" d="M 515.121094 826.699219 C 515.121094 836.785156 506.949219 844.957031 496.863281 844.957031 C 486.777344 844.957031 478.605469 836.785156 478.605469 826.699219 C 478.605469 816.613281 486.777344 808.441406 496.863281 808.441406 C 506.949219 808.441406 515.121094 816.613281 515.121094 826.699219 Z M 515.121094 826.699219 " fill-opacity="1" fill-rule="nonzero"/><path fill="#dde6e6" d="M 453.667969 793.390625 C 453.667969 802.925781 445.9375 810.636719 436.417969 810.636719 C 426.902344 810.636719 419.171875 802.910156 419.171875 793.390625 C 419.171875 783.855469 426.902344 776.144531 436.417969 776.144531 C 445.9375 776.144531 453.667969 783.871094 453.667969 793.390625 Z M 453.667969 793.390625 " fill-opacity="1" fill-rule="nonzero"/><path fill="#dde6e6" d="M 401.800781 746.117188 C 401.800781 754.785156 394.765625 761.820312 386.097656 761.820312 C 377.429688 761.820312 370.390625 754.785156 370.390625 746.117188 C 370.390625 737.449219 377.429688 730.410156 386.097656 730.410156 C 394.765625 730.410156 401.800781 737.449219 401.800781 746.117188 Z M 401.800781 746.117188 " fill-opacity="1" fill-rule="nonzero"/><path fill="#dde6e6" d="M 362.769531 687.871094 C 362.769531 695.421875 356.636719 701.554688 349.085938 701.554688 C 341.535156 701.554688 335.402344 695.421875 335.402344 687.871094 C 335.402344 680.320312 341.535156 674.183594 349.085938 674.183594 C 356.636719 674.183594 362.769531 680.320312 362.769531 687.871094 Z M 362.769531 687.871094 " fill-opacity="1" fill-rule="nonzero"/><path fill="#dde6e6" d="M 339.105469 622.214844 C 339.105469 628.46875 334.035156 633.539062 327.777344 633.539062 C 321.519531 633.539062 316.453125 628.46875 316.453125 622.214844 C 316.453125 615.957031 321.519531 610.886719 327.777344 610.886719 C 334.035156 610.886719 339.105469 615.957031 339.105469 622.214844 Z M 339.105469 622.214844 " fill-opacity="1" fill-rule="nonzero"/><path fill="#dde6e6" d="M 332.371094 553.3125 C 332.371094 558.207031 328.398438 562.175781 323.507812 562.175781 C 318.613281 562.175781 314.644531 558.207031 314.644531 553.3125 C 314.644531 548.421875 318.613281 544.449219 323.507812 544.449219 C 328.398438 544.449219 332.371094 548.421875 332.371094 553.3125 Z M 332.371094 553.3125 " fill-opacity="1" fill-rule="nonzero"/><path fill="#dde6e6" d="M 342.792969 485.511719 C 342.792969 489.058594 339.921875 491.929688 336.375 491.929688 C 332.832031 491.929688 329.957031 489.058594 329.957031 485.511719 C 329.957031 481.96875 332.832031 479.097656 336.375 479.097656 C 339.921875 479.097656 342.792969 481.96875 342.792969 485.511719 Z M 342.792969 485.511719 " fill-opacity="1" fill-rule="nonzero"/><path fill="#dde6e6" d="M 370 423.082031 C 370 425.40625 368.121094 427.285156 365.800781 427.285156 C 363.476562 427.285156 361.597656 425.40625 361.597656 423.082031 C 361.597656 420.761719 363.476562 418.882812 365.800781 418.882812 C 368.121094 418.882812 370 420.761719 370 423.082031 Z M 370 423.082031 " fill-opacity="1" fill-rule="nonzero"/><path fill="#dde6e6" d="M 412.257812 369.921875 C 412.257812 371.253906 411.179688 372.332031 409.847656 372.332031 C 408.519531 372.332031 407.4375 371.253906 407.4375 369.921875 C 407.4375 368.59375 408.519531 367.511719 409.847656 367.511719 C 411.179688 367.511719 412.257812 368.59375 412.257812 369.921875 Z M 412.257812 369.921875 " fill-opacity="1" fill-rule="nonzero"/><path fill="#dde6e6" d="M 466.75 329.332031 C 466.75 329.933594 466.269531 330.414062 465.667969 330.414062 C 465.0625 330.414062 464.585938 329.933594 464.585938 329.332031 C 464.585938 328.726562 465.0625 328.25 465.667969 328.25 C 466.269531 328.25 466.75 328.726562 466.75 329.332031 Z M 466.75 329.332031 " fill-opacity="1" fill-rule="nonzero"/><path fill="#dde6e6" d="M 530.117188 303.929688 C 530.117188 304.089844 529.992188 304.214844 529.835938 304.214844 C 529.675781 304.214844 529.550781 304.089844 529.550781 303.929688 C 529.550781 303.769531 529.675781 303.644531 529.835938 303.644531 C 529.992188 303.644531 530.117188 303.769531 530.117188 303.929688 Z M 530.117188 303.929688 " fill-opacity="1" fill-rule="nonzero"/><path fill="#dde6e6" d="M 902.128906 396.6875 C 901.984375 396.832031 901.773438 396.832031 901.648438 396.6875 C 901.527344 396.546875 901.523438 396.335938 901.648438 396.210938 C 901.773438 396.085938 902.003906 396.070312 902.128906 396.210938 C 902.253906 396.351562 902.269531 396.566406 902.128906 396.6875 Z M 902.128906 396.6875 " fill-opacity="1" fill-rule="nonzero"/><path fill="#dde6e6" d="M 937.082031 476.597656 C 936.570312 477.109375 935.71875 477.109375 935.1875 476.597656 C 934.65625 476.082031 934.671875 475.230469 935.1875 474.699219 C 935.699219 474.167969 936.550781 474.1875 937.082031 474.699219 C 937.613281 475.214844 937.597656 476.066406 937.082031 476.597656 Z M 937.082031 476.597656 " fill-opacity="1" fill-rule="nonzero"/><path fill="#dde6e6" d="M 951.671875 562.972656 C 950.519531 564.125 948.640625 564.125 947.46875 562.972656 C 946.300781 561.820312 946.316406 559.941406 947.46875 558.773438 C 948.621094 557.601562 950.5 557.621094 951.671875 558.773438 C 952.839844 559.925781 952.824219 561.804688 951.671875 562.972656 Z M 951.671875 562.972656 " fill-opacity="1" fill-rule="nonzero"/><path fill="#dde6e6" d="M 945.148438 650.433594 C 943.128906 652.453125 939.847656 652.453125 937.828125 650.433594 C 935.808594 648.410156 935.808594 645.132812 937.828125 643.113281 C 939.847656 641.089844 943.128906 641.089844 945.148438 643.113281 C 947.167969 645.132812 947.167969 648.410156 945.148438 650.433594 Z M 945.148438 650.433594 " fill-opacity="1" fill-rule="nonzero"/><path fill="#dde6e6" d="M 917.902344 733.566406 C 914.820312 736.652344 909.804688 736.652344 906.703125 733.566406 C 903.597656 730.480469 903.597656 725.464844 906.703125 722.363281 C 909.804688 719.261719 914.800781 719.28125 917.902344 722.363281 C 920.988281 725.449219 920.988281 730.464844 917.902344 733.566406 Z M 917.902344 733.566406 " fill-opacity="1" fill-rule="nonzero"/><path fill="#dde6e6" d="M 871.496094 807.023438 C 867.207031 811.3125 860.277344 811.3125 855.988281 807.023438 C 851.699219 802.734375 851.699219 795.800781 855.988281 791.511719 C 860.277344 787.222656 867.207031 787.222656 871.496094 791.511719 C 875.789062 795.800781 875.789062 802.734375 871.496094 807.023438 Z M 871.496094 807.023438 " fill-opacity="1" fill-rule="nonzero"/><path fill="#dde6e6" d="M 808.960938 866.261719 C 803.484375 871.738281 794.621094 871.738281 789.144531 866.261719 C 783.667969 860.785156 783.667969 851.921875 789.144531 846.445312 C 794.621094 840.96875 803.484375 840.96875 808.960938 846.445312 C 814.4375 851.921875 814.4375 860.785156 808.960938 866.261719 Z M 808.960938 866.261719 " fill-opacity="1" fill-rule="nonzero"/><path fill="#dde6e6" d="M 734.175781 907.527344 C 727.546875 914.15625 716.804688 914.15625 710.175781 907.527344 C 703.546875 900.898438 703.546875 890.15625 710.175781 883.527344 C 716.804688 876.898438 727.546875 876.898438 734.175781 883.527344 C 740.804688 890.15625 740.804688 900.898438 734.175781 907.527344 Z M 734.175781 907.527344 " fill-opacity="1" fill-rule="nonzero"/><path fill="#dde6e6" d="M 651.734375 928.070312 C 644.128906 935.675781 631.773438 935.675781 624.171875 928.070312 C 616.566406 920.46875 616.566406 908.113281 624.171875 900.507812 C 631.773438 892.902344 644.128906 892.902344 651.734375 900.507812 C 659.339844 908.113281 659.339844 920.46875 651.734375 928.070312 Z M 651.734375 928.070312 " fill-opacity="1" fill-rule="nonzero"/><path fill="#dde6e6" d="M 566.898438 926.757812 C 558.515625 935.144531 544.917969 935.144531 536.535156 926.757812 C 528.148438 918.375 528.148438 904.78125 536.535156 896.394531 C 544.917969 888.011719 558.515625 888.011719 566.898438 896.394531 C 575.28125 904.78125 575.28125 918.375 566.898438 926.757812 Z M 566.898438 926.757812 " fill-opacity="1" fill-rule="nonzero"/><path fill="#dde6e6" d="M 484.953125 903.664062 C 476.054688 912.5625 461.644531 912.5625 452.746094 903.664062 C 443.847656 894.765625 443.847656 880.351562 452.746094 871.457031 C 461.644531 862.558594 476.054688 862.558594 484.953125 871.457031 C 493.851562 880.351562 493.851562 894.765625 484.953125 903.664062 Z M 484.953125 903.664062 " fill-opacity="1" fill-rule="nonzero"/><path fill="#dde6e6" d="M 418.054688 843.589844 C 418.054688 844.355469 418.019531 845.121094 417.941406 845.886719 C 417.867188 846.648438 417.753906 847.40625 417.605469 848.160156 C 417.457031 848.910156 417.269531 849.652344 417.046875 850.386719 C 416.824219 851.121094 416.566406 851.84375 416.273438 852.550781 C 415.980469 853.257812 415.652344 853.953125 415.289062 854.628906 C 414.929688 855.304688 414.535156 855.960938 414.109375 856.597656 C 413.683594 857.238281 413.226562 857.851562 412.742188 858.445312 C 412.253906 859.039062 411.738281 859.605469 411.199219 860.148438 C 410.65625 860.691406 410.085938 861.203125 409.496094 861.691406 C 408.902344 862.175781 408.285156 862.632812 407.648438 863.058594 C 407.011719 863.484375 406.355469 863.878906 405.679688 864.242188 C 405 864.601562 404.308594 864.929688 403.601562 865.222656 C 402.890625 865.515625 402.171875 865.773438 401.4375 865.996094 C 400.703125 866.21875 399.960938 866.40625 399.207031 866.554688 C 398.457031 866.707031 397.699219 866.816406 396.933594 866.894531 C 396.171875 866.96875 395.40625 867.007812 394.640625 867.007812 C 393.871094 867.007812 393.109375 866.96875 392.34375 866.894531 C 391.582031 866.816406 390.824219 866.707031 390.070312 866.554688 C 389.320312 866.40625 388.578125 866.21875 387.84375 865.996094 C 387.109375 865.773438 386.386719 865.515625 385.679688 865.222656 C 384.96875 864.929688 384.277344 864.601562 383.601562 864.242188 C 382.925781 863.878906 382.269531 863.484375 381.628906 863.058594 C 380.992188 862.632812 380.378906 862.175781 379.785156 861.691406 C 379.191406 861.203125 378.625 860.691406 378.082031 860.148438 C 377.539062 859.605469 377.027344 859.039062 376.539062 858.445312 C 376.054688 857.851562 375.597656 857.238281 375.171875 856.597656 C 374.746094 855.960938 374.351562 855.304688 373.988281 854.628906 C 373.628906 853.953125 373.300781 853.257812 373.007812 852.550781 C 372.714844 851.84375 372.457031 851.121094 372.234375 850.386719 C 372.011719 849.652344 371.824219 848.910156 371.675781 848.160156 C 371.523438 847.40625 371.414062 846.648438 371.335938 845.886719 C 371.261719 845.121094 371.222656 844.355469 371.222656 843.589844 C 371.222656 842.824219 371.261719 842.058594 371.335938 841.296875 C 371.414062 840.53125 371.523438 839.773438 371.675781 839.023438 C 371.824219 838.269531 372.011719 837.527344 372.234375 836.792969 C 372.457031 836.058594 372.714844 835.335938 373.007812 834.628906 C 373.300781 833.921875 373.628906 833.226562 373.988281 832.550781 C 374.351562 831.875 374.746094 831.21875 375.171875 830.582031 C 375.597656 829.945312 376.054688 829.328125 376.539062 828.734375 C 377.027344 828.144531 377.539062 827.574219 378.082031 827.03125 C 378.625 826.492188 379.191406 825.976562 379.785156 825.488281 C 380.378906 825.003906 380.992188 824.546875 381.628906 824.121094 C 382.269531 823.695312 382.925781 823.300781 383.601562 822.941406 C 384.277344 822.578125 384.96875 822.25 385.679688 821.957031 C 386.386719 821.664062 387.109375 821.40625 387.84375 821.183594 C 388.578125 820.960938 389.320312 820.773438 390.070312 820.625 C 390.824219 820.476562 391.582031 820.363281 392.34375 820.289062 C 393.109375 820.210938 393.871094 820.175781 394.640625 820.175781 C 395.40625 820.175781 396.171875 820.210938 396.933594 820.289062 C 397.699219 820.363281 398.457031 820.476562 399.207031 820.625 C 399.960938 820.773438 400.703125 820.960938 401.4375 821.183594 C 402.171875 821.40625 402.890625 821.664062 403.601562 821.957031 C 404.308594 822.25 405 822.578125 405.679688 822.9375 C 406.355469 823.300781 407.011719 823.695312 407.648438 824.121094 C 408.285156 824.546875 408.902344 825.003906 409.496094 825.488281 C 410.085938 825.976562 410.65625 826.492188 411.199219 827.03125 C 411.738281 827.574219 412.253906 828.144531 412.742188 828.734375 C 413.226562 829.328125 413.683594 829.945312 414.109375 830.582031 C 414.535156 831.21875 414.929688 831.875 415.289062 832.550781 C 415.652344 833.226562 415.980469 833.921875 416.273438 834.628906 C 416.566406 835.335938 416.824219 836.058594 417.046875 836.792969 C 417.269531 837.527344 417.457031 838.269531 417.605469 839.023438 C 417.753906 839.773438 417.867188 840.53125 417.941406 841.296875 C 418.019531 842.058594 418.054688 842.824219 418.054688 843.589844 Z M 418.054688 843.589844 " fill-opacity="1" fill-rule="nonzero"/><path fill="#dde6e6" d="M 350.203125 799.152344 C 341.039062 808.316406 326.199219 808.316406 317.035156 799.152344 C 307.871094 789.988281 307.871094 775.152344 317.035156 765.988281 C 326.199219 756.824219 341.039062 756.824219 350.203125 765.988281 C 359.367188 775.152344 359.367188 789.988281 350.203125 799.152344 Z M 350.203125 799.152344 " fill-opacity="1" fill-rule="nonzero"/><path fill="#dde6e6" d="M 305.816406 724.492188 C 296.898438 733.40625 282.4375 733.40625 273.519531 724.492188 C 264.605469 715.574219 264.605469 701.109375 273.519531 692.195312 C 282.4375 683.277344 296.898438 683.277344 305.816406 692.195312 C 314.730469 701.109375 314.730469 715.574219 305.816406 724.492188 Z M 305.816406 724.492188 " fill-opacity="1" fill-rule="nonzero"/><path fill="#dde6e6" d="M 280.929688 640.71875 C 272.507812 649.140625 258.84375 649.140625 250.421875 640.71875 C 242.003906 632.300781 242.003906 618.632812 250.421875 610.214844 C 258.84375 601.792969 272.507812 601.792969 280.929688 610.214844 C 289.347656 618.632812 289.347656 632.300781 280.929688 640.71875 Z M 280.929688 640.71875 " fill-opacity="1" fill-rule="nonzero"/><path fill="#dde6e6" d="M 276.871094 553.101562 C 269.210938 560.757812 256.769531 560.757812 249.113281 553.101562 C 241.453125 545.441406 241.453125 533 249.113281 525.34375 C 256.769531 517.683594 269.210938 517.683594 276.871094 525.34375 C 284.527344 533 284.527344 545.441406 276.871094 553.101562 Z M 276.871094 553.101562 " fill-opacity="1" fill-rule="nonzero"/><path fill="#dde6e6" d="M 293.851562 467.113281 C 287.167969 473.796875 276.339844 473.796875 269.65625 467.113281 C 262.972656 460.429688 262.972656 449.601562 269.65625 442.917969 C 276.339844 436.234375 287.167969 436.234375 293.851562 442.917969 C 300.535156 449.601562 300.535156 460.429688 293.851562 467.113281 Z M 293.851562 467.113281 " fill-opacity="1" fill-rule="nonzero"/><path fill="#dde6e6" d="M 330.96875 388.164062 C 325.4375 393.691406 316.488281 393.691406 310.957031 388.164062 C 305.425781 382.632812 305.425781 373.679688 310.957031 368.148438 C 316.488281 362.621094 325.4375 362.621094 330.96875 368.148438 C 336.5 373.679688 336.5 382.632812 330.96875 388.164062 Z M 330.96875 388.164062 " fill-opacity="1" fill-rule="nonzero"/><path fill="#dde6e6" d="M 385.902344 321.320312 C 381.574219 325.644531 374.558594 325.644531 370.230469 321.320312 C 365.90625 316.992188 365.90625 309.972656 370.230469 305.648438 C 374.558594 301.324219 381.574219 301.324219 385.902344 305.648438 C 390.226562 309.972656 390.226562 316.992188 385.902344 321.320312 Z M 385.902344 321.320312 " fill-opacity="1" fill-rule="nonzero"/><path fill="#dde6e6" d="M 455.066406 270.585938 C 451.929688 273.726562 446.859375 273.726562 443.722656 270.585938 C 440.585938 267.449219 440.585938 262.378906 443.722656 259.242188 C 446.859375 256.105469 451.929688 256.105469 455.066406 259.242188 C 458.203125 262.378906 458.203125 267.449219 455.066406 270.585938 Z M 455.066406 270.585938 " fill-opacity="1" fill-rule="nonzero"/><path fill="#dde6e6" d="M 534.300781 239.480469 C 532.246094 241.535156 528.929688 241.535156 526.890625 239.480469 C 524.851562 237.421875 524.835938 234.109375 526.890625 232.070312 C 528.949219 230.011719 532.261719 230.03125 534.300781 232.070312 C 536.339844 234.109375 536.339844 237.441406 534.300781 239.480469 Z M 534.300781 239.480469 " fill-opacity="1" fill-rule="nonzero"/><path fill="#dde6e6" d="M 618.621094 229.835938 C 617.453125 231.007812 615.539062 231.007812 614.367188 229.835938 C 613.199219 228.667969 613.199219 226.753906 614.367188 225.582031 C 615.539062 224.414062 617.453125 224.414062 618.621094 225.582031 C 619.792969 226.753906 619.792969 228.667969 618.621094 229.835938 Z M 618.621094 229.835938 " fill-opacity="1" fill-rule="nonzero"/><path fill="#dde6e6" d="M 702.679688 242.121094 C 702.144531 242.652344 701.296875 242.652344 700.761719 242.121094 C 700.230469 241.589844 700.230469 240.738281 700.761719 240.207031 C 701.296875 239.675781 702.144531 239.675781 702.679688 240.207031 C 703.210938 240.738281 703.210938 241.589844 702.679688 242.121094 Z M 702.679688 242.121094 " fill-opacity="1" fill-rule="nonzero"/><path fill="#dde6e6" d="M 781.132812 275.675781 C 780.992188 275.816406 780.777344 275.816406 780.636719 275.675781 C 780.492188 275.535156 780.492188 275.320312 780.636719 275.179688 C 780.777344 275.035156 780.992188 275.035156 781.132812 275.179688 C 781.273438 275.320312 781.273438 275.535156 781.132812 275.675781 Z M 781.132812 275.675781 " fill-opacity="1" fill-rule="nonzero"/><path fill="#dde6e6" d="M 1027.945312 686.46875 C 1027.714844 686.46875 1027.519531 686.273438 1027.519531 686.042969 C 1027.519531 685.8125 1027.714844 685.617188 1027.945312 685.617188 C 1028.175781 685.617188 1028.371094 685.8125 1028.371094 686.042969 C 1028.371094 686.273438 1028.175781 686.46875 1027.945312 686.46875 Z M 1027.945312 686.46875 " fill-opacity="1" fill-rule="nonzero"/><path fill="#dde6e6" d="M 988.222656 787.984375 C 987.300781 787.984375 986.554688 787.238281 986.554688 786.320312 C 986.554688 785.398438 987.300781 784.652344 988.222656 784.652344 C 989.144531 784.652344 989.886719 785.398438 989.886719 786.320312 C 989.886719 787.238281 989.144531 787.984375 988.222656 787.984375 Z M 988.222656 787.984375 " fill-opacity="1" fill-rule="nonzero"/><path fill="#dde6e6" d="M 924.765625 877.234375 C 922.707031 877.234375 921.058594 875.566406 921.058594 873.527344 C 921.058594 871.492188 922.726562 869.824219 924.765625 869.824219 C 926.800781 869.824219 928.46875 871.492188 928.46875 873.527344 C 928.46875 875.566406 926.800781 877.234375 924.765625 877.234375 Z M 924.765625 877.234375 " fill-opacity="1" fill-rule="nonzero"/><path fill="#dde6e6" d="M 841.683594 948.773438 C 838.101562 948.773438 835.214844 945.867188 835.214844 942.304688 C 835.214844 938.742188 838.121094 935.835938 841.683594 935.835938 C 845.246094 935.835938 848.152344 938.742188 848.152344 942.304688 C 848.152344 945.867188 845.246094 948.773438 841.683594 948.773438 Z M 841.683594 948.773438 " fill-opacity="1" fill-rule="nonzero"/><path fill="#dde6e6" d="M 744.136719 998.175781 C 738.679688 998.175781 734.230469 993.746094 734.230469 988.285156 C 734.230469 982.824219 738.660156 978.375 744.136719 978.375 C 749.617188 978.375 754.046875 982.808594 754.046875 988.285156 C 754.046875 993.761719 749.617188 998.175781 744.136719 998.175781 Z M 744.136719 998.175781 " fill-opacity="1" fill-rule="nonzero"/><g clip-path="url(#1dddb8b5b4)"><path fill="#dde6e6" d="M 638.191406 1022.070312 C 630.621094 1022.070312 624.488281 1015.9375 624.488281 1008.367188 C 624.488281 1000.800781 630.621094 994.667969 638.191406 994.667969 C 645.761719 994.667969 651.894531 1000.800781 651.894531 1008.367188 C 651.894531 1015.9375 645.761719 1022.070312 638.191406 1022.070312 Z M 638.191406 1022.070312 " fill-opacity="1" fill-rule="nonzero"/></g><path fill="#dde6e6" d="M 530.542969 1019.179688 C 520.863281 1019.179688 513.03125 1011.328125 513.03125 1001.667969 C 513.03125 992.007812 520.882812 984.15625 530.542969 984.15625 C 540.203125 984.15625 548.054688 991.988281 548.054688 1001.667969 C 548.054688 1011.347656 540.222656 1019.179688 530.542969 1019.179688 Z M 530.542969 1019.179688 " fill-opacity="1" fill-rule="nonzero"/><path fill="#dde6e6" d="M 427.964844 989.542969 C 416.246094 989.542969 406.765625 980.042969 406.765625 968.34375 C 406.765625 956.644531 416.265625 947.144531 427.964844 947.144531 C 439.664062 947.144531 449.164062 956.644531 449.164062 968.34375 C 449.164062 980.042969 439.664062 989.542969 427.964844 989.542969 Z M 427.964844 989.542969 " fill-opacity="1" fill-rule="nonzero"/><path fill="#dde6e6" d="M 336.960938 934.84375 C 323.507812 934.84375 312.585938 923.941406 312.585938 910.46875 C 312.585938 896.996094 323.488281 886.097656 336.960938 886.097656 C 350.433594 886.097656 361.332031 896.996094 361.332031 910.46875 C 361.332031 923.941406 350.433594 934.84375 336.960938 934.84375 Z M 336.960938 934.84375 " fill-opacity="1" fill-rule="nonzero"/><path fill="#dde6e6" d="M 263.132812 858.691406 C 248.3125 858.691406 236.296875 846.675781 236.296875 831.855469 C 236.296875 817.035156 248.3125 805.019531 263.132812 805.019531 C 277.953125 805.019531 289.96875 817.035156 289.96875 831.855469 C 289.96875 846.675781 277.953125 858.691406 263.132812 858.691406 Z M 263.132812 858.691406 " fill-opacity="1" fill-rule="nonzero"/><path fill="#dde6e6" d="M 211.109375 765.84375 C 195.386719 765.84375 182.640625 753.101562 182.640625 737.378906 C 182.640625 721.65625 195.386719 708.910156 211.109375 708.910156 C 226.832031 708.910156 239.574219 721.65625 239.574219 737.378906 C 239.574219 753.101562 226.832031 765.84375 211.109375 765.84375 Z M 211.109375 765.84375 " fill-opacity="1" fill-rule="nonzero"/><path fill="#dde6e6" d="M 213.660156 632.917969 C 213.660156 633.878906 213.613281 634.835938 213.519531 635.789062 C 213.425781 636.746094 213.285156 637.691406 213.097656 638.632812 C 212.910156 639.574219 212.675781 640.503906 212.398438 641.421875 C 212.121094 642.339844 211.796875 643.238281 211.429688 644.125 C 211.0625 645.011719 210.65625 645.878906 210.203125 646.722656 C 209.75 647.570312 209.257812 648.390625 208.726562 649.1875 C 208.191406 649.984375 207.621094 650.753906 207.011719 651.496094 C 206.40625 652.238281 205.761719 652.949219 205.082031 653.625 C 204.40625 654.304688 203.695312 654.949219 202.953125 655.554688 C 202.210938 656.164062 201.441406 656.734375 200.644531 657.269531 C 199.847656 657.800781 199.027344 658.292969 198.179688 658.746094 C 197.335938 659.195312 196.46875 659.605469 195.582031 659.972656 C 194.695312 660.339844 193.796875 660.664062 192.878906 660.941406 C 191.960938 661.21875 191.03125 661.453125 190.089844 661.640625 C 189.148438 661.828125 188.203125 661.96875 187.246094 662.0625 C 186.292969 662.15625 185.335938 662.203125 184.378906 662.203125 C 183.417969 662.203125 182.460938 662.15625 181.507812 662.0625 C 180.550781 661.96875 179.605469 661.828125 178.664062 661.640625 C 177.722656 661.453125 176.792969 661.21875 175.875 660.941406 C 174.960938 660.664062 174.058594 660.339844 173.171875 659.972656 C 172.285156 659.605469 171.417969 659.195312 170.574219 658.746094 C 169.726562 658.292969 168.90625 657.800781 168.109375 657.269531 C 167.3125 656.734375 166.542969 656.164062 165.800781 655.554688 C 165.058594 654.949219 164.347656 654.304688 163.671875 653.625 C 162.992188 652.949219 162.347656 652.238281 161.742188 651.496094 C 161.132812 650.753906 160.5625 649.984375 160.027344 649.1875 C 159.496094 648.390625 159.003906 647.570312 158.550781 646.722656 C 158.101562 645.878906 157.691406 645.011719 157.324219 644.125 C 156.957031 643.238281 156.632812 642.339844 156.355469 641.421875 C 156.078125 640.503906 155.84375 639.574219 155.65625 638.632812 C 155.46875 637.691406 155.328125 636.746094 155.234375 635.789062 C 155.140625 634.835938 155.09375 633.878906 155.09375 632.917969 C 155.09375 631.960938 155.140625 631.003906 155.234375 630.050781 C 155.328125 629.09375 155.46875 628.148438 155.65625 627.207031 C 155.84375 626.265625 156.078125 625.335938 156.355469 624.417969 C 156.632812 623.5 156.957031 622.601562 157.324219 621.714844 C 157.691406 620.828125 158.101562 619.960938 158.550781 619.117188 C 159.003906 618.269531 159.496094 617.449219 160.027344 616.652344 C 160.5625 615.855469 161.132812 615.085938 161.742188 614.34375 C 162.347656 613.601562 162.992188 612.890625 163.671875 612.214844 C 164.347656 611.535156 165.058594 610.890625 165.800781 610.285156 C 166.542969 609.675781 167.3125 609.105469 168.109375 608.570312 C 168.90625 608.039062 169.726562 607.546875 170.574219 607.09375 C 171.417969 606.640625 172.285156 606.234375 173.171875 605.867188 C 174.058594 605.5 174.960938 605.175781 175.875 604.898438 C 176.792969 604.621094 177.722656 604.386719 178.664062 604.199219 C 179.605469 604.011719 180.550781 603.871094 181.507812 603.777344 C 182.460938 603.683594 183.417969 603.636719 184.378906 603.636719 C 185.335938 603.636719 186.292969 603.683594 187.246094 603.777344 C 188.203125 603.871094 189.148438 604.011719 190.089844 604.199219 C 191.03125 604.386719 191.960938 604.621094 192.878906 604.898438 C 193.796875 605.175781 194.695312 605.5 195.582031 605.867188 C 196.46875 606.234375 197.335938 606.640625 198.179688 607.09375 C 199.027344 607.546875 199.847656 608.039062 200.644531 608.570312 C 201.441406 609.105469 202.210938 609.675781 202.953125 610.285156 C 203.695312 610.890625 204.40625 611.535156 205.082031 612.214844 C 205.761719 612.890625 206.40625 613.601562 207.011719 614.34375 C 207.621094 615.085938 208.191406 615.855469 208.726562 616.652344 C 209.257812 617.449219 209.75 618.269531 210.203125 619.117188 C 210.65625 619.960938 211.0625 620.828125 211.429688 621.714844 C 211.796875 622.601562 212.121094 623.5 212.398438 624.417969 C 212.675781 625.335938 212.910156 626.265625 213.097656 627.207031 C 213.285156 628.148438 213.425781 629.09375 213.519531 630.050781 C 213.613281 631.003906 213.660156 631.960938 213.660156 632.917969 Z M 213.660156 632.917969 " fill-opacity="1" fill-rule="nonzero"/><path fill="#dde6e6" d="M 184.378906 554.378906 C 168.195312 554.378906 155.078125 541.261719 155.078125 525.078125 C 155.078125 508.894531 168.195312 495.777344 184.378906 495.777344 C 200.5625 495.777344 213.679688 508.894531 213.679688 525.078125 C 213.679688 541.261719 200.5625 554.378906 184.378906 554.378906 Z M 184.378906 554.378906 " fill-opacity="1" fill-rule="nonzero"/><path fill="#dde6e6" d="M 211.144531 449.140625 C 195.386719 449.140625 182.605469 436.359375 182.605469 420.601562 C 182.605469 404.84375 195.386719 392.0625 211.144531 392.0625 C 226.902344 392.0625 239.679688 404.84375 239.679688 420.601562 C 239.679688 436.359375 226.902344 449.140625 211.144531 449.140625 Z M 211.144531 449.140625 " fill-opacity="1" fill-rule="nonzero"/><path fill="#dde6e6" d="M 263.1875 353.082031 C 248.296875 353.082031 236.226562 341.011719 236.226562 326.121094 C 236.226562 311.234375 248.296875 299.160156 263.1875 299.160156 C 278.074219 299.160156 290.148438 311.234375 290.148438 326.121094 C 290.148438 341.011719 278.074219 353.082031 263.1875 353.082031 Z M 263.1875 353.082031 " fill-opacity="1" fill-rule="nonzero"/><path fill="#dde6e6" d="M 337.050781 272.078125 C 323.488281 272.078125 312.515625 261.085938 312.515625 247.542969 C 312.515625 234 323.507812 223.011719 337.050781 223.011719 C 350.589844 223.011719 361.582031 234 361.582031 247.542969 C 361.582031 261.085938 350.589844 272.078125 337.050781 272.078125 Z M 337.050781 272.078125 " fill-opacity="1" fill-rule="nonzero"/><path fill="#dde6e6" d="M 428.070312 211.066406 C 416.265625 211.066406 406.695312 201.492188 406.695312 189.6875 C 406.695312 177.882812 416.265625 168.308594 428.070312 168.308594 C 439.875 168.308594 449.449219 177.882812 449.449219 189.6875 C 449.449219 201.492188 439.875 211.066406 428.070312 211.066406 Z M 428.070312 211.066406 " fill-opacity="1" fill-rule="nonzero"/><path fill="#dde6e6" d="M 530.648438 174.089844 C 520.882812 174.089844 512.960938 166.164062 512.960938 156.398438 C 512.960938 146.632812 520.882812 138.707031 530.648438 138.707031 C 540.417969 138.707031 548.339844 146.632812 548.339844 156.398438 C 548.339844 166.164062 540.417969 174.089844 530.648438 174.089844 Z M 530.648438 174.089844 " fill-opacity="1" fill-rule="nonzero"/><g clip-path="url(#7b887d3799)"><path fill="#dde6e6" d="M 638.296875 163.558594 C 630.640625 163.558594 624.4375 157.355469 624.4375 149.699219 C 624.4375 142.039062 630.640625 135.835938 638.296875 135.835938 C 645.957031 135.835938 652.160156 142.039062 652.160156 149.699219 C 652.160156 157.355469 645.957031 163.558594 638.296875 163.558594 Z M 638.296875 163.558594 " fill-opacity="1" fill-rule="nonzero"/></g><path fill="#dde6e6" d="M 744.246094 179.867188 C 738.714844 179.867188 734.230469 175.382812 734.230469 169.851562 C 734.230469 164.320312 738.714844 159.835938 744.246094 159.835938 C 749.773438 159.835938 754.261719 164.320312 754.261719 169.851562 C 754.261719 175.382812 749.773438 179.867188 744.246094 179.867188 Z M 744.246094 179.867188 " fill-opacity="1" fill-rule="nonzero"/><path fill="#dde6e6" d="M 841.789062 222.390625 C 838.171875 222.390625 835.230469 219.464844 835.230469 215.832031 C 835.230469 212.199219 838.171875 209.273438 841.789062 209.273438 C 845.40625 209.273438 848.347656 212.21875 848.347656 215.832031 C 848.347656 219.449219 845.40625 222.390625 841.789062 222.390625 Z M 841.789062 222.390625 " fill-opacity="1" fill-rule="nonzero"/><path fill="#dde6e6" d="M 924.851562 288.402344 C 922.777344 288.402344 921.09375 286.71875 921.09375 284.644531 C 921.09375 282.570312 922.777344 280.886719 924.851562 280.886719 C 926.925781 280.886719 928.609375 282.570312 928.609375 284.644531 C 928.609375 286.71875 926.925781 288.402344 924.851562 288.402344 Z M 924.851562 288.402344 " fill-opacity="1" fill-rule="nonzero"/><path fill="#dde6e6" d="M 988.273438 373.558594 C 987.335938 373.558594 986.589844 372.792969 986.589844 371.871094 C 986.589844 370.949219 987.351562 370.171875 988.273438 370.171875 C 989.195312 370.171875 989.976562 370.933594 989.976562 371.871094 C 989.976562 372.8125 989.214844 373.558594 988.273438 373.558594 Z M 988.273438 373.558594 " fill-opacity="1" fill-rule="nonzero"/><path fill="#dde6e6" d="M 1027.980469 472.574219 C 1027.75 472.574219 1027.554688 472.378906 1027.554688 472.148438 C 1027.554688 471.917969 1027.75 471.722656 1027.980469 471.722656 C 1028.210938 471.722656 1028.40625 471.917969 1028.40625 472.148438 C 1028.40625 472.378906 1028.210938 472.574219 1027.980469 472.574219 Z M 1027.980469 472.574219 " fill-opacity="1" fill-rule="nonzero"/></g></g></svg>